<svg id="Слой_1" data-name="Слой 1" xmlns="http://www.w3.org/2000/svg" viewBox="0 0 841.89 841.89"><defs><style>.cls-1{fill:#201600;}.cls-2{fill:#fff;}.cls-3{fill:#3eb5f1;}</style></defs><title>Microret logo sv</title><rect class="cls-1" x="-19.25" y="-19.25" width="880.39" height="880.39"/><path class="cls-2" d="M320.57,442.14h-6.36V412.37L295,442.14h-6.66L269,412.37v29.77h-6.37v-38h8.89l20,30.35,20-30.35h8.94Z"/><path class="cls-2" d="M337.81,442.14h-6.37v-38h6.37Z"/><path class="cls-2" d="M396.46,442.14H359.67a10.67,10.67,0,0,1-7.89-3.13,10.83,10.83,0,0,1-3.12-8V415.26a10.83,10.83,0,0,1,3.09-8,10.7,10.7,0,0,1,7.92-3.11h36.79v6.42H359.67q-4.64,0-4.64,4.68V431a4.62,4.62,0,0,0,1.26,3.42,4.57,4.57,0,0,0,3.38,1.26h36.79Z"/><path class="cls-2" d="M455.16,415.28a11.11,11.11,0,0,1-11.1,11.11h-6.2l15.8,15.75h-9l-15.8-15.75H413.73v15.75h-6.36v-38H444.1a10.61,10.61,0,0,1,7.82,3.26A10.73,10.73,0,0,1,455.16,415.28Zm-6.37,0a4.73,4.73,0,0,0-4.69-4.69H413.73V420H444.1a4.73,4.73,0,0,0,4.69-4.69Z"/><path class="cls-2" d="M514.45,431a10.9,10.9,0,0,1-3,8,10.72,10.72,0,0,1-8,3.06H477.67a10.71,10.71,0,0,1-7.93-3.11,10.87,10.87,0,0,1-3.08-8V415.26a10.72,10.72,0,0,1,3.21-7.86,10.6,10.6,0,0,1,7.8-3.23h25.77a10.61,10.61,0,0,1,7.87,3.16,10.79,10.79,0,0,1,3.14,7.93Zm-6.37,0V415.27a4.4,4.4,0,0,0-4.64-4.68H477.67a4.55,4.55,0,0,0-4.64,4.68V431c0,3.12,1.54,4.68,4.64,4.68h25.77Q508.07,435.72,508.08,431Z"/><path class="cls-2" d="M573.15,415.28a11.11,11.11,0,0,1-11.1,11.11h-6.19l15.79,15.75h-9l-15.8-15.75h-15.1v15.75h-6.37v-38h36.73a10.65,10.65,0,0,1,7.83,3.26A10.76,10.76,0,0,1,573.15,415.28Zm-6.37,0a4.71,4.71,0,0,0-4.69-4.69H531.73V420h30.36a4.71,4.71,0,0,0,4.69-4.69Z"/><path class="cls-2" d="M632.44,442.14H584.65v-38h47.79v6.42H591V420h41.42v6.42H591v9.33h41.42Z"/><path class="cls-2" d="M691.09,410.59H670.36v31.55H664V410.59H643.3v-6.42h47.79Z"/><circle class="cls-3" cx="353.83" cy="400.12" r="0.12"/><path class="cls-3" d="M345.09,381.5a.49.49,0,1,0-.49-.49A.49.49,0,0,0,345.09,381.5Z"/><circle class="cls-3" cx="331.32" cy="365.13" r="1"/><circle class="cls-3" cx="313.65" cy="353.76" r="1.76"/><path class="cls-3" d="M290.85,347.85a2.64,2.64,0,1,0,2.64-2.63A2.63,2.63,0,0,0,290.85,347.85Z"/><path class="cls-3" d="M272.47,351.4a3.55,3.55,0,1,0-3.55-3.55A3.54,3.54,0,0,0,272.47,351.4Z"/><path class="cls-3" d="M247.88,353.77a4.43,4.43,0,1,0,4.42-4.43A4.42,4.42,0,0,0,247.88,353.77Z"/><path class="cls-3" d="M234.64,370.33a5.19,5.19,0,1,0-5.19-5.19A5.18,5.18,0,0,0,234.64,370.33Z"/><circle class="cls-3" cx="220.87" cy="381.02" r="5.71"/><circle class="cls-3" cx="212.14" cy="400.12" r="6.08"/><path class="cls-3" d="M203,420.93a6.21,6.21,0,1,0,6.2-6.21A6.2,6.2,0,0,0,203,420.93Z"/><circle class="cls-3" cx="212.14" cy="441.74" r="6.1"/><path class="cls-3" d="M220.88,455.12a5.74,5.74,0,1,0,5.73,5.73A5.74,5.74,0,0,0,220.88,455.12Z"/><circle class="cls-3" cx="234.65" cy="476.73" r="5.23"/><path class="cls-3" d="M252.32,483.64a4.46,4.46,0,1,0,4.45,4.46A4.46,4.46,0,0,0,252.32,483.64Z"/><circle class="cls-3" cx="272.48" cy="494.01" r="3.58"/><circle class="cls-3" cx="293.5" cy="494.01" r="2.66"/><path class="cls-3" d="M313.67,486.31a1.79,1.79,0,1,0,1.78,1.79A1.78,1.78,0,0,0,313.67,486.31Z"/><path class="cls-3" d="M331.33,475.71a1,1,0,1,0,1,1A1,1,0,0,0,331.33,475.71Z"/><path class="cls-3" d="M345.1,460.35a.5.5,0,1,0,.49.49A.49.49,0,0,0,345.1,460.35Z"/><circle class="cls-3" cx="353.83" cy="441.74" r="0.12"/><path class="cls-3" d="M361.44,395.84a.21.21,0,1,0-.21.2A.21.21,0,0,0,361.44,395.84Z"/><path class="cls-3" d="M350.69,372.21a.59.59,0,1,0,0,1.17.59.59,0,1,0,0-1.17Z"/><path class="cls-3" d="M334.1,352.46a1.2,1.2,0,1,0,1.2,1.2A1.2,1.2,0,0,0,334.1,352.46Z"/><path class="cls-3" d="M312.81,342.07a2.13,2.13,0,1,0-2.12-2.12A2.12,2.12,0,0,0,312.81,342.07Z"/><path class="cls-3" d="M288.49,336a3.18,3.18,0,1,0-3.17-3.17A3.17,3.17,0,0,0,288.49,336Z"/><path class="cls-3" d="M263.15,328.53a4.28,4.28,0,1,0,4.27,4.27A4.28,4.28,0,0,0,263.15,328.53Z"/><path class="cls-3" d="M238.83,345.26a5.34,5.34,0,1,0-5.33-5.34A5.33,5.33,0,0,0,238.83,345.26Z"/><path class="cls-3" d="M217.53,359.88a6.26,6.26,0,1,0-6.26-6.25A6.25,6.25,0,0,0,217.53,359.88Z"/><path class="cls-3" d="M194,372.75a6.89,6.89,0,1,0,6.88-6.88A6.88,6.88,0,0,0,194,372.75Z"/><circle class="cls-3" cx="190.38" cy="395.78" r="7.28"/><path class="cls-3" d="M179.29,420.85a7.48,7.48,0,1,0,7.48-7.48A7.48,7.48,0,0,0,179.29,420.85Z"/><circle class="cls-3" cx="190.34" cy="445.95" r="7.29"/><circle class="cls-3" cx="200.85" cy="469" r="6.92"/><path class="cls-3" d="M217.43,481.85a6.31,6.31,0,1,0,6.3,6.3A6.3,6.3,0,0,0,217.43,481.85Z"/><path class="cls-3" d="M244.08,501.88a5.38,5.38,0,1,0-5.37,5.38A5.37,5.37,0,0,0,244.08,501.88Z"/><path class="cls-3" d="M263,504.73a4.32,4.32,0,1,0,4.32,4.31A4.31,4.31,0,0,0,263,504.73Z"/><path class="cls-3" d="M288.36,505.86a3.21,3.21,0,1,0,3.21,3.21A3.21,3.21,0,0,0,288.36,505.86Z"/><circle class="cls-3" cx="312.69" cy="501.97" r="2.15"/><path class="cls-3" d="M334,487.07a1.22,1.22,0,1,0,1.22,1.22A1.22,1.22,0,0,0,334,487.07Z"/><circle class="cls-3" cx="350.62" cy="469.18" r="0.59"/><path class="cls-3" d="M361,446.16a.21.21,0,0,0,.42,0,.21.21,0,1,0-.42,0Z"/><circle class="cls-3" cx="355.41" cy="392.71" r="0.16"/><circle class="cls-3" cx="343.56" cy="366.8" r="0.66"/><circle class="cls-3" cx="324.9" cy="345.28" r="1.35"/><path class="cls-3" d="M301,327.47a2.39,2.39,0,1,0,2.39,2.38A2.39,2.39,0,0,0,301,327.47Z"/><path class="cls-3" d="M273.61,318.26a3.57,3.57,0,1,0,3.57,3.57A3.57,3.57,0,0,0,273.61,318.26Z"/><path class="cls-3" d="M245.11,326.63a4.81,4.81,0,1,0-4.81-4.81A4.82,4.82,0,0,0,245.11,326.63Z"/><path class="cls-3" d="M217.76,335.83a6,6,0,1,0-6-6A6,6,0,0,0,217.76,335.83Z"/><circle class="cls-3" cx="193.8" cy="345.24" r="7.03"/><circle class="cls-3" cx="175.13" cy="366.75" r="7.74"/><path class="cls-3" d="M163.27,400.89a8.25,8.25,0,1,0-8.25-8.25A8.24,8.24,0,0,0,163.27,400.89Z"/><path class="cls-3" d="M167.63,420.84a8.42,8.42,0,1,0-8.41,8.42A8.41,8.41,0,0,0,167.63,420.84Z"/><path class="cls-3" d="M171.49,449.07a8.27,8.27,0,1,0-8.27,8.27A8.27,8.27,0,0,0,171.49,449.07Z"/><path class="cls-3" d="M175.05,467.22a7.78,7.78,0,1,0,7.78,7.77A7.78,7.78,0,0,0,175.05,467.22Z"/><path class="cls-3" d="M193.69,489.44a7.09,7.09,0,1,0,7.09,7.09A7.09,7.09,0,0,0,193.69,489.44Z"/><path class="cls-3" d="M217.62,505.93a6,6,0,1,0,6,6A6,6,0,0,0,217.62,505.93Z"/><path class="cls-3" d="M245,515.17a4.86,4.86,0,1,0,4.86,4.85A4.85,4.85,0,0,0,245,515.17Z"/><path class="cls-3" d="M273.47,516.45a3.61,3.61,0,1,0,3.61,3.61A3.6,3.6,0,0,0,273.47,516.45Z"/><path class="cls-3" d="M300.82,509.66a2.42,2.42,0,1,0,2.42,2.41A2.41,2.41,0,0,0,300.82,509.66Z"/><path class="cls-3" d="M324.79,495.31a1.37,1.37,0,1,0,1.38,1.37A1.37,1.37,0,0,0,324.79,495.31Z"/><path class="cls-3" d="M343.48,474.52a.67.67,0,1,0,.67.67A.67.67,0,0,0,343.48,474.52Z"/><path class="cls-3" d="M355.2,449.31a.17.17,0,0,0,.34,0,.17.17,0,0,0-.34,0Z"/></svg>