<svg id="Layer_1" data-name="Layer 1" xmlns="http://www.w3.org/2000/svg" viewBox="0 0 99 38.09"><defs><style>.cls-1{fill:#231300;}.cls-2{fill:#00b6f3;}</style></defs><path class="cls-1" d="M32.11,31.73H30.94V26.28l-3.53,5.45H26.19l-3.53-5.45v5.45H21.5V24.78h1.63l3.67,5.56,3.67-5.56h1.64Z" transform="translate(-1 -8.8)"/><path class="cls-1" d="M35.27,31.73H34.1V24.78h1.17Z" transform="translate(-1 -8.8)"/><path class="cls-1" d="M46,31.73H39.27a2,2,0,0,1-1.44-.57,2,2,0,0,1-.57-1.46V26.81a1.92,1.92,0,0,1,2-2H46V26H39.27a.76.76,0,0,0-.85.86V29.7a.89.89,0,0,0,.23.63.86.86,0,0,0,.62.23H46Z" transform="translate(-1 -8.8)"/><path class="cls-1" d="M56.77,26.81a2,2,0,0,1-.6,1.44,1.93,1.93,0,0,1-1.44.6H53.6l2.89,2.88H54.84L52,28.85H49.18v2.88H48V24.78h6.73a2,2,0,0,1,1.44.59A2,2,0,0,1,56.77,26.81Zm-1.17,0a.84.84,0,0,0-.25-.61.86.86,0,0,0-.61-.25H49.18v1.72h5.56a.85.85,0,0,0,.86-.86Z" transform="translate(-1 -8.8)"/><path class="cls-1" d="M67.63,29.7a2,2,0,0,1-.55,1.47,1.94,1.94,0,0,1-1.46.56H60.89a1.94,1.94,0,0,1-2-2V26.81a2,2,0,0,1,.58-1.44,1.93,1.93,0,0,1,1.43-.59h4.73a2,2,0,0,1,1.44.57,2,2,0,0,1,.57,1.46Zm-1.16,0V26.81a.82.82,0,0,0-.85-.86H60.89a.85.85,0,0,0-.85.86V29.7a.76.76,0,0,0,.85.86h4.73A.76.76,0,0,0,66.47,29.7Z" transform="translate(-1 -8.8)"/><path class="cls-1" d="M78.39,26.81a2,2,0,0,1-.6,1.44,1.93,1.93,0,0,1-1.44.6H75.22l2.89,2.88H76.46l-2.89-2.88H70.8v2.88H69.63V24.78h6.73a2,2,0,0,1,1.44.59A2,2,0,0,1,78.39,26.81Zm-1.17,0A.84.84,0,0,0,77,26.2a.86.86,0,0,0-.61-.25H70.8v1.72h5.56a.85.85,0,0,0,.86-.86Z" transform="translate(-1 -8.8)"/><path class="cls-1" d="M89.25,31.73H80.5V24.78h8.75V26H81.66v1.72h7.59v1.18H81.66v1.71h7.59Z" transform="translate(-1 -8.8)"/><path class="cls-1" d="M100,26H96.2v5.78H95V26H91.24V24.78H100Z" transform="translate(-1 -8.8)"/><circle class="cls-2" cx="37.2" cy="15.23" r="0.02"/><path class="cls-2" d="M36.6,20.62a.09.09,0,1,0-.09-.09A.09.09,0,0,0,36.6,20.62Z" transform="translate(-1 -8.8)"/><circle class="cls-2" cx="33.08" cy="8.82" r="0.18"/><circle class="cls-2" cx="29.84" cy="6.73" r="0.32"/><path class="cls-2" d="M26.66,14.46a.49.49,0,1,0,.49-.49A.49.49,0,0,0,26.66,14.46Z" transform="translate(-1 -8.8)"/><path class="cls-2" d="M23.29,15.11a.65.65,0,1,0-.65-.65A.65.65,0,0,0,23.29,15.11Z" transform="translate(-1 -8.8)"/><path class="cls-2" d="M18.79,15.54a.81.81,0,1,0,.81-.81A.81.81,0,0,0,18.79,15.54Z" transform="translate(-1 -8.8)"/><path class="cls-2" d="M16.36,18.57a.95.95,0,1,0,0-1.9.95.95,0,1,0,0,1.9Z" transform="translate(-1 -8.8)"/><circle class="cls-2" cx="12.84" cy="11.73" r="1.05"/><circle class="cls-2" cx="11.24" cy="15.23" r="1.11"/><path class="cls-2" d="M10.56,27.85a1.14,1.14,0,1,0,1.13-1.14A1.14,1.14,0,0,0,10.56,27.85Z" transform="translate(-1 -8.8)"/><circle class="cls-2" cx="11.24" cy="22.86" r="1.12"/><path class="cls-2" d="M13.84,34.11a1,1,0,1,0,1.05,1A1,1,0,0,0,13.84,34.11Z" transform="translate(-1 -8.8)"/><circle class="cls-2" cx="15.36" cy="29.27" r="0.96"/><path class="cls-2" d="M19.6,39.34a.82.82,0,0,0,0,1.63.82.82,0,1,0,0-1.63Z" transform="translate(-1 -8.8)"/><circle class="cls-2" cx="22.3" cy="32.43" r="0.66"/><circle class="cls-2" cx="26.15" cy="32.43" r="0.49"/><path class="cls-2" d="M30.84,39.83a.32.32,0,0,0-.32.32.32.32,0,0,0,.32.33.33.33,0,0,0,.33-.33A.32.32,0,0,0,30.84,39.83Z" transform="translate(-1 -8.8)"/><path class="cls-2" d="M34.08,37.88a.2.2,0,0,0-.19.19.19.19,0,0,0,.38,0A.2.2,0,0,0,34.08,37.88Z" transform="translate(-1 -8.8)"/><path class="cls-2" d="M36.6,35.07a.09.09,0,1,0,.09.09A.09.09,0,0,0,36.6,35.07Z" transform="translate(-1 -8.8)"/><circle class="cls-2" cx="37.2" cy="22.85" r="0.02"/><path class="cls-2" d="M39.6,23.25a0,0,0,0,0-.08,0,0,0,0,0,0,.08,0A0,0,0,0,0,39.6,23.25Z" transform="translate(-1 -8.8)"/><path class="cls-2" d="M37.63,18.92a.11.11,0,0,0-.11.11.1.1,0,0,0,.11.1.09.09,0,0,0,.1-.1A.1.1,0,0,0,37.63,18.92Z" transform="translate(-1 -8.8)"/><path class="cls-2" d="M34.59,15.3a.22.22,0,1,0,.22.22A.22.22,0,0,0,34.59,15.3Z" transform="translate(-1 -8.8)"/><path class="cls-2" d="M30.69,13.4a.4.4,0,0,0,.39-.39.39.39,0,0,0-.39-.39.38.38,0,0,0-.39.39A.39.39,0,0,0,30.69,13.4Z" transform="translate(-1 -8.8)"/><path class="cls-2" d="M26.23,12.28a.58.58,0,1,0-.58-.58A.58.58,0,0,0,26.23,12.28Z" transform="translate(-1 -8.8)"/><path class="cls-2" d="M21.59,10.92a.78.78,0,1,0,.78.78A.78.78,0,0,0,21.59,10.92Z" transform="translate(-1 -8.8)"/><path class="cls-2" d="M17.13,14a1,1,0,1,0-1-1A1,1,0,0,0,17.13,14Z" transform="translate(-1 -8.8)"/><path class="cls-2" d="M13.23,16.66a1.15,1.15,0,1,0-1.15-1.15A1.14,1.14,0,0,0,13.23,16.66Z" transform="translate(-1 -8.8)"/><path class="cls-2" d="M8.92,19a1.27,1.27,0,1,0,1.27-1.26A1.27,1.27,0,0,0,8.92,19Z" transform="translate(-1 -8.8)"/><circle class="cls-2" cx="7.25" cy="14.43" r="1.33"/><path class="cls-2" d="M6.22,27.83a1.37,1.37,0,1,0,1.37-1.37A1.37,1.37,0,0,0,6.22,27.83Z" transform="translate(-1 -8.8)"/><circle class="cls-2" cx="7.25" cy="23.63" r="1.34"/><circle class="cls-2" cx="9.17" cy="27.85" r="1.27"/><path class="cls-2" d="M13.21,39a1.16,1.16,0,1,0,1.15,1.15A1.16,1.16,0,0,0,13.21,39Z" transform="translate(-1 -8.8)"/><path class="cls-2" d="M18.09,42.68a1,1,0,1,0-1,1A1,1,0,0,0,18.09,42.68Z" transform="translate(-1 -8.8)"/><path class="cls-2" d="M21.56,43.2a.79.79,0,1,0,.79.79A.79.79,0,0,0,21.56,43.2Z" transform="translate(-1 -8.8)"/><path class="cls-2" d="M26.21,43.41a.58.58,0,0,0-.59.59.59.59,0,1,0,1.17,0A.58.58,0,0,0,26.21,43.41Z" transform="translate(-1 -8.8)"/><circle class="cls-2" cx="29.66" cy="33.89" r="0.39"/><path class="cls-2" d="M34.57,40a.22.22,0,1,0,.22.22A.22.22,0,0,0,34.57,40Z" transform="translate(-1 -8.8)"/><circle class="cls-2" cx="36.61" cy="27.88" r="0.11"/><path class="cls-2" d="M39.51,32.47a0,0,0,0,0,.08,0,0,0,0,0,0-.08,0A0,0,0,0,0,39.51,32.47Z" transform="translate(-1 -8.8)"/><circle class="cls-2" cx="37.49" cy="13.87" r="0.03"/><circle class="cls-2" cx="35.32" cy="9.12" r="0.12"/><circle class="cls-2" cx="31.9" cy="5.18" r="0.25"/><path class="cls-2" d="M28.51,10.72a.44.44,0,1,0,.44.44A.44.44,0,0,0,28.51,10.72Z" transform="translate(-1 -8.8)"/><path class="cls-2" d="M23.5,9a.66.66,0,0,0-.65.66.66.66,0,0,0,1.31,0A.66.66,0,0,0,23.5,9Z" transform="translate(-1 -8.8)"/><path class="cls-2" d="M18.28,10.57a.89.89,0,1,0-.88-.88A.88.88,0,0,0,18.28,10.57Z" transform="translate(-1 -8.8)"/><path class="cls-2" d="M13.27,12.25a1.1,1.1,0,1,0-1.1-1.1A1.1,1.1,0,0,0,13.27,12.25Z" transform="translate(-1 -8.8)"/><circle class="cls-2" cx="7.88" cy="5.17" r="1.29"/><circle class="cls-2" cx="4.46" cy="9.11" r="1.42"/><path class="cls-2" d="M3.29,24.17a1.51,1.51,0,1,0-1.52-1.51A1.51,1.51,0,0,0,3.29,24.17Z" transform="translate(-1 -8.8)"/><path class="cls-2" d="M4.09,27.83a1.55,1.55,0,1,0-1.55,1.54A1.55,1.55,0,0,0,4.09,27.83Z" transform="translate(-1 -8.8)"/><path class="cls-2" d="M4.79,33a1.52,1.52,0,1,0-1.51,1.52A1.52,1.52,0,0,0,4.79,33Z" transform="translate(-1 -8.8)"/><path class="cls-2" d="M5.44,36.33a1.43,1.43,0,1,0,1.43,1.42A1.43,1.43,0,0,0,5.44,36.33Z" transform="translate(-1 -8.8)"/><path class="cls-2" d="M8.86,40.4a1.3,1.3,0,1,0,1.3,1.3A1.3,1.3,0,0,0,8.86,40.4Z" transform="translate(-1 -8.8)"/><path class="cls-2" d="M13.24,43.42a1.11,1.11,0,1,0,1.11,1.11A1.11,1.11,0,0,0,13.24,43.42Z" transform="translate(-1 -8.8)"/><path class="cls-2" d="M18.25,45.11a.89.89,0,0,0,0,1.78.89.89,0,0,0,0-1.78Z" transform="translate(-1 -8.8)"/><path class="cls-2" d="M23.48,45.35a.66.66,0,1,0,.66.66A.65.65,0,0,0,23.48,45.35Z" transform="translate(-1 -8.8)"/><path class="cls-2" d="M28.49,44.1a.45.45,0,1,0,.44.45A.45.45,0,0,0,28.49,44.1Z" transform="translate(-1 -8.8)"/><path class="cls-2" d="M32.88,41.48a.25.25,0,1,0,.25.25A.25.25,0,0,0,32.88,41.48Z" transform="translate(-1 -8.8)"/><path class="cls-2" d="M36.31,37.67a.12.12,0,1,0,0,.24.12.12,0,1,0,0-.24Z" transform="translate(-1 -8.8)"/><path class="cls-2" d="M38.45,33.05a0,0,0,0,0,0,0,0,0,0,0,0,0,0,0,0,0,0,0,0,0A0,0,0,0,0,38.45,33.05Z" transform="translate(-1 -8.8)"/></svg>