<svg width="120" height="50" viewBox="0 0 120 50" fill="none" xmlns="http://www.w3.org/2000/svg">
<g clip-path="url(#clip0_109_600)">
<path d="M37.7083 30.0998H36.2901V22.9457L32.0113 30.0998H30.5325L26.2537 22.9457V30.0998H24.8477V20.9767H26.8234L31.2719 28.2752L35.7204 20.9767H37.7083V30.0998Z" fill="#231300"/>
<path d="M41.5393 30.0998H40.1211V20.9767H41.5393V30.0998Z" fill="#231300"/>
<path d="M54.5453 30.0997H46.3877C46.0654 30.1069 45.7451 30.0445 45.4454 29.916C45.1457 29.7875 44.8726 29.5956 44.6422 29.3515C44.4139 29.0989 44.2349 28.7989 44.1162 28.4696C43.9975 28.1402 43.9414 27.7883 43.9513 27.435V23.6413C43.9376 23.2926 43.9909 22.9446 44.1079 22.6193C44.2249 22.2941 44.403 21.9987 44.6309 21.7519C44.8588 21.5051 45.1315 21.3122 45.4319 21.1855C45.7322 21.0588 46.0536 21.0011 46.3756 21.016H54.5453V22.578H46.3877C46.247 22.5583 46.104 22.5741 45.9699 22.6241C45.8357 22.674 45.7141 22.7569 45.6144 22.8661C45.5146 22.9754 45.4396 23.1081 45.395 23.254C45.3504 23.3998 45.3376 23.5548 45.3574 23.707V27.435C45.3472 27.7395 45.4472 28.0362 45.6362 28.262C45.7369 28.3635 45.8551 28.4424 45.9841 28.4943C46.1131 28.5461 46.2502 28.5697 46.3877 28.5639H54.5453V30.0997Z" fill="#231300"/>
<path d="M67.5991 23.6413C67.601 23.9931 67.5375 24.3417 67.4126 24.6664C67.2877 24.9911 67.1038 25.2854 66.8718 25.5316C66.6475 25.7872 66.3764 25.9893 66.0758 26.1249C65.7752 26.2605 65.4519 26.3267 65.1263 26.3192H63.7566L67.2597 30.0997H65.2597L61.8172 26.3192H58.3991V30.0997H56.9688V20.9766H65.1263C65.4503 20.9728 65.7717 21.0394 66.0715 21.1724C66.3713 21.3055 66.6434 21.5022 66.8718 21.7511C67.1038 21.9973 67.2877 22.2915 67.4126 22.6162C67.5375 22.941 67.601 23.2896 67.5991 23.6413ZM66.1809 23.6413C66.1828 23.4926 66.157 23.345 66.1049 23.2074C66.0528 23.0698 65.9756 22.945 65.8778 22.8406C65.7806 22.7359 65.6652 22.6531 65.5383 22.5967C65.4115 22.5404 65.2756 22.5118 65.1384 22.5124H58.3991V24.7702H65.1384C65.2758 24.772 65.4121 24.744 65.5393 24.6879C65.6665 24.6318 65.7821 24.5487 65.8792 24.4435C65.9763 24.3383 66.053 24.2132 66.1048 24.0754C66.1566 23.9377 66.1825 23.7901 66.1809 23.6413Z" fill="#231300"/>
<path d="M80.7631 27.435C80.7778 27.7887 80.7264 28.142 80.6118 28.4736C80.4973 28.8052 80.3219 29.1083 80.0964 29.3647C79.8647 29.6135 79.5876 29.8073 79.283 29.9339C78.9783 30.0604 78.6526 30.1169 78.3267 30.0998H72.5934C72.2723 30.1107 71.9525 30.0503 71.6538 29.9222C71.3552 29.7941 71.0839 29.6011 70.8567 29.3551C70.6296 29.1091 70.4514 28.8153 70.3331 28.4919C70.2148 28.1684 70.159 27.8221 70.1691 27.4744V23.6414C70.1641 23.2915 70.2237 22.944 70.3444 22.6194C70.4651 22.2947 70.6446 21.9995 70.8722 21.7511C71.0961 21.4995 71.3657 21.3009 71.664 21.1676C71.9623 21.0343 72.2829 20.9693 72.6055 20.9766H78.3388C78.6611 20.9694 78.9814 21.0319 79.2811 21.1604C79.5808 21.2888 79.8539 21.4807 80.0843 21.7249C80.3127 21.9775 80.4916 22.2774 80.6103 22.6068C80.729 22.9361 80.7851 23.288 80.7752 23.6414L80.7631 27.435ZM79.357 27.435V23.6414C79.3638 23.4923 79.3419 23.3433 79.2927 23.2039C79.2435 23.0644 79.1681 22.9376 79.0712 22.8314C78.9743 22.7253 78.8581 22.6421 78.7299 22.5872C78.6018 22.5323 78.4644 22.5068 78.3267 22.5125H72.5934C72.457 22.5125 72.3221 22.5418 72.1963 22.5986C72.0705 22.6555 71.9564 22.7389 71.8605 22.8439C71.7647 22.9489 71.6891 23.0735 71.638 23.2104C71.5869 23.3472 71.5615 23.4937 71.5631 23.6414V27.435C71.5432 27.5871 71.5561 27.7422 71.6007 27.888C71.6452 28.0338 71.7203 28.1666 71.82 28.2758C71.9198 28.3851 72.0414 28.4679 72.1756 28.5179C72.3097 28.5679 72.4527 28.5836 72.5934 28.5639H78.3267C78.4674 28.5836 78.6104 28.5679 78.7445 28.5179C78.8787 28.4679 79.0003 28.3851 79.1 28.2758C79.1998 28.1666 79.2748 28.0338 79.3194 27.888C79.364 27.7422 79.3768 27.5871 79.357 27.435Z" fill="#231300"/>
<path d="M93.8057 23.6413C93.8076 23.9931 93.7442 24.3417 93.6193 24.6664C93.4943 24.9911 93.3104 25.2854 93.0784 25.5316C92.8541 25.7872 92.583 25.9893 92.2824 26.1249C91.9819 26.2605 91.6585 26.3267 91.333 26.3192H89.9633L93.4663 30.0997H91.4663L87.9633 26.3192H84.6057V30.0997H83.1875V20.9766H91.3451C91.669 20.9728 91.9904 21.0394 92.2902 21.1724C92.59 21.3055 92.8621 21.5022 93.0905 21.7511C93.3203 21.9984 93.502 22.2931 93.6248 22.6178C93.7477 22.9425 93.8092 23.2905 93.8057 23.6413ZM92.3875 23.6413C92.3943 23.4954 92.3742 23.3494 92.3284 23.212C92.2826 23.0745 92.2121 22.9483 92.1208 22.8406C92.0236 22.7359 91.9082 22.6531 91.7813 22.5967C91.6545 22.5404 91.5186 22.5118 91.3814 22.5124H84.6057V24.7702H91.3451C91.4824 24.772 91.6187 24.744 91.7459 24.6879C91.8731 24.6318 91.9887 24.5487 92.0858 24.4435C92.1829 24.3383 92.2596 24.2132 92.3115 24.0754C92.3633 23.9377 92.3891 23.7901 92.3875 23.6413Z" fill="#231300"/>
<path d="M106.969 30.0998H96.3633V20.9767H106.969V22.5782H97.7693V24.836H106.969V26.3849H97.7693V28.6296H106.969V30.0998Z" fill="#231300"/>
<path d="M119.999 22.5782H115.393V30.1654H113.938V22.5782H109.381V20.9767H119.999V22.5782Z" fill="#231300"/>
<path d="M45.0906 20.0185C45.104 20.0185 45.1149 20.0067 45.1149 19.9921C45.1149 19.9776 45.104 19.9658 45.0906 19.9658C45.0773 19.9658 45.0664 19.9776 45.0664 19.9921C45.0664 20.0067 45.0773 20.0185 45.0906 20.0185Z" fill="#000EE6"/>
<path d="M43.1521 15.5164C43.1736 15.5164 43.1947 15.5094 43.2127 15.4964C43.2306 15.4834 43.2446 15.4649 43.2528 15.4433C43.2611 15.4216 43.2633 15.3978 43.2591 15.3749C43.2548 15.3519 43.2445 15.3308 43.2292 15.3142C43.2139 15.2977 43.1945 15.2864 43.1733 15.2818C43.1522 15.2772 43.1302 15.2796 43.1103 15.2886C43.0904 15.2975 43.0733 15.3127 43.0614 15.3322C43.0494 15.3516 43.043 15.3745 43.043 15.398C43.043 15.4135 43.0458 15.4289 43.0513 15.4433C43.0568 15.4576 43.0648 15.4707 43.0749 15.4817C43.0851 15.4927 43.0971 15.5014 43.1103 15.5074C43.1236 15.5133 43.1377 15.5164 43.1521 15.5164Z" fill="#000EE6"/>
<path d="M40.0971 11.8152C40.2176 11.8152 40.3153 11.7092 40.3153 11.5784C40.3153 11.4476 40.2176 11.3416 40.0971 11.3416C39.9766 11.3416 39.8789 11.4476 39.8789 11.5784C39.8789 11.7092 39.9766 11.8152 40.0971 11.8152Z" fill="#000EE6"/>
<path d="M36.1691 9.25442C36.3833 9.25442 36.557 9.06636 36.557 8.83436C36.557 8.60237 36.3833 8.41431 36.1691 8.41431C35.9549 8.41431 35.7812 8.60237 35.7812 8.83436C35.7812 9.06636 35.9549 9.25442 36.1691 9.25442Z" fill="#000EE6"/>
<path d="M31.1035 7.42971C31.1035 7.55693 31.1384 7.68129 31.2036 7.78706C31.2689 7.89284 31.3616 7.97528 31.4702 8.02396C31.5787 8.07265 31.6981 8.08539 31.8133 8.06057C31.9285 8.03575 32.0344 7.97449 32.1174 7.88453C32.2005 7.79458 32.2571 7.67997 32.28 7.5552C32.3029 7.43043 32.2911 7.3011 32.2462 7.18356C32.2012 7.06603 32.1251 6.96558 32.0274 6.8949C31.9298 6.82422 31.8149 6.7865 31.6975 6.7865C31.5399 6.7865 31.3889 6.85427 31.2775 6.97489C31.1661 7.09552 31.1035 7.25912 31.1035 7.42971Z" fill="#000EE6"/>
<path d="M27.0183 8.28302C27.1742 8.28302 27.3265 8.23298 27.4561 8.13923C27.5856 8.04547 27.6866 7.91221 27.7463 7.7563C27.8059 7.60039 27.8215 7.42883 27.7911 7.26332C27.7607 7.09781 27.6856 6.94578 27.5755 6.82645C27.4653 6.70712 27.3249 6.62586 27.1721 6.59293C27.0192 6.56001 26.8608 6.57691 26.7168 6.64149C26.5729 6.70607 26.4498 6.81543 26.3633 6.95575C26.2767 7.09606 26.2305 7.26103 26.2305 7.42978C26.2305 7.65607 26.3135 7.8731 26.4612 8.03311C26.609 8.19313 26.8094 8.28302 27.0183 8.28302Z" fill="#000EE6"/>
<path d="M21.5645 8.84745C21.5645 9.05775 21.622 9.26332 21.7299 9.43817C21.8378 9.61303 21.9911 9.74931 22.1705 9.82978C22.3499 9.91026 22.5474 9.93132 22.7378 9.89029C22.9283 9.84927 23.1032 9.748 23.2405 9.5993C23.3778 9.4506 23.4713 9.26114 23.5092 9.05489C23.5471 8.84863 23.5277 8.63484 23.4534 8.44055C23.379 8.24627 23.2532 8.08021 23.0917 7.96337C22.9303 7.84654 22.7405 7.78418 22.5463 7.78418C22.2859 7.78418 22.0361 7.8962 21.852 8.0956C21.6679 8.29501 21.5645 8.56545 21.5645 8.84745Z" fill="#000EE6"/>
<path d="M18.6183 12.8249C18.9237 12.8249 19.2166 12.6935 19.4326 12.4597C19.6485 12.2258 19.7698 11.9086 19.7698 11.5779C19.7698 11.2471 19.6485 10.9299 19.4326 10.6961C19.2166 10.4622 18.9237 10.3308 18.6183 10.3308C18.3129 10.3308 18.02 10.4622 17.8041 10.6961C17.5881 10.9299 17.4668 11.2471 17.4668 11.5779C17.4668 11.9086 17.5881 12.2258 17.8041 12.4597C18.02 12.6935 18.3129 12.8249 18.6183 12.8249Z" fill="#000EE6"/>
<path d="M15.5637 16.776C16.2667 16.776 16.8365 16.1589 16.8365 15.3977C16.8365 14.6365 16.2667 14.0194 15.5637 14.0194C14.8608 14.0194 14.291 14.6365 14.291 15.3977C14.291 16.1589 14.8608 16.776 15.5637 16.776Z" fill="#000EE6"/>
<path d="M13.6248 21.4492C14.3678 21.4492 14.9702 20.7968 14.9702 19.9921C14.9702 19.1874 14.3678 18.535 13.6248 18.535C12.8817 18.535 12.2793 19.1874 12.2793 19.9921C12.2793 20.7968 12.8817 21.4492 13.6248 21.4492Z" fill="#000EE6"/>
<path d="M11.5879 25.0065C11.5879 25.3031 11.6693 25.5929 11.8216 25.8393C11.974 26.0856 12.1905 26.2774 12.4437 26.3903C12.6969 26.5031 12.9754 26.532 13.2438 26.4732C13.5121 26.4144 13.7583 26.2705 13.9511 26.0599C14.1439 25.8493 14.2745 25.5815 14.3264 25.2903C14.3784 24.9992 14.3493 24.6979 14.2428 24.4247C14.1364 24.1515 13.9574 23.9187 13.7286 23.7559C13.4997 23.593 13.2314 23.5075 12.9576 23.5101C12.5932 23.5135 12.2448 23.6727 11.9883 23.953C11.7318 24.2332 11.5879 24.6119 11.5879 25.0065Z" fill="#000EE6"/>
<path d="M13.6252 31.4781C14.3749 31.4781 14.9827 30.8199 14.9827 30.0079C14.9827 29.196 14.3749 28.5377 13.6252 28.5377C12.8754 28.5377 12.2676 29.196 12.2676 30.0079C12.2676 30.8199 12.8754 31.4781 13.6252 31.4781Z" fill="#000EE6"/>
<path d="M15.5636 33.2239C15.3268 33.2368 15.0987 33.3245 14.9075 33.4763C14.7163 33.6282 14.5704 33.8374 14.4879 34.0781C14.4054 34.3188 14.3899 34.5804 14.4432 34.8306C14.4966 35.0807 14.6166 35.3085 14.7883 35.4855C14.96 35.6626 15.1758 35.7813 15.4092 35.8268C15.6425 35.8724 15.883 35.8428 16.101 35.7418C16.319 35.6408 16.5048 35.4728 16.6355 35.2586C16.7662 35.0444 16.8361 34.7934 16.8364 34.5366C16.8366 34.3586 16.8033 34.1823 16.7386 34.0186C16.674 33.8549 16.5792 33.7072 16.4602 33.5844C16.3411 33.4616 16.2002 33.3663 16.0461 33.3044C15.892 33.2424 15.7278 33.215 15.5636 33.2239Z" fill="#000EE6"/>
<path d="M18.6187 39.6823C19.2614 39.6823 19.7824 39.1181 19.7824 38.4222C19.7824 37.7262 19.2614 37.162 18.6187 37.162C17.9761 37.162 17.4551 37.7262 17.4551 38.4222C17.4551 39.1181 17.9761 39.6823 18.6187 39.6823Z" fill="#000EE6"/>
<path d="M22.5445 40.0892C22.3014 40.1184 22.0767 40.2437 21.9135 40.4411C21.7504 40.6385 21.6602 40.8941 21.6602 41.159C21.6602 41.424 21.7504 41.6796 21.9135 41.877C22.0767 42.0744 22.3014 42.1997 22.5445 42.2289C22.6834 42.2456 22.824 42.2303 22.9571 42.1842C23.0903 42.138 23.2129 42.062 23.317 41.961C23.4212 41.8601 23.5045 41.7365 23.5615 41.5983C23.6186 41.4601 23.648 41.3104 23.648 41.159C23.648 41.0077 23.6186 40.858 23.5615 40.7198C23.5045 40.5816 23.4212 40.458 23.317 40.357C23.2129 40.2561 23.0903 40.18 22.9571 40.1339C22.824 40.0877 22.6834 40.0725 22.5445 40.0892Z" fill="#000EE6"/>
<path d="M27.0305 43.4366C27.4723 43.4366 27.8305 43.0487 27.8305 42.5702C27.8305 42.0917 27.4723 41.7039 27.0305 41.7039C26.5886 41.7039 26.2305 42.0917 26.2305 42.5702C26.2305 43.0487 26.5886 43.4366 27.0305 43.4366Z" fill="#000EE6"/>
<path d="M31.6975 43.2134C32.0255 43.2134 32.2914 42.9255 32.2914 42.5702C32.2914 42.215 32.0255 41.927 31.6975 41.927C31.3694 41.927 31.1035 42.215 31.1035 42.5702C31.1035 42.9255 31.3694 43.2134 31.6975 43.2134Z" fill="#000EE6"/>
<path d="M36.1693 40.7325C36.0664 40.7325 35.9678 40.7768 35.895 40.8555C35.8223 40.9343 35.7814 41.0412 35.7814 41.1526C35.7798 41.2088 35.7886 41.2649 35.8074 41.3173C35.8262 41.3698 35.8545 41.4177 35.8907 41.4581C35.9269 41.4985 35.9702 41.5306 36.018 41.5526C36.0659 41.5745 36.1173 41.5858 36.1693 41.5857C36.2754 41.5857 36.3771 41.5401 36.4522 41.4589C36.5272 41.3776 36.5693 41.2675 36.5693 41.1526C36.5693 41.0963 36.5589 41.0406 36.5387 40.9887C36.5184 40.9369 36.4888 40.89 36.4515 40.8508C36.4141 40.8116 36.3699 40.781 36.3215 40.7606C36.273 40.7403 36.2213 40.7307 36.1693 40.7325Z" fill="#000EE6"/>
<path d="M40.0975 38.1727C40.0374 38.1759 39.9805 38.2033 39.9379 38.2495C39.8953 38.2957 39.8701 38.3575 39.8672 38.4227C39.8672 38.489 39.8915 38.5526 39.9346 38.5995C39.9778 38.6464 40.0364 38.6727 40.0975 38.6727C40.1586 38.6727 40.2172 38.6464 40.2603 38.5995C40.3035 38.5526 40.3278 38.489 40.3278 38.4227C40.3249 38.3575 40.2996 38.2957 40.2571 38.2495C40.2145 38.2033 40.1576 38.1759 40.0975 38.1727Z" fill="#000EE6"/>
<path d="M43.1521 34.4841C43.1305 34.4841 43.1094 34.4911 43.0915 34.5041C43.0735 34.5171 43.0595 34.5356 43.0513 34.5572C43.043 34.5789 43.0409 34.6027 43.0451 34.6257C43.0493 34.6486 43.0597 34.6697 43.0749 34.6863C43.0902 34.7029 43.1096 34.7141 43.1308 34.7187C43.1519 34.7233 43.1739 34.7209 43.1938 34.712C43.2137 34.703 43.2308 34.6878 43.2428 34.6683C43.2548 34.6489 43.2611 34.626 43.2611 34.6026C43.2611 34.587 43.2583 34.5716 43.2528 34.5572C43.2474 34.5429 43.2393 34.5298 43.2292 34.5188C43.2191 34.5078 43.207 34.4991 43.1938 34.4931C43.1806 34.4872 43.1664 34.4841 43.1521 34.4841Z" fill="#000EE6"/>
<path d="M45.0906 30.0211C45.104 30.0211 45.1149 30.0094 45.1149 29.9948C45.1149 29.9803 45.104 29.9685 45.0906 29.9685C45.0773 29.9685 45.0664 29.9803 45.0664 29.9948C45.0664 30.0094 45.0773 30.0211 45.0906 30.0211Z" fill="#000EE6"/>
<path d="M44.4009 13.2843C44.3656 13.2843 44.3316 13.2996 44.3066 13.3267C44.2816 13.3538 44.2676 13.3907 44.2676 13.429C44.2675 13.4475 44.271 13.4657 44.2778 13.4826C44.2847 13.4995 44.2947 13.5147 44.3073 13.5271C44.3198 13.5395 44.3347 13.5489 44.3508 13.5546C44.3669 13.5604 44.384 13.5625 44.4009 13.5606C44.4173 13.5627 44.4339 13.5608 44.4495 13.5549C44.4651 13.5491 44.4793 13.5394 44.4909 13.5268C44.5026 13.5141 44.5115 13.4987 44.5169 13.4818C44.5223 13.4649 44.5241 13.4468 44.5221 13.429C44.5238 13.4107 44.522 13.3922 44.5166 13.3746C44.5113 13.3571 44.5026 13.341 44.4912 13.3274C44.4798 13.3137 44.4658 13.3028 44.4503 13.2954C44.4347 13.288 44.4179 13.2842 44.4009 13.2843Z" fill="#000EE6"/>
<path d="M40.7159 8.53247C40.6631 8.53247 40.6116 8.54941 40.5677 8.58114C40.5239 8.61287 40.4897 8.65798 40.4695 8.71075C40.4493 8.76352 40.4441 8.82158 40.4543 8.8776C40.4646 8.93362 40.49 8.98508 40.5273 9.02547C40.5646 9.06585 40.6121 9.09336 40.6639 9.1045C40.7156 9.11564 40.7692 9.10992 40.8179 9.08807C40.8667 9.06621 40.9083 9.02919 40.9376 8.9817C40.9669 8.93421 40.9826 8.87838 40.9826 8.82126C40.9826 8.74467 40.9545 8.67121 40.9044 8.61705C40.8544 8.5629 40.7866 8.53247 40.7159 8.53247Z" fill="#000EE6"/>
<path d="M35.9885 6.03835C36.1129 6.03502 36.2314 5.98002 36.3194 5.88472C36.4074 5.78942 36.4582 5.66113 36.4612 5.52641C36.4612 5.45918 36.449 5.3926 36.4253 5.33049C36.4015 5.26838 36.3667 5.21194 36.3228 5.1644C36.2789 5.11687 36.2268 5.07916 36.1694 5.05343C36.1121 5.0277 36.0506 5.01446 35.9885 5.01446C35.926 5.01265 35.8638 5.02466 35.8057 5.04975C35.7475 5.07484 35.6948 5.11248 35.6505 5.16038C35.6063 5.20829 35.5715 5.26545 35.5484 5.32837C35.5252 5.3913 35.5141 5.45868 35.5158 5.52641C35.5158 5.66218 35.5656 5.7924 35.6542 5.8884C35.7429 5.98441 35.8631 6.03835 35.9885 6.03835Z" fill="#000EE6"/>
<path d="M30.5819 4.56812C30.721 4.56812 30.8569 4.52347 30.9725 4.43981C31.0881 4.35615 31.1782 4.23724 31.2315 4.09812C31.2847 3.959 31.2986 3.80592 31.2715 3.65823C31.2443 3.51054 31.1774 3.37488 31.0791 3.26841C30.9807 3.16193 30.8555 3.08942 30.7191 3.06004C30.5827 3.03066 30.4414 3.04574 30.3129 3.10337C30.1844 3.16099 30.0746 3.25858 29.9974 3.38378C29.9201 3.50898 29.8789 3.65618 29.8789 3.80676C29.8789 4.00869 29.953 4.20234 30.0848 4.34512C30.2167 4.48791 30.3955 4.56812 30.5819 4.56812Z" fill="#000EE6"/>
<path d="M24.9572 2.78284C24.7702 2.78284 24.5874 2.84289 24.4319 2.95539C24.2764 3.0679 24.1552 3.22781 24.0837 3.4149C24.0121 3.60199 23.9934 3.80786 24.0299 4.00648C24.0664 4.20509 24.1564 4.38753 24.2886 4.53073C24.4209 4.67392 24.5893 4.77144 24.7727 4.81094C24.9561 4.85045 25.1462 4.83017 25.319 4.75268C25.4917 4.67518 25.6394 4.54395 25.7433 4.37557C25.8472 4.20719 25.9026 4.00923 25.9026 3.80673C25.9026 3.53517 25.803 3.27474 25.6257 3.08273C25.4484 2.89071 25.2079 2.78284 24.9572 2.78284Z" fill="#000EE6"/>
<path d="M19.552 6.82592C19.7917 6.82592 20.0261 6.74894 20.2254 6.6047C20.4247 6.46046 20.5801 6.25545 20.6718 6.01558C20.7636 5.77572 20.7876 5.51179 20.7408 5.25715C20.694 5.00252 20.5786 4.76862 20.4091 4.58504C20.2395 4.40146 20.0236 4.27643 19.7884 4.22578C19.5533 4.17513 19.3096 4.20113 19.0881 4.30048C18.8666 4.39984 18.6773 4.56809 18.5441 4.78396C18.4109 4.99983 18.3398 5.25362 18.3398 5.51324C18.3398 5.86139 18.4676 6.19527 18.6949 6.44145C18.9222 6.68762 19.2305 6.82592 19.552 6.82592Z" fill="#000EE6"/>
<path d="M14.8237 10.3176C15.0994 10.3176 15.3689 10.2291 15.5981 10.0632C15.8273 9.89734 16.006 9.66158 16.1115 9.38574C16.217 9.1099 16.2446 8.80637 16.1908 8.51354C16.1371 8.22071 16.0043 7.95173 15.8093 7.74061C15.6144 7.52949 15.366 7.38572 15.0956 7.32747C14.8252 7.26922 14.545 7.29912 14.2902 7.41337C14.0355 7.52763 13.8178 7.72112 13.6647 7.96937C13.5115 8.21762 13.4297 8.50948 13.4297 8.80805C13.4281 9.00677 13.4631 9.20386 13.5326 9.3878C13.602 9.57174 13.7046 9.73885 13.8344 9.87938C13.9642 10.0199 14.1185 10.131 14.2883 10.2063C14.4582 10.2815 14.6402 10.3194 14.8237 10.3176Z" fill="#000EE6"/>
<path d="M9.59966 13.3893C9.59726 13.7196 9.68549 14.0432 9.85318 14.3191C10.0209 14.5949 10.2604 14.8107 10.5415 14.9389C10.8226 15.0671 11.1325 15.1019 11.4319 15.0391C11.7313 14.9763 12.0067 14.8185 12.2232 14.5859C12.4397 14.3533 12.5875 14.0563 12.6479 13.7325C12.7083 13.4088 12.6785 13.0729 12.5624 12.7676C12.4462 12.4622 12.2489 12.201 11.9955 12.0172C11.7421 11.8335 11.444 11.7354 11.1391 11.7354C10.7329 11.7353 10.3431 11.9092 10.0548 12.219C9.76645 12.5288 9.60286 12.9495 9.59966 13.3893Z" fill="#000EE6"/>
<path d="M8.7879 20.6879C9.67825 20.6879 10.4 19.9062 10.4 18.942C10.4 17.9778 9.67825 17.1962 8.7879 17.1962C7.89755 17.1962 7.17578 17.9778 7.17578 18.942C7.17578 19.9062 7.89755 20.6879 8.7879 20.6879Z" fill="#000EE6"/>
<path d="M6.32812 24.9803C6.32813 25.3359 6.42552 25.6836 6.60799 25.9794C6.79046 26.2751 7.04981 26.5056 7.35325 26.6417C7.65668 26.7779 7.99057 26.8135 8.3127 26.7441C8.63483 26.6747 8.93072 26.5034 9.16296 26.2519C9.3952 26.0004 9.55335 25.68 9.61743 25.3311C9.6815 24.9823 9.64862 24.6207 9.52293 24.2921C9.39724 23.9634 9.1844 23.6826 8.91131 23.485C8.63823 23.2874 8.31717 23.1819 7.98873 23.1819C7.54831 23.1819 7.12593 23.3714 6.81451 23.7086C6.50308 24.0459 6.32812 24.5033 6.32812 24.9803Z" fill="#000EE6"/>
<path d="M8.78831 32.7776C9.68535 32.7776 10.4125 31.9901 10.4125 31.0186C10.4125 30.0472 9.68535 29.2596 8.78831 29.2596C7.89126 29.2596 7.16406 30.0472 7.16406 31.0186C7.16406 31.9901 7.89126 32.7776 8.78831 32.7776Z" fill="#000EE6"/>
<path d="M11.1156 38.2252C11.9657 38.2252 12.655 37.4788 12.655 36.5581C12.655 35.6374 11.9657 34.891 11.1156 34.891C10.2654 34.891 9.57617 35.6374 9.57617 36.5581C9.57617 37.4788 10.2654 38.2252 11.1156 38.2252Z" fill="#000EE6"/>
<path d="M14.8009 39.643C14.5218 39.6404 14.2483 39.7278 14.0153 39.8941C13.7822 40.0605 13.6001 40.2981 13.4922 40.5769C13.3842 40.8557 13.3554 41.1629 13.4092 41.4595C13.4631 41.7561 13.5973 42.0286 13.7946 42.2424C13.992 42.4561 14.2437 42.6014 14.5175 42.6597C14.7914 42.7181 15.0751 42.6868 15.3325 42.5699C15.5899 42.4531 15.8094 42.2559 15.963 42.0035C16.1165 41.751 16.1973 41.4549 16.1949 41.1526C16.1917 40.7533 16.0438 40.3713 15.7831 40.0889C15.5224 39.8066 15.1697 39.6464 14.8009 39.643Z" fill="#000EE6"/>
<path d="M20.7153 44.4736C20.7153 44.2139 20.6442 43.9602 20.511 43.7443C20.3778 43.5284 20.1885 43.3602 19.967 43.2608C19.7455 43.1615 19.5018 43.1355 19.2667 43.1861C19.0315 43.2368 18.8156 43.3618 18.646 43.5454C18.4765 43.7289 18.3611 43.9628 18.3143 44.2175C18.2675 44.4721 18.2915 44.736 18.3833 44.9759C18.475 45.2158 18.6304 45.4208 18.8297 45.565C19.0291 45.7093 19.2634 45.7863 19.5031 45.7863C19.8246 45.7863 20.1329 45.648 20.3602 45.4018C20.5876 45.1556 20.7153 44.8217 20.7153 44.4736Z" fill="#000EE6"/>
<path d="M24.9205 45.1562C24.7311 45.1562 24.5459 45.2171 24.3885 45.331C24.231 45.445 24.1083 45.6069 24.0358 45.7964C23.9633 45.9859 23.9443 46.1944 23.9813 46.3956C24.0182 46.5967 24.1094 46.7815 24.2434 46.9265C24.3773 47.0716 24.5479 47.1703 24.7337 47.2104C24.9194 47.2504 25.1119 47.2298 25.2869 47.1513C25.4619 47.0729 25.6114 46.9399 25.7167 46.7694C25.8219 46.5989 25.878 46.3984 25.878 46.1933C25.878 45.9182 25.7772 45.6545 25.5976 45.46C25.418 45.2655 25.1744 45.1563 24.9205 45.1562Z" fill="#000EE6"/>
<path d="M30.5571 45.4319C30.4628 45.4301 30.369 45.4489 30.2815 45.4872C30.194 45.5255 30.1145 45.5825 30.0478 45.6548C29.9811 45.727 29.9284 45.8131 29.8931 45.9079C29.8577 46.0027 29.8404 46.1042 29.842 46.2064C29.8288 46.3156 29.8372 46.4267 29.8668 46.5321C29.8964 46.6376 29.9464 46.735 30.0136 46.8178C30.0807 46.9006 30.1633 46.967 30.256 47.0125C30.3487 47.0579 30.4493 47.0815 30.5511 47.0815C30.6528 47.0815 30.7534 47.0579 30.8461 47.0125C30.9388 46.967 31.0215 46.9006 31.0886 46.8178C31.1557 46.735 31.2058 46.6376 31.2354 46.5321C31.2649 46.4267 31.2734 46.3156 31.2602 46.2064C31.2618 46.1053 31.2448 46.0049 31.2102 45.911C31.1756 45.8171 31.124 45.7316 31.0586 45.6595C30.9932 45.5874 30.9151 45.5301 30.829 45.4911C30.7429 45.452 30.6505 45.4319 30.5571 45.4319Z" fill="#000EE6"/>
<path d="M35.9512 44.9987C36.2123 44.9987 36.424 44.7695 36.424 44.4868C36.424 44.2041 36.2123 43.9749 35.9512 43.9749C35.6902 43.9749 35.4785 44.2041 35.4785 44.4868C35.4785 44.7695 35.6902 44.9987 35.9512 44.9987Z" fill="#000EE6"/>
<path d="M40.6905 40.9557C40.6378 40.9557 40.5862 40.9726 40.5423 41.0044C40.4985 41.0361 40.4643 41.0812 40.4441 41.134C40.4239 41.1867 40.4187 41.2448 40.429 41.3008C40.4392 41.3568 40.4646 41.4083 40.5019 41.4487C40.5392 41.4891 40.5867 41.5166 40.6385 41.5277C40.6902 41.5389 40.7438 41.5331 40.7925 41.5113C40.8413 41.4894 40.8829 41.4524 40.9122 41.4049C40.9415 41.3574 40.9572 41.3016 40.9572 41.2445C40.9572 41.1679 40.9291 41.0944 40.8791 41.0403C40.829 40.9861 40.7612 40.9557 40.6905 40.9557Z" fill="#000EE6"/>
<path d="M44.3755 36.7426C44.4492 36.7426 44.5089 36.6778 44.5089 36.5979C44.5089 36.5179 44.4492 36.4531 44.3755 36.4531C44.3019 36.4531 44.2422 36.5179 44.2422 36.5979C44.2422 36.6778 44.3019 36.7426 44.3755 36.7426Z" fill="#000EE6"/>
<path d="M45.4426 18.2464C45.4627 18.2464 45.479 18.2288 45.479 18.207C45.479 18.1852 45.4627 18.1675 45.4426 18.1675C45.4225 18.1675 45.4062 18.1852 45.4062 18.207C45.4062 18.2288 45.4225 18.2464 45.4426 18.2464Z" fill="#000EE6"/>
<path d="M42.8115 12.1299C42.8918 12.1299 42.9569 12.0592 42.9569 11.972C42.9569 11.8848 42.8918 11.8141 42.8115 11.8141C42.7311 11.8141 42.666 11.8848 42.666 11.972C42.666 12.0592 42.7311 12.1299 42.8115 12.1299Z" fill="#000EE6"/>
<path d="M38.6663 7.1279C38.8337 7.1279 38.9693 6.98097 38.9693 6.79973C38.9693 6.61848 38.8337 6.47156 38.6663 6.47156C38.499 6.47156 38.3633 6.61848 38.3633 6.79973C38.3633 6.98097 38.499 7.1279 38.6663 7.1279Z" fill="#000EE6"/>
<path d="M33.3458 2.52039C33.2404 2.52039 33.1372 2.55426 33.0495 2.61772C32.9618 2.68119 32.8935 2.7714 32.8531 2.87693C32.8127 2.98247 32.8022 3.09861 32.8227 3.21065C32.8433 3.32268 32.8941 3.4256 32.9687 3.50637C33.0433 3.58715 33.1383 3.64216 33.2418 3.66445C33.3452 3.68673 33.4525 3.67529 33.5499 3.63158C33.6474 3.58786 33.7307 3.51383 33.7893 3.41885C33.8479 3.32387 33.8792 3.2122 33.8792 3.09796C33.8792 2.94478 33.823 2.79787 33.723 2.68955C33.6229 2.58124 33.4873 2.52039 33.3458 2.52039Z" fill="#000EE6"/>
<path d="M27.2723 0.262573C27.0622 0.26602 26.8618 0.358818 26.7144 0.520922C26.567 0.683025 26.4844 0.901423 26.4844 1.12894C26.5084 1.33868 26.6023 1.5317 26.7485 1.67166C26.8947 1.81162 27.0832 1.88887 27.2783 1.88887C27.4735 1.88887 27.6619 1.81162 27.8081 1.67166C27.9543 1.5317 28.0483 1.33868 28.0723 1.12894C28.0723 0.899167 27.988 0.678803 27.8379 0.516327C27.6879 0.353852 27.4844 0.262573 27.2723 0.262573Z" fill="#000EE6"/>
<path d="M20.9456 2.32344C21.16 2.32603 21.3702 2.25939 21.5495 2.13202C21.7288 2.00466 21.8689 1.82234 21.952 1.60833C22.0352 1.39433 22.0576 1.15835 22.0163 0.930506C21.9751 0.702664 21.8721 0.493296 21.7205 0.329122C21.5689 0.164948 21.3756 0.0534143 21.1652 0.00875512C20.9548 -0.0359041 20.7369 -0.0116632 20.5393 0.0783841C20.3417 0.168431 20.1733 0.320202 20.0557 0.514324C19.9381 0.708446 19.8766 0.936116 19.879 1.16828C19.879 1.47465 19.9914 1.76847 20.1914 1.9851C20.3914 2.20173 20.6627 2.32344 20.9456 2.32344Z" fill="#000EE6"/>
<path d="M14.8724 4.52877C15.1361 4.52877 15.3939 4.44408 15.6132 4.28542C15.8324 4.12675 16.0033 3.90124 16.1042 3.63739C16.2052 3.37355 16.2316 3.08322 16.1801 2.80312C16.1287 2.52302 16.0017 2.26573 15.8152 2.06379C15.6287 1.86185 15.3912 1.72433 15.1325 1.66861C14.8739 1.6129 14.6058 1.64149 14.3622 1.75078C14.1185 1.86007 13.9103 2.04515 13.7638 2.2826C13.6173 2.52006 13.5391 2.79923 13.5391 3.08482C13.5391 3.46778 13.6795 3.83505 13.9296 4.10584C14.1796 4.37664 14.5188 4.52877 14.8724 4.52877Z" fill="#000EE6"/>
<path d="M9.55192 8.47998C10.4155 8.47998 11.1156 7.72184 11.1156 6.78662C11.1156 5.8514 10.4155 5.09326 9.55192 5.09326C8.68835 5.09326 7.98828 5.8514 7.98828 6.78662C7.98828 7.72184 8.68835 8.47998 9.55192 8.47998Z" fill="#000EE6"/>
<path d="M5.40676 13.8225C6.35736 13.8225 7.12797 12.988 7.12797 11.9585C7.12797 10.929 6.35736 10.0945 5.40676 10.0945C4.45616 10.0945 3.68555 10.929 3.68555 11.9585C3.68555 12.988 4.45616 13.8225 5.40676 13.8225Z" fill="#000EE6"/>
<path d="M2.77602 20.1759C3.13749 20.1733 3.49016 20.0549 3.78956 19.8355C4.08895 19.6161 4.32166 19.3057 4.45833 18.9433C4.59501 18.5808 4.62953 18.1827 4.55754 17.7991C4.48556 17.4155 4.31029 17.0635 4.05384 16.7876C3.79739 16.5117 3.47125 16.3242 3.11654 16.2488C2.76183 16.1734 2.39444 16.2134 2.0607 16.3638C1.72696 16.5142 1.44182 16.7683 1.24123 17.0939C1.04065 17.4196 0.933602 17.8023 0.933594 18.1938C0.933588 18.4552 0.981329 18.714 1.07407 18.9554C1.16681 19.1967 1.30271 19.4158 1.47396 19.6C1.6452 19.7843 1.8484 19.93 2.07187 20.0288C2.29533 20.1277 2.53464 20.1777 2.77602 20.1759Z" fill="#000EE6"/>
<path d="M3.74582 24.9803C3.74822 24.5773 3.64007 24.1826 3.4351 23.8463C3.23012 23.51 2.93754 23.2472 2.59445 23.0912C2.25137 22.9352 1.87323 22.893 1.50798 22.97C1.14274 23.047 0.80684 23.2398 0.542873 23.5238C0.278905 23.8078 0.0987608 24.1703 0.0252795 24.5654C-0.0482019 24.9604 -0.0117102 25.3702 0.130128 25.7427C0.271966 26.1153 0.512761 26.4338 0.821983 26.658C1.13121 26.8821 1.49493 27.0018 1.86703 27.0018C2.36322 27.0018 2.83927 26.7893 3.19127 26.4105C3.54326 26.0318 3.74262 25.5176 3.74582 24.9803Z" fill="#000EE6"/>
<path d="M4.59305 31.7668C4.59304 31.3717 4.48468 30.9854 4.28169 30.657C4.0787 30.3286 3.79023 30.0728 3.45287 29.9222C3.1155 29.7716 2.74443 29.7329 2.38671 29.8109C2.02899 29.889 1.70072 30.0803 1.44355 30.3607C1.18637 30.641 1.01186 30.9978 0.94214 31.3857C0.872425 31.7736 0.910645 32.1752 1.05195 32.5395C1.19326 32.9039 1.4313 33.2146 1.73587 33.4323C2.04045 33.6499 2.39785 33.7647 2.76275 33.7621C3.24929 33.7586 3.71481 33.5469 4.05771 33.1731C4.40062 32.7993 4.59306 32.2938 4.59305 31.7668Z" fill="#000EE6"/>
<path d="M5.38173 36.1381C5.03839 36.1381 4.70279 36.2485 4.41749 36.4553C4.13219 36.6622 3.91004 36.9561 3.77921 37.2999C3.64838 37.6437 3.61477 38.0218 3.68264 38.3863C3.75051 38.7507 3.9168 39.0852 4.16043 39.3472C4.40405 39.6092 4.71404 39.7869 5.05106 39.8578C5.38809 39.9288 5.73698 39.8897 6.05349 39.7456C6.37 39.6015 6.63986 39.3589 6.82885 39.0485C7.01785 38.7381 7.11746 38.3739 7.11506 38.0021C7.11186 37.5065 6.92783 37.0324 6.60312 36.6832C6.2784 36.334 5.83935 36.138 5.38173 36.1381Z" fill="#000EE6"/>
<path d="M9.52693 41.4807C9.21527 41.4807 8.91062 41.5808 8.65149 41.7683C8.39235 41.9558 8.19039 42.2223 8.07112 42.5342C7.95185 42.846 7.92065 43.1891 7.98145 43.5201C8.04225 43.8511 8.19233 44.1552 8.4127 44.3939C8.63307 44.6325 8.91385 44.795 9.21951 44.8609C9.52518 44.9267 9.84201 44.8929 10.1299 44.7638C10.4179 44.6346 10.664 44.4159 10.8371 44.1353C11.0103 43.8546 11.1027 43.5247 11.1027 43.1872C11.1027 42.7346 10.9367 42.3006 10.6412 41.9805C10.3456 41.6605 9.94485 41.4807 9.52693 41.4807Z" fill="#000EE6"/>
<path d="M14.8357 45.4449C14.5696 45.4449 14.3095 45.5304 14.0882 45.6905C13.8669 45.8506 13.6945 46.0782 13.5927 46.3444C13.4908 46.6107 13.4642 46.9036 13.5161 47.1863C13.568 47.4689 13.6961 47.7286 13.8843 47.9323C14.0725 48.1361 14.3122 48.2749 14.5732 48.3311C14.8342 48.3873 15.1047 48.3585 15.3506 48.2482C15.5964 48.1379 15.8066 47.9511 15.9544 47.7115C16.1022 47.4719 16.1811 47.1902 16.1811 46.902C16.1811 46.5156 16.0394 46.145 15.7871 45.8717C15.5347 45.5985 15.1925 45.4449 14.8357 45.4449Z" fill="#000EE6"/>
<path d="M20.9089 47.6635C20.6228 47.6635 20.3484 47.7865 20.146 48.0056C19.9437 48.2247 19.8301 48.5219 19.8301 48.8317C19.8301 49.1416 19.9437 49.4387 20.146 49.6578C20.3484 49.8769 20.6228 50 20.9089 50C21.195 50 21.4694 49.8769 21.6717 49.6578C21.874 49.4387 21.9877 49.1416 21.9877 48.8317C21.9877 48.5219 21.874 48.2247 21.6717 48.0056C21.4694 47.7865 21.195 47.6635 20.9089 47.6635Z" fill="#000EE6"/>
<path d="M27.2492 47.9785C27.091 47.9785 26.9363 48.0293 26.8048 48.1245C26.6732 48.2197 26.5707 48.355 26.5101 48.5133C26.4496 48.6716 26.4337 48.8458 26.4646 49.0139C26.4955 49.1819 26.5717 49.3363 26.6835 49.4575C26.7954 49.5786 26.938 49.6612 27.0931 49.6946C27.2483 49.728 27.4092 49.7109 27.5554 49.6453C27.7015 49.5797 27.8265 49.4687 27.9144 49.3262C28.0023 49.1837 28.0492 49.0162 28.0492 48.8449C28.0509 48.7306 28.0313 48.6172 27.9917 48.5112C27.952 48.4053 27.8932 48.3091 27.8185 48.2283C27.7439 48.1475 27.6551 48.0838 27.5573 48.0408C27.4595 47.9979 27.3547 47.9767 27.2492 47.9785Z" fill="#000EE6"/>
<path d="M33.3212 46.3377C33.2129 46.3351 33.1063 46.3675 33.015 46.4308C32.9237 46.4941 32.8519 46.5854 32.8088 46.6931C32.7656 46.8008 32.7531 46.9199 32.7727 47.0354C32.7924 47.1508 32.8433 47.2573 32.9191 47.3412C32.9949 47.4251 33.0921 47.4827 33.1982 47.5066C33.3043 47.5305 33.4146 47.5196 33.515 47.4753C33.6153 47.431 33.7013 47.3553 33.7617 47.2579C33.8222 47.1605 33.8546 47.0458 33.8546 46.9284C33.8546 46.774 33.7988 46.6257 33.6991 46.5153C33.5994 46.4049 33.4638 46.3411 33.3212 46.3377Z" fill="#000EE6"/>
<path d="M38.6429 42.8984C38.5829 42.8984 38.5244 42.9177 38.4745 42.9537C38.4247 42.9898 38.3858 43.0411 38.3629 43.101C38.34 43.161 38.334 43.227 38.3457 43.2906C38.3574 43.3543 38.3862 43.4128 38.4286 43.4587C38.471 43.5046 38.525 43.5358 38.5838 43.5485C38.6425 43.5611 38.7035 43.5546 38.7588 43.5298C38.8142 43.505 38.8615 43.4629 38.8948 43.4089C38.9281 43.355 38.9459 43.2915 38.9459 43.2266C38.9459 43.1396 38.914 43.0561 38.8572 42.9946C38.8003 42.933 38.7232 42.8984 38.6429 42.8984Z" fill="#000EE6"/>
<path d="M42.7998 37.8971C42.7612 37.8971 42.7242 37.9137 42.6969 37.9433C42.6696 37.973 42.6543 38.0131 42.6543 38.055C42.6543 38.0969 42.6696 38.137 42.6969 38.1666C42.7242 38.1962 42.7612 38.2129 42.7998 38.2129C42.8383 38.2129 42.8753 38.1962 42.9026 38.1666C42.9299 38.137 42.9452 38.0969 42.9452 38.055C42.9452 38.0131 42.9299 37.973 42.9026 37.9433C42.8753 37.9137 42.8383 37.8971 42.7998 37.8971Z" fill="#000EE6"/>
</g>
<defs>
<clipPath id="clip0_109_600">
<rect width="120" height="50" fill="white"/>
</clipPath>
</defs>
</svg>
