<svg id="Layer_1" data-name="Layer 1" xmlns="http://www.w3.org/2000/svg" viewBox="0 0 540.3 207.87"><defs><style>.cls-1{fill:#fff;}</style></defs><path class="cls-1" d="M197.63,441.69h-6.37V411.92L172,441.69h-6.67l-19.25-29.77v29.77h-6.37v-38h8.89l20,30.34,20-30.34h8.95Z" transform="translate(-27.85 -316.57)"/><path class="cls-1" d="M214.86,441.69h-6.37v-38h6.37Z" transform="translate(-27.85 -316.57)"/><path class="cls-1" d="M273.51,441.69H236.73a10.65,10.65,0,0,1-7.9-3.13,10.84,10.84,0,0,1-3.11-8V414.82a10.85,10.85,0,0,1,3.09-8,10.66,10.66,0,0,1,7.92-3.1h36.78v6.41H236.73q-4.64,0-4.64,4.69v15.76a4.33,4.33,0,0,0,4.64,4.68h36.78Z" transform="translate(-27.85 -316.57)"/><path class="cls-1" d="M332.21,414.83a11.1,11.1,0,0,1-11.1,11.11h-6.19l15.8,15.75h-9L305.9,425.94H290.79v15.75h-6.37v-38h36.73A10.64,10.64,0,0,1,329,407,10.77,10.77,0,0,1,332.21,414.83Zm-6.37,0a4.73,4.73,0,0,0-4.69-4.69H290.79v9.38h30.36a4.71,4.71,0,0,0,4.69-4.69Z" transform="translate(-27.85 -316.57)"/><path class="cls-1" d="M391.5,430.6a10.89,10.89,0,0,1-3,8,10.75,10.75,0,0,1-8,3.06H354.72a10.66,10.66,0,0,1-7.92-3.11,10.83,10.83,0,0,1-3.09-8V414.82a10.72,10.72,0,0,1,3.21-7.86,10.56,10.56,0,0,1,7.8-3.23h25.77a10.66,10.66,0,0,1,7.88,3.15,10.81,10.81,0,0,1,3.13,7.94Zm-6.36,0V414.83a4.6,4.6,0,0,0-1.29-3.41,4.55,4.55,0,0,0-3.36-1.28H354.72a4.47,4.47,0,0,0-3.3,1.34,4.52,4.52,0,0,0-1.34,3.35v15.76q0,4.68,4.64,4.68h25.77Q385.14,435.27,385.14,430.59Z" transform="translate(-27.85 -316.57)"/><path class="cls-1" d="M450.2,414.83a11.1,11.1,0,0,1-11.1,11.11h-6.19l15.8,15.75h-9l-15.8-15.75H408.78v15.75h-6.37v-38h36.73A10.62,10.62,0,0,1,447,407,10.74,10.74,0,0,1,450.2,414.83Zm-6.36,0a4.75,4.75,0,0,0-4.7-4.69H408.78v9.38h30.36a4.73,4.73,0,0,0,4.7-4.69Z" transform="translate(-27.85 -316.57)"/><path class="cls-1" d="M509.5,441.69H461.71v-38H509.5v6.41H468.08v9.38H509.5v6.42H468.08v9.33H509.5Z" transform="translate(-27.85 -316.57)"/><path class="cls-1" d="M568.15,410.14H547.41v31.55H541V410.14H520.36v-6.41h47.79Z" transform="translate(-27.85 -316.57)"/><circle class="cls-1" cx="203.04" cy="83.11" r="0.12"/><path class="cls-1" d="M222.15,381.05a.49.49,0,1,0-.49-.49A.49.49,0,0,0,222.15,381.05Z" transform="translate(-27.85 -316.57)"/><circle class="cls-1" cx="180.52" cy="48.12" r="1"/><circle class="cls-1" cx="162.86" cy="36.75" r="1.76"/><path class="cls-1" d="M167.91,347.41a2.63,2.63,0,1,0,2.63-2.64A2.63,2.63,0,0,0,167.91,347.41Z" transform="translate(-27.85 -316.57)"/><path class="cls-1" d="M149.52,351a3.55,3.55,0,1,0-3.54-3.54A3.54,3.54,0,0,0,149.52,351Z" transform="translate(-27.85 -316.57)"/><path class="cls-1" d="M124.94,353.32a4.42,4.42,0,1,0,4.42-4.42A4.42,4.42,0,0,0,124.94,353.32Z" transform="translate(-27.85 -316.57)"/><path class="cls-1" d="M111.69,369.89a5.19,5.19,0,1,0-5.18-5.19A5.19,5.19,0,0,0,111.69,369.89Z" transform="translate(-27.85 -316.57)"/><circle class="cls-1" cx="70.08" cy="64.01" r="5.71"/><circle class="cls-1" cx="61.34" cy="83.11" r="6.08"/><path class="cls-1" d="M80,420.49a6.21,6.21,0,1,0,6.21-6.21A6.21,6.21,0,0,0,80,420.49Z" transform="translate(-27.85 -316.57)"/><circle class="cls-1" cx="61.34" cy="124.73" r="6.1"/><path class="cls-1" d="M97.93,454.67a5.74,5.74,0,1,0,5.74,5.74A5.74,5.74,0,0,0,97.93,454.67Z" transform="translate(-27.85 -316.57)"/><circle class="cls-1" cx="83.85" cy="159.72" r="5.23"/><path class="cls-1" d="M129.37,483.2a4.46,4.46,0,1,0,4.46,4.46A4.45,4.45,0,0,0,129.37,483.2Z" transform="translate(-27.85 -316.57)"/><circle class="cls-1" cx="121.69" cy="177" r="3.58"/><circle class="cls-1" cx="142.71" cy="177" r="2.66"/><path class="cls-1" d="M190.72,485.87a1.78,1.78,0,1,0,1.78,1.78A1.78,1.78,0,0,0,190.72,485.87Z" transform="translate(-27.85 -316.57)"/><path class="cls-1" d="M208.39,475.26a1,1,0,1,0,1,1A1,1,0,0,0,208.39,475.26Z" transform="translate(-27.85 -316.57)"/><path class="cls-1" d="M222.15,459.91a.49.49,0,0,0,0,1,.49.49,0,1,0,0-1Z" transform="translate(-27.85 -316.57)"/><circle class="cls-1" cx="203.04" cy="124.73" r="0.12"/><path class="cls-1" d="M238.49,395.39a.21.21,0,1,0-.21.21A.21.21,0,0,0,238.49,395.39Z" transform="translate(-27.85 -316.57)"/><path class="cls-1" d="M227.75,371.76a.59.59,0,1,0,.58.59A.59.59,0,0,0,227.75,371.76Z" transform="translate(-27.85 -316.57)"/><path class="cls-1" d="M211.15,352a1.21,1.21,0,1,0,1.21,1.2A1.2,1.2,0,0,0,211.15,352Z" transform="translate(-27.85 -316.57)"/><path class="cls-1" d="M189.86,341.62a2.12,2.12,0,1,0-2.12-2.12A2.12,2.12,0,0,0,189.86,341.62Z" transform="translate(-27.85 -316.57)"/><path class="cls-1" d="M165.55,335.54a3.18,3.18,0,1,0-3.18-3.18A3.17,3.17,0,0,0,165.55,335.54Z" transform="translate(-27.85 -316.57)"/><path class="cls-1" d="M140.2,328.08a4.28,4.28,0,1,0,4.28,4.28A4.28,4.28,0,0,0,140.2,328.08Z" transform="translate(-27.85 -316.57)"/><path class="cls-1" d="M115.89,344.81a5.34,5.34,0,1,0-5.34-5.33A5.33,5.33,0,0,0,115.89,344.81Z" transform="translate(-27.85 -316.57)"/><path class="cls-1" d="M94.58,359.44a6.26,6.26,0,1,0-6.25-6.26A6.26,6.26,0,0,0,94.58,359.44Z" transform="translate(-27.85 -316.57)"/><path class="cls-1" d="M71.1,372.31A6.88,6.88,0,1,0,78,365.43,6.88,6.88,0,0,0,71.1,372.31Z" transform="translate(-27.85 -316.57)"/><circle class="cls-1" cx="39.58" cy="78.77" r="7.28"/><path class="cls-1" d="M56.35,420.41a7.48,7.48,0,1,0,7.48-7.48A7.48,7.48,0,0,0,56.35,420.41Z" transform="translate(-27.85 -316.57)"/><circle class="cls-1" cx="39.54" cy="128.94" r="7.29"/><circle class="cls-1" cx="50.06" cy="151.99" r="6.92"/><path class="cls-1" d="M94.48,481.41a6.3,6.3,0,1,0,6.31,6.3A6.3,6.3,0,0,0,94.48,481.41Z" transform="translate(-27.85 -316.57)"/><path class="cls-1" d="M121.14,501.44a5.38,5.38,0,1,0-5.38,5.37A5.38,5.38,0,0,0,121.14,501.44Z" transform="translate(-27.85 -316.57)"/><path class="cls-1" d="M140.07,504.28a4.32,4.32,0,1,0,4.32,4.32A4.31,4.31,0,0,0,140.07,504.28Z" transform="translate(-27.85 -316.57)"/><path class="cls-1" d="M165.42,505.42a3.21,3.21,0,1,0,3.21,3.21A3.21,3.21,0,0,0,165.42,505.42Z" transform="translate(-27.85 -316.57)"/><circle class="cls-1" cx="161.89" cy="184.96" r="2.15"/><path class="cls-1" d="M211.06,486.62a1.22,1.22,0,1,0,1.22,1.22A1.22,1.22,0,0,0,211.06,486.62Z" transform="translate(-27.85 -316.57)"/><circle class="cls-1" cx="199.82" cy="152.17" r="0.59"/><path class="cls-1" d="M238,445.72a.2.2,0,0,0,.21.2.2.2,0,0,0,.2-.2.2.2,0,0,0-.2-.21A.21.21,0,0,0,238,445.72Z" transform="translate(-27.85 -316.57)"/><circle class="cls-1" cx="204.62" cy="75.7" r="0.16"/><circle class="cls-1" cx="192.77" cy="49.79" r="0.66"/><circle class="cls-1" cx="174.11" cy="28.27" r="1.35"/><path class="cls-1" d="M178,327a2.39,2.39,0,1,0,2.39,2.39A2.39,2.39,0,0,0,178,327Z" transform="translate(-27.85 -316.57)"/><path class="cls-1" d="M150.67,317.81a3.57,3.57,0,1,0,3.57,3.57A3.57,3.57,0,0,0,150.67,317.81Z" transform="translate(-27.85 -316.57)"/><path class="cls-1" d="M122.16,326.18a4.81,4.81,0,1,0-4.8-4.81A4.81,4.81,0,0,0,122.16,326.18Z" transform="translate(-27.85 -316.57)"/><path class="cls-1" d="M94.82,335.38a6,6,0,1,0-6-6A6,6,0,0,0,94.82,335.38Z" transform="translate(-27.85 -316.57)"/><circle class="cls-1" cx="43" cy="28.23" r="7.03"/><circle class="cls-1" cx="24.33" cy="49.74" r="7.74"/><path class="cls-1" d="M40.32,400.44a8.25,8.25,0,1,0-8.24-8.24A8.24,8.24,0,0,0,40.32,400.44Z" transform="translate(-27.85 -316.57)"/><path class="cls-1" d="M44.69,420.4a8.42,8.42,0,1,0-8.42,8.42A8.42,8.42,0,0,0,44.69,420.4Z" transform="translate(-27.85 -316.57)"/><path class="cls-1" d="M48.55,448.63a8.27,8.27,0,1,0-8.27,8.27A8.27,8.27,0,0,0,48.55,448.63Z" transform="translate(-27.85 -316.57)"/><path class="cls-1" d="M52.11,466.77a7.78,7.78,0,1,0,7.77,7.78A7.78,7.78,0,0,0,52.11,466.77Z" transform="translate(-27.85 -316.57)"/><path class="cls-1" d="M70.75,489a7.09,7.09,0,1,0,7.09,7.09A7.08,7.08,0,0,0,70.75,489Z" transform="translate(-27.85 -316.57)"/><path class="cls-1" d="M94.68,505.48a6,6,0,1,0,6,6A6.05,6.05,0,0,0,94.68,505.48Z" transform="translate(-27.85 -316.57)"/><path class="cls-1" d="M122,514.72a4.86,4.86,0,1,0,4.85,4.86A4.87,4.87,0,0,0,122,514.72Z" transform="translate(-27.85 -316.57)"/><path class="cls-1" d="M150.52,516a3.61,3.61,0,1,0,3.61,3.61A3.61,3.61,0,0,0,150.52,516Z" transform="translate(-27.85 -316.57)"/><path class="cls-1" d="M177.88,509.21a2.42,2.42,0,1,0,2.41,2.42A2.42,2.42,0,0,0,177.88,509.21Z" transform="translate(-27.85 -316.57)"/><path class="cls-1" d="M201.85,494.86a1.38,1.38,0,1,0,1.37,1.38A1.37,1.37,0,0,0,201.85,494.86Z" transform="translate(-27.85 -316.57)"/><path class="cls-1" d="M220.54,474.08a.67.67,0,1,0,.67.66A.67.67,0,0,0,220.54,474.08Z" transform="translate(-27.85 -316.57)"/><path class="cls-1" d="M232.26,448.86a.17.17,0,0,0,.16.17.17.17,0,0,0,0-.34A.17.17,0,0,0,232.26,448.86Z" transform="translate(-27.85 -316.57)"/></svg>