<svg width="50" height="58" viewBox="0 0 50 58" fill="none" xmlns="http://www.w3.org/2000/svg">
<path d="M28.8255 16.8467C23.2141 17.0787 9.29518 18.8447 9.29518 31.9924C9.29518 46.1068 25.2305 46.6868 30.4386 37.5608C31.1876 38.8756 34.5175 42.3945 35.6582 43.5933L42.2029 36.3749C42.2029 36.3749 38.4812 33.1138 38.4812 29.5691V10.608C38.4812 7.34687 35.6582 -0.000366211 25.5416 -0.000366211C15.402 -0.000366211 10.0211 7.08908 10.0211 13.4438L18.49 14.3203C20.3681 7.93981 24.7351 7.93981 24.7351 7.93981C29.4247 7.92692 28.8255 11.781 28.8255 16.8467ZM28.8255 28.0352C28.8255 38.3471 19.1237 36.8003 19.1237 30.2522C19.1237 24.1682 24.9425 22.9436 28.8255 22.8019V28.0352ZM44.4959 49.1101C43.6087 50.3991 36.4302 57.7464 24.3894 57.7464C12.3486 57.7464 3.13074 48.5301 0.30777 44.7276C-0.475747 43.7351 0.422994 43.271 0.941498 43.6577C9.38736 49.3937 22.5804 58.842 43.8621 47.5634C44.7263 47.0864 45.3946 47.8211 44.4959 49.1101ZM49.0817 49.3937C48.3328 51.4303 47.2382 52.8482 46.639 53.3896C46.0053 53.9696 45.5444 53.7376 45.8901 52.8998C46.2357 52.0619 48.1139 46.906 47.3534 45.8103C46.6044 44.7405 43.0901 45.2561 41.8227 45.3978C40.5783 45.5267 40.3248 45.6556 40.2096 45.3592C39.9445 44.6245 42.7099 43.3612 44.5304 43.1034C46.3394 42.8714 49.2546 43.0003 49.8307 43.8382C50.257 44.4956 49.8307 47.3313 49.0817 49.3937Z" fill="black"/>
</svg>
