<svg width="40" height="40" viewBox="0 0 40 40" fill="none" xmlns="http://www.w3.org/2000/svg">
<path d="M39 5.7143V9.2857C39 9.56406 38.7934 10.0532 37.8683 10.6775C36.9789 11.2777 35.6264 11.8581 33.8657 12.3616C30.3579 13.3648 25.4547 14 20 14C14.5453 14 9.64208 13.3648 6.13431 12.3616C4.37363 11.8581 3.02109 11.2777 2.13168 10.6775C1.20664 10.0532 1 9.56406 1 9.2857V5.7143C1 5.43594 1.20664 4.94685 2.13168 4.32254C3.02109 3.72228 4.37363 3.14186 6.13431 2.63835C9.64208 1.63523 14.5453 1 20 1C25.4547 1 30.3579 1.63523 33.8657 2.63835C35.6264 3.14186 36.9789 3.72228 37.8683 4.32254C38.7934 4.94685 39 5.43594 39 5.7143ZM39 15.4057V21.7857C39 22.0641 38.7934 22.5531 37.8683 23.1775C36.9789 23.7777 35.6264 24.3581 33.8657 24.8616C30.3579 25.8648 25.4547 26.5 20 26.5C14.5453 26.5 9.64208 25.8648 6.13431 24.8616C4.37363 24.3581 3.02109 23.7777 2.13168 23.1775C1.20664 22.5531 1 22.0641 1 21.7857V15.4057C3.097 16.3768 5.68251 17.0979 8.49524 17.6026C12.0472 18.24 16.0334 18.5447 20 18.5447C23.9666 18.5447 27.9528 18.24 31.5047 17.6026C34.3175 17.0979 36.903 16.3768 39 15.4057ZM31.5047 30.1026C34.3175 29.5979 36.903 28.8768 39 27.9057V34.2857C39 34.5641 38.7934 35.0532 37.8683 35.6775C36.9789 36.2777 35.6264 36.8581 33.8657 37.3616C30.3579 38.3648 25.4547 39 20 39C14.5453 39 9.64208 38.3648 6.13431 37.3616C4.37363 36.8581 3.02109 36.2777 2.13168 35.6775C1.20664 35.0532 1 34.5641 1 34.2857V27.9057C3.097 28.8768 5.68251 29.5979 8.49524 30.1026C12.0472 30.74 16.0334 31.0447 20 31.0447C23.9666 31.0447 27.9528 30.74 31.5047 30.1026Z" stroke="#000EE6" stroke-width="2"/>
</svg>
