<svg width="40" height="40" viewBox="0 0 40 40" fill="none" xmlns="http://www.w3.org/2000/svg">
<path d="M19.9919 9.10484L20.7258 7.83871C21.1774 7.04839 22.1855 6.78226 22.9758 7.23387C23.7661 7.68548 24.0323 8.69355 23.5806 9.48387L16.5242 21.7016H21.629C23.2823 21.7016 24.2097 23.6452 23.4919 24.9919H8.53226C7.62097 24.9919 6.8871 24.2581 6.8871 23.3468C6.8871 22.4355 7.62097 21.7016 8.53226 21.7016H12.7258L18.0968 12.3952L16.4194 9.48387C15.9677 8.69355 16.2339 7.69355 17.0242 7.23387C17.8145 6.78226 18.8145 7.04839 19.2742 7.83871L19.9919 9.10484ZM13.6452 26.6855L12.0645 29.4274C11.6129 30.2177 10.6048 30.4839 9.81452 30.0323C9.02419 29.5806 8.75806 28.5726 9.20968 27.7823L10.3871 25.75C11.7097 25.3387 12.7903 25.6532 13.6452 26.6855ZM27.2661 21.7097H31.5484C32.4597 21.7097 33.1935 22.4435 33.1935 23.3548C33.1935 24.2661 32.4597 25 31.5484 25H29.1694L30.7742 27.7823C31.2258 28.5726 30.9597 29.5726 30.1694 30.0323C29.379 30.4839 28.379 30.2177 27.9194 29.4274C25.2177 24.7419 23.1855 21.2339 21.8387 18.8952C20.4597 16.5161 21.4435 14.129 22.4194 13.3226C23.5 15.1774 25.1129 17.9758 27.2661 21.7097ZM20 0C8.95161 0 0 8.95161 0 20C0 31.0484 8.95161 40 20 40C31.0484 40 40 31.0484 40 20C40 8.95161 31.0484 0 20 0ZM37.4194 20C37.4194 29.5726 29.6694 37.4194 20 37.4194C10.4274 37.4194 2.58065 29.6694 2.58065 20C2.58065 10.4274 10.3306 2.58065 20 2.58065C29.5726 2.58065 37.4194 10.3306 37.4194 20Z" fill="white"/>
</svg>
