<svg width="45" height="45" viewBox="0 0 45 45" fill="none" xmlns="http://www.w3.org/2000/svg">
<path d="M43.9635 43.5394C43.9637 43.5397 43.9637 43.5399 44.8588 43.0939L43.9637 43.5399L43.9662 43.5447C44.07 43.7502 43.9197 44.0011 43.6811 44.0011H28.3705C28.2574 44.0011 28.1452 43.9339 28.0907 43.8227L28.0907 43.8227L28.0871 43.8154C27.2695 42.1814 26.4066 40.5539 25.5416 38.9227C22.9283 33.9942 20.297 29.0319 18.8472 23.7556C16.947 16.8401 17.1208 9.47725 22.3251 1.2475L22.3283 1.24232C22.4639 1.02493 22.6042 0.999879 22.6518 1C22.6811 1.00008 22.7069 1.00755 22.7313 1.02299C22.7548 1.03783 22.7958 1.07208 22.8354 1.15144L22.837 1.15449C23.0948 1.66585 28.3751 12.2593 33.5938 22.7307C36.2025 27.9651 38.795 33.1674 40.7353 37.0611L43.0771 41.7606L43.7322 43.0751L43.9046 43.4212L43.9488 43.5099L43.96 43.5323L43.9628 43.538L43.9635 43.5394ZM12.0907 21.4726L12.0907 21.4726L12.0962 21.4614C12.1412 21.3688 12.1861 21.3279 12.2106 21.3104C12.2353 21.2929 12.2603 21.2838 12.2901 21.2812C12.3495 21.2758 12.4911 21.2967 12.6471 21.4627C15.4153 24.4191 17.2966 28.3993 18.0786 32.474C18.8618 36.555 18.5256 40.6379 16.9774 43.8161L16.9728 43.8255L16.9684 43.835C16.9229 43.9335 16.8279 43.9944 16.7159 43.9925L16.7072 43.9923H16.6986H1.31777C1.08579 43.9923 0.931444 43.7388 1.03434 43.5325C1.03438 43.5325 1.03442 43.5324 1.03446 43.5323L12.0907 21.4726Z" stroke="#000EE6" stroke-width="2"/>
</svg>
