<svg width="40" height="31" viewBox="0 0 40 31" fill="none" xmlns="http://www.w3.org/2000/svg">
<path d="M16.2687 24.2736H15.5301L15.3129 24.9796L13.9426 29.4348H11.2214L19.909 3.15824L28.764 29.4348H26.0529L24.694 24.9817L24.4779 24.2736H23.7375H16.2687ZM16.4265 21.3811L16.0224 22.6784H17.3813H22.6063H23.9621L23.5616 21.3831L21.0054 13.115L20.7875 12.4103H20.05H19.9562H19.2203L19.0015 13.113L16.4265 21.3811ZM30.3229 22.8251L38.6199 23.6072L38.6629 23.7443L30.7959 24.2227L30.3229 22.8251ZM1.37962 23.6132L9.67584 22.8262L9.20432 24.2168L1.33855 23.7436L1.37962 23.6132Z" stroke="#000EE6" stroke-width="2"/>
</svg>
