<svg width="48" height="35" viewBox="0 0 48 35" fill="none" xmlns="http://www.w3.org/2000/svg">
<path d="M27.441 6.52174V7.52174H28.441H34.3203C35.7248 7.52174 36.8478 8.66833 36.8478 9.78261V12.0448C36.7895 12.0439 36.7308 12.0435 36.672 12.0435C33.8266 12.0435 31.1786 12.8474 28.9679 14.2174H1.2207V9.78261C1.2207 8.66833 2.3437 7.52174 3.74825 7.52174H9.62748H10.6275V6.52174V3.26087C10.6275 2.14659 11.7505 1 13.155 1H24.9135C26.318 1 27.441 2.14659 27.441 3.26087V6.52174ZM23.7377 7.52174H24.7377V6.52174V4.34783V3.34783H23.7377H14.3309H13.3309V4.34783V6.52174V7.52174H14.3309H23.7377ZM27.0893 25C27.0893 20.2179 31.2997 16.2174 36.672 16.2174C42.0443 16.2174 46.2546 20.2179 46.2546 25C46.2546 29.7821 42.0443 33.7826 36.672 33.7826C31.2997 33.7826 27.0893 29.7821 27.0893 25ZM40.6618 27.087C41.531 27.087 42.3754 26.4149 42.3754 25.4273V24.5727C42.3754 23.5851 41.531 22.913 40.6618 22.913H38.8478V20.2255C38.8478 19.2379 38.0035 18.5659 37.1342 18.5659H36.2105C35.3412 18.5659 34.4969 19.2379 34.4969 20.2255V25.4273C34.4969 26.4149 35.3412 27.087 36.2105 27.087H40.6618ZM15.5067 22.7391H22.9582C22.8156 23.4707 22.7377 24.2255 22.7377 25C22.7377 26.5614 23.0417 28.0537 23.5882 29.4348H3.74825C2.3437 29.4348 1.2207 28.2882 1.2207 27.1739V18.3913H13.3309V20.6522C13.3309 21.8776 14.3802 22.7391 15.5067 22.7391Z" stroke="#000EE6" stroke-width="2"/>
</svg>
