<svg width="24" height="24" viewBox="0 0 24 24" fill="none" xmlns="http://www.w3.org/2000/svg">
<path d="M23.9995 12C23.9995 18.6274 18.6269 24 11.9995 24C5.37208 24 -0.000488281 18.6274 -0.000488281 12C-0.000488281 5.37256 5.37208 0 11.9995 0C18.6269 0 23.9995 5.37256 23.9995 12ZM10.6115 18.3539L19.5147 9.45068C19.817 9.14835 19.817 8.65814 19.5147 8.35582L18.4199 7.26097C18.1175 6.9586 17.6273 6.9586 17.3249 7.26097L10.064 14.5218L6.67408 11.1319C6.37175 10.8296 5.88154 10.8296 5.57917 11.1319L4.48432 12.2267C4.182 12.5291 4.182 13.0193 4.48432 13.3216L9.51658 18.3539C9.81895 18.6562 10.3091 18.6562 10.6115 18.3539Z" fill="#000EE6"/>
</svg>
