<svg width="40" height="40" viewBox="0 0 40 40" fill="none" xmlns="http://www.w3.org/2000/svg">
<path d="M25.8462 11.5833C26.0433 10.9464 26.1538 10.25 26.1538 9.52381C26.1538 6.36905 24.0865 3.80952 21.5385 3.80952C20.5913 3.80952 19.7067 4.16667 18.976 4.77381C17.6442 1.91667 15.1587 0 12.3077 0C8.05769 0 4.61538 4.2619 4.61538 9.52381C4.61538 9.68452 4.62019 9.84524 4.625 10.006C1.93269 11.1786 0 14.3571 0 18.0952C0 22.8274 3.10096 26.6667 6.92308 26.6667H24.6154C28.0144 26.6667 30.7692 23.256 30.7692 19.0476C30.7692 15.3631 28.6538 12.2857 25.8462 11.5833Z" fill="#E0F0FF"/>
<path d="M39.4772 33.9407L33.8477 27.8424C32.7372 26.6394 31.0786 26.405 29.7421 27.1185L24.6174 21.5669V18.3329L18.4639 13.3334L15.3872 16.6664L20.0023 23.3324H22.9877L28.1124 28.8839C27.4586 30.3317 27.6701 32.1284 28.7807 33.3314L34.4101 39.4298C35.112 40.1901 36.2466 40.1901 36.9437 39.4298L39.4772 36.6853C40.1742 35.9249 40.1742 34.6959 39.4772 33.9407ZM31.3334 25.051C32.6939 25.051 33.9727 25.6238 34.9342 26.6654L35.8668 27.6757C36.6264 27.3164 37.3475 26.8164 37.9725 26.1394C39.756 24.2073 40.3617 21.4888 39.7945 19.0203C39.6887 18.5516 39.1455 18.3902 38.8282 18.7339L35.2514 22.6085L31.9872 22.02L31.444 18.4839L35.0207 14.6093C35.338 14.2656 35.1841 13.6771 34.7467 13.5573C32.4679 12.948 29.9585 13.6042 28.1797 15.5311C26.8096 17.0153 26.1654 18.9734 26.1991 20.9264L30.146 25.202C30.5354 25.1031 30.9392 25.051 31.3334 25.051ZM26.3385 29.3214L23.6127 26.3686L16.2862 34.3105C15.0843 35.6124 15.0843 37.7216 16.2862 39.0236C17.488 40.3255 19.435 40.3255 20.6369 39.0236L26.5789 32.5867C26.2135 31.5503 26.1029 30.4202 26.3385 29.3214ZM18.4639 37.9143C17.8293 37.9143 17.3101 37.3519 17.3101 36.6644C17.3101 35.9718 17.8245 35.4145 18.4639 35.4145C19.1033 35.4145 19.6177 35.9718 19.6177 36.6644C19.6177 37.3519 19.1033 37.9143 18.4639 37.9143Z" fill="#000EE6"/>
</svg>
