<svg width="30" height="40" viewBox="0 0 30 40" fill="none" xmlns="http://www.w3.org/2000/svg">
<path d="M30 33.2177C30 36.9597 26.6024 40 22.4096 40C18.2169 40 14.8193 36.9597 14.8193 33.2177C14.8193 29.4758 18.2169 26.4435 22.4096 26.4435C26.6024 26.4435 30 29.4758 30 33.2177ZM22.4096 13.5484C26.6024 13.5484 29.6386 10.5161 29.6386 6.77419C29.6386 3.03226 26.6024 0 22.4096 0C18.2169 0 14.4578 3.03226 14.4578 6.77419C14.4578 10.5161 11.7831 12.9032 7.59036 12.9032C3.39759 12.9032 0 16.2581 0 20C0 23.7419 3.39759 26.4516 7.59036 26.4516C11.7831 26.4516 15.1807 23.7419 15.1807 20C15.1807 16.2581 18.2169 13.5484 22.4096 13.5484Z" fill="black"/>
</svg>
