<svg width="44" height="30" viewBox="0 0 44 30" fill="none" xmlns="http://www.w3.org/2000/svg">
<path d="M29.1997 12.106C28.6268 5.32396 23.6614 0 17.6458 0C12.6614 0 8.24999 3.71138 6.66491 9.10165C2.90275 9.74226 0 13.4757 0 18.0045C0 22.9751 3.49475 27.0177 7.81077 27.0177H27.7865C31.3958 27.0177 34.3368 23.6378 34.3368 19.4624C34.3368 15.8615 32.1215 12.8351 29.1997 12.106ZM27.7865 23.6377H7.81077C5.11804 23.6377 2.92186 21.1193 2.92186 18.0044C2.92186 14.8895 5.11804 12.3711 7.81077 12.3711C9.10933 12.3711 10.3316 12.9675 11.2483 14.028C12.6252 15.6207 14.7061 13.212 13.3299 11.62C12.3177 10.4712 11.0764 9.67596 9.73961 9.2783C11.1146 5.74372 14.2084 3.37995 17.6459 3.37995C22.4393 3.37995 26.3351 7.88657 26.3351 13.4094C26.3351 14.4919 26.1823 15.5522 25.8958 16.5685C25.279 18.764 28.1122 19.6753 28.6649 17.6288C28.8559 16.9661 29.0087 16.2813 29.1042 15.5965C30.441 16.193 31.4149 17.6951 31.4149 19.4624C31.4149 21.7599 29.7917 23.6377 27.7865 23.6377ZM44 19.4624C44 22.975 43.1215 26.3549 41.4409 29.2489C41.1545 29.7349 40.6962 30 40.2187 30C39.0933 30 38.3477 28.4979 39.0156 27.3711C40.3524 25.0294 41.0781 22.2901 41.0781 19.4624C41.0781 16.6348 40.3525 13.8954 39.0156 11.5759C37.9358 9.75423 40.351 7.8067 41.4409 9.69814C43.1216 12.5699 44 15.9499 44 19.4624ZM39.1112 19.4624C39.1112 21.9809 38.4809 24.4109 37.2587 26.5096C36.9723 26.9956 36.514 27.2386 36.0365 27.2386C34.8501 27.2386 34.1727 25.7243 34.8334 24.6097C35.731 23.0855 36.1893 21.3181 36.1893 19.4624C36.1893 17.6288 35.731 15.8394 34.8334 14.3152C33.7463 12.4812 36.1445 10.5576 37.2587 12.4374C38.4809 14.5139 39.1112 16.944 39.1112 19.4624Z" fill="#000EE6"/>
</svg>
