<svg width="65" height="60" viewBox="0 0 65 60" fill="none" xmlns="http://www.w3.org/2000/svg">
<path d="M42 17.375C42.3203 16.4196 42.5 15.375 42.5 14.2857C42.5 9.55357 39.1406 5.71429 35 5.71429C33.4609 5.71429 32.0234 6.25 30.8359 7.16071C28.6719 2.875 24.6328 0 20 0C13.0938 0 7.5 6.39286 7.5 14.2857C7.5 14.5268 7.50781 14.7679 7.51562 15.0089C3.14062 16.7679 0 21.5357 0 27.1429C0 34.2411 5.03906 40 11.25 40H40C45.5234 40 50 34.8839 50 28.5714C50 23.0446 46.5625 18.4286 42 17.375Z" fill="#E0F0FF"/>
<path d="M64.1502 50.911L55.0022 41.7635C53.1976 39.959 50.5025 39.6075 48.3307 40.6777L40.0031 32.3504V27.4993L30.0036 20L25.0039 24.9995L32.5035 34.9985H37.3548L45.6824 43.3258C44.62 45.4975 44.9637 48.1926 46.7683 49.9971L55.9162 59.1446C57.0568 60.2851 58.9005 60.2851 60.0332 59.1446L64.1502 55.0278C65.2829 53.8873 65.2829 52.0437 64.1502 50.911ZM50.9165 37.5764C53.1273 37.5764 55.2053 38.4357 56.7678 39.998L58.2833 41.5135C59.5176 40.9745 60.6894 40.2246 61.705 39.2091C64.6033 36.3109 65.5876 32.2332 64.6658 28.5304C64.4939 27.8274 63.6111 27.5852 63.0955 28.1008L57.2834 33.9127L51.979 33.03L51.0962 27.7258L56.9084 21.9139C57.424 21.3983 57.174 20.5156 56.4631 20.3359C52.7602 19.4219 48.6823 20.4062 45.7918 23.2966C43.5654 25.5229 42.5186 28.4601 42.5732 31.3895L48.9869 37.8029C49.6197 37.6545 50.2759 37.5764 50.9165 37.5764ZM42.7998 43.982L38.3703 39.5528L26.4648 51.4657C24.5117 53.4186 24.5117 56.5824 26.4648 58.5353C28.4178 60.4882 31.5817 60.4882 33.5347 58.5353L43.1904 48.88C42.5967 47.3255 42.417 45.6303 42.7998 43.982ZM30.0036 56.8714C28.9724 56.8714 28.1287 56.0277 28.1287 54.9966C28.1287 53.9576 28.9646 53.1218 30.0036 53.1218C31.0426 53.1218 31.8785 53.9576 31.8785 54.9966C31.8785 56.0277 31.0426 56.8714 30.0036 56.8714Z" fill="#2B313B"/>
</svg>
