<svg width="40" height="30" viewBox="0 0 40 30" fill="none" xmlns="http://www.w3.org/2000/svg">
<path d="M9.64993 18.7488C10.1824 24.1001 14.0268 27.7718 19.131 27.4437C22.4559 30.8264 28.0147 31.0217 31.2356 27.0062C35.7294 27.0922 38.9309 23.522 39.7751 19.2332C40.7362 14.3506 38.5932 8.88216 33.7942 7.11663C31.6513 0.234163 25.2613 -0.81266 21.6831 0.476337C17.9621 1.82783 16.2088 4.63238 15.2347 9.04622C14.7282 9.25714 13.5138 9.74149 12.3124 10.9289C13.0722 10.9289 13.2995 11.6242 13.2995 12.4523V14.046C13.2995 14.8819 12.7345 15.5693 12.0332 15.5693H10.7214C10.0266 15.5693 9.45512 15.1006 9.45512 14.2647V13.7491H6.41597C6.1692 13.7491 5.71463 14.085 5.71463 14.6787V17.8348C5.71463 18.3348 6.05881 18.7567 6.47442 18.7567H9.64993V18.7488ZM24.4171 19.3738C23.7222 22.9908 25.8262 25.0298 28.0082 26.1547C21.0467 28.7952 16.8647 22.1862 19.2219 17.4989C17.066 19.1863 17.0335 23.0611 17.3257 24.7564C16.1633 23.7877 13.832 22.2252 13.5982 18.5223C13.4034 15.4053 14.9944 12.6085 17.2997 11.1867C19.2869 9.95242 24.0209 10.5227 25.9756 14.3741C25.06 10.6243 22.4819 8.89779 19.3648 8.53062C21.3714 6.1323 23.5469 4.60113 26.7808 5.11673C31.3136 5.84325 35.4307 11.5851 31.1772 16.8739C33.4501 15.6006 34.3397 12.6242 34.2618 10.8664L34.9437 12.3976C35.7099 14.1163 35.9307 16.1162 35.5541 18.0223C34.9567 21.069 32.9176 23.3971 30.3785 23.9986C28.2939 24.4907 24.982 23.6002 24.4171 19.3738ZM8.31219 11.2492H5.72762C5.14966 11.2492 4.67561 10.6789 4.67561 9.98367V6.89007C4.67561 6.1948 5.14966 5.62451 5.72762 5.62451H8.31219C8.89015 5.62451 9.3642 6.1948 9.3642 6.89007V9.98367C9.3642 10.6789 8.89015 11.2492 8.31219 11.2492ZM0.655884 8.12439C0.292225 8.12439 0 7.77284 0 7.33536V5.1636C0 4.72612 0.292225 4.37458 0.655884 4.37458H2.45469C2.81186 4.37458 3.11058 4.72612 3.11058 5.1636V7.33536C3.11058 7.77284 2.81835 8.12439 2.45469 8.12439H0.655884ZM10.9097 6.14792V4.47613C10.9097 4.07772 11.1825 3.74961 11.5137 3.74961H12.9034C13.2346 3.74961 13.5073 4.07772 13.5073 4.47613V6.14792C13.5073 6.54634 13.2346 6.87445 12.9034 6.87445H11.5137C11.1825 6.87445 10.9097 6.54634 10.9097 6.14792ZM3.63658 13.3976V15.3506C3.63658 15.8427 3.30539 16.249 2.89628 16.249H1.25982C0.850701 16.249 0.519512 15.8427 0.519512 15.3506V13.3976C0.519512 12.9054 0.850701 12.4992 1.25982 12.4992H2.88978C3.30539 12.4992 3.63658 12.9054 3.63658 13.3976Z" fill="#000EE6"/>
</svg>
