<svg width="40" height="30" viewBox="0 0 40 30" fill="none" xmlns="http://www.w3.org/2000/svg">
<path d="M33.6 13.0312C33.8562 12.3147 34 11.5312 34 10.7143C34 7.16518 31.3125 4.28571 28 4.28571C26.7687 4.28571 25.6188 4.6875 24.6688 5.37054C22.9375 2.15625 19.7062 0 16 0C10.475 0 6 4.79464 6 10.7143C6 10.8951 6.00625 11.0759 6.0125 11.2567C2.5125 12.5759 0 16.1518 0 20.3571C0 25.6808 4.03125 30 9 30H32C36.4188 30 40 26.1629 40 21.4286C40 17.2835 37.25 13.8214 33.6 13.0312ZM25.2938 18.971L18.7062 26.029C18.3187 26.4442 17.6813 26.4442 17.2938 26.029L10.7063 18.971C10.075 18.2946 10.525 17.1429 11.4125 17.1429H15.5V9.64286C15.5 9.05357 15.95 8.57143 16.5 8.57143H19.5C20.05 8.57143 20.5 9.05357 20.5 9.64286V17.1429H24.5875C25.475 17.1429 25.925 18.2946 25.2938 18.971Z" fill="#000EE6"/>
</svg>
