<svg width="50" height="35" viewBox="0 0 50 35" fill="none" xmlns="http://www.w3.org/2000/svg">
<path d="M42 15.2031C42.3203 14.3672 42.5 13.4531 42.5 12.5C42.5 8.35938 39.1406 5 35 5C33.4609 5 32.0234 5.46875 30.8359 6.26562C28.6719 2.51562 24.6328 0 20 0C13.0938 0 7.5 5.59375 7.5 12.5C7.5 12.7109 7.50781 12.9219 7.51562 13.1328C3.14062 14.6719 0 18.8438 0 23.75C0 29.9609 5.03906 35 11.25 35H40C45.5234 35 50 30.5234 50 25C50 20.1641 46.5625 16.125 42 15.2031ZM31.6172 22.1328L23.3828 30.3672C22.8984 30.8516 22.1016 30.8516 21.6172 30.3672L13.3828 22.1328C12.5938 21.3437 13.1563 20 14.2656 20H19.375V11.25C19.375 10.5625 19.9375 10 20.625 10H24.375C25.0625 10 25.625 10.5625 25.625 11.25V20H30.7344C31.8438 20 32.4062 21.3437 31.6172 22.1328Z" fill="white"/>
</svg>
