<svg width="25" height="25" viewBox="0 0 25 25" fill="none" xmlns="http://www.w3.org/2000/svg">
<path d="M11.6748 0.149542L1.51855 3.95814C0.605469 4.29993 0 5.17884 0 6.1554V17.1466C0 18.0353 0.50293 18.8458 1.29395 19.2413L11.4502 24.3195C12.1094 24.6515 12.8857 24.6515 13.5449 24.3195L23.7012 19.2413C24.4971 18.8458 24.9951 18.0304 24.9951 17.1466V6.1554C24.9951 5.17884 24.3896 4.30481 23.4766 3.96302L13.3203 0.154424C12.793 -0.0506537 12.207 -0.0506537 11.6748 0.149542ZM12.5 3.18177L21.875 6.69739V6.7511L12.5 10.5597L3.125 6.7511V6.69739L12.5 3.18177ZM14.0625 20.5646V13.2941L21.875 10.1202V16.6583L14.0625 20.5646Z" fill="#000EE6"/>
</svg>
