<svg width="50" height="45" viewBox="0 0 50 45" fill="none" xmlns="http://www.w3.org/2000/svg">
<path d="M47.7148 21.9175L38.2812 18.2817V7.3845C38.2812 5.87797 37.373 4.53214 35.9961 3.99983L26.2305 0.233512C25.4395 -0.0778373 24.5605 -0.0778373 23.7598 0.233512L13.9941 3.99983C12.6172 4.53214 11.709 5.87797 11.709 7.3845V18.2817L2.27539 21.9175C0.908203 22.4498 0 23.7956 0 25.3021V36.3601C0 37.726 0.751953 38.9814 1.94336 39.5941L11.709 44.6158C12.6953 45.1281 13.8672 45.1281 14.8535 44.6158L25 39.3932L35.1465 44.6158C36.1328 45.1281 37.3047 45.1281 38.291 44.6158L48.0566 39.5941C49.248 38.9814 50 37.726 50 36.3601V25.3021C50 23.7956 49.0918 22.4498 47.7148 21.9175ZM34.9609 18.3621L26.6602 21.566V14.7163L34.9609 11.0002V18.3621ZM15.0391 7.24389L25 3.40726L34.9609 7.24389V7.30415L25 11.4622L15.0391 7.30415V7.24389ZM23.2422 36.4806L14.9414 40.7491V32.8046L23.2422 28.9078V36.4806ZM23.2422 25.2318L13.2812 29.3899L3.32031 25.2318V25.1716L13.2812 21.3349L23.2422 25.1716V25.2318ZM46.6797 36.4806L38.3789 40.7491V32.8046L46.6797 28.9078V36.4806ZM46.6797 25.2318L36.7188 29.3899L26.7578 25.2318V25.1716L36.7188 21.3349L46.6797 25.1716V25.2318Z" fill="#000EE6"/>
</svg>
