<svg width="50" height="55" viewBox="0 0 50 55" fill="none" xmlns="http://www.w3.org/2000/svg">
<path d="M31.2504 48.359L31.2481 47.8613H30.7504H29.3109C28.4168 47.8613 27.6697 47.1132 27.6697 46.145V33.2124H44.559V46.145C44.559 47.1155 43.8097 47.8613 42.9323 47.8613H41.471H40.971V48.3613V52.9362C40.971 53.4944 40.7722 53.8732 40.5065 54.1159C40.2326 54.3661 39.8556 54.5003 39.4641 54.5C39.0726 54.4996 38.6952 54.3647 38.4209 54.1139C38.1548 53.8707 37.9562 53.4921 37.9562 52.9362V48.3613V47.8613H37.4562H34.7652H34.2652V48.3613V52.9362C34.2652 53.4907 34.0676 53.8693 33.8028 54.1129C33.5301 54.3637 33.1553 54.4989 32.7673 54.5C32.3793 54.5011 32.0057 54.3681 31.7341 54.1188C31.4705 53.8769 31.2721 53.4975 31.2721 52.9362L31.2721 52.9338L31.2504 48.359ZM27.6062 31.4861C27.7868 28.693 29.4704 26.2823 31.9244 24.9855L32.3383 24.7668L32.406 24.7357C34.794 23.6379 37.5426 23.6939 39.8237 24.7362L39.8599 24.7527L40.2956 24.9848C42.7299 26.2814 44.413 28.6925 44.5935 31.4861H27.6062ZM25.8884 34.3896V43.0601C25.8884 43.9583 25.2162 44.6342 24.3991 44.6342C23.5307 44.6342 22.7217 43.8933 22.7217 43.0601V34.3896C22.7217 33.5736 23.5283 32.8305 24.3991 32.8305C25.1991 32.8305 25.8884 33.5187 25.8884 34.3896ZM33.2614 27.8305C33.2614 27.1503 32.727 26.5443 32.0019 26.5443C31.279 26.5443 30.764 27.1633 30.764 27.8305C30.764 28.501 31.2893 29.1167 32.0019 29.1167C32.727 29.1167 33.2614 28.5107 33.2614 27.8305ZM41.4646 27.8305C41.4646 27.16 40.9394 26.5443 40.2268 26.5443C39.5017 26.5443 38.9672 27.1503 38.9672 27.8305C38.9672 28.5107 39.5017 29.1167 40.2268 29.1167C40.9394 29.1167 41.4646 28.501 41.4646 27.8305ZM46.333 34.3896C46.333 33.4999 47.0188 32.8305 47.8224 32.8305C48.6969 32.8305 49.4998 33.5545 49.4998 34.3896V43.0601C49.4998 43.8943 48.6969 44.6342 47.8224 44.6342C47.0234 44.6342 46.333 43.9547 46.333 43.0601V34.3896Z" stroke="#000EE6"/>
<path d="M22.265 17.7209C22.2647 17.7136 22.2613 17.8467 22.2634 17.9734C22.2659 18.1258 22.2752 18.3348 22.3019 18.5876C22.3553 19.0923 22.4788 19.7747 22.7593 20.5292C23.2934 21.9652 24.3924 23.6472 26.6168 24.8519C26.1404 26.1966 25.2473 28.1364 24.0939 29.799C23.4575 30.7164 22.7548 31.5304 22.0154 32.1138C21.2762 32.6971 20.533 33.0247 19.8027 33.0367C18.9168 33.0359 18.2091 32.7535 17.379 32.4222L17.3286 32.4022C16.4844 32.0654 15.5334 31.6964 14.2797 31.6964C12.9961 31.6964 12.0089 32.0496 11.1505 32.3838C11.085 32.4093 11.0205 32.4345 10.9569 32.4594C10.1723 32.7666 9.52874 33.0185 8.78407 33.0368L8.7803 33.037C8.07542 33.0597 7.32749 32.7364 6.55759 32.1164C5.79123 31.4991 5.04924 30.624 4.37053 29.6385C3.01327 27.6677 1.96609 25.3394 1.51587 24.0037C0.836456 21.9572 0.5 19.9841 0.5 18.0824C0.5 11.7015 4.58237 8.67381 8.33029 8.60901C9.20463 8.61006 10.234 8.94462 11.2423 9.31576C11.3821 9.36721 11.5223 9.41961 11.6611 9.47152C12.0068 9.6008 12.3444 9.72706 12.6486 9.8281C13.0656 9.96656 13.4929 10.0841 13.8529 10.0841C14.2113 10.0841 14.6609 9.93953 15.0952 9.78267C15.3055 9.70674 15.5323 9.6199 15.7672 9.52996C15.7886 9.52178 15.81 9.51357 15.8315 9.50534C16.0912 9.40595 16.3627 9.30253 16.6452 9.20101C17.787 8.79064 19.0441 8.43696 20.2142 8.53248L20.215 8.53254C22.6045 8.72381 24.4139 9.63077 25.6712 11.2447C23.4014 12.8295 22.2518 14.964 22.265 17.7209ZM22.265 17.7209C22.265 17.7212 22.265 17.722 22.265 17.723H22.765L22.265 17.7256C22.265 17.7241 22.265 17.7225 22.265 17.7209ZM15.8752 2.93784L15.8752 2.93787L15.8796 2.93257C16.8428 1.77255 18.4668 0.812832 19.9366 0.558223C19.96 1.52778 19.8045 3.24279 18.284 5.11143C17.0456 6.60842 15.6255 7.46941 14.1221 7.50982C14.1055 5.77751 14.7746 4.2268 15.8752 2.93784Z" stroke="#000EE6"/>
</svg>
