<svg width="31" height="30" viewBox="0 0 31 30" fill="none" xmlns="http://www.w3.org/2000/svg">
<path d="M30.4923 6.787C30.4876 6.77338 30.482 6.76007 30.4754 6.74715C30.4668 6.72195 30.4561 6.69746 30.4435 6.67391C30.4337 6.65928 30.4228 6.64537 30.4109 6.63231C30.3976 6.61308 30.3831 6.59468 30.3675 6.57723C30.3536 6.56434 30.3361 6.55379 30.321 6.54208C30.3038 6.52769 30.2857 6.51438 30.2667 6.50223L24.4599 3.25498C24.3865 3.21384 24.3033 3.19218 24.2186 3.19218C24.1339 3.19218 24.0507 3.21384 23.9773 3.25498L18.1693 6.50399C18.1506 6.51626 18.1329 6.52977 18.1162 6.54442C18.0997 6.55515 18.084 6.56689 18.0691 6.57958C18.0533 6.59671 18.0388 6.61492 18.0257 6.63407C18.0154 6.64813 18.0022 6.66043 17.9931 6.67567C17.9809 6.69934 17.9704 6.72382 17.9617 6.74891C17.9569 6.76239 17.9491 6.77469 17.9448 6.78875C17.9338 6.82849 17.9281 6.86946 17.9279 6.91063V13.077L13.0887 15.7835V3.71728C13.0888 3.67591 13.0831 3.63471 13.0718 3.59482C13.0682 3.58076 13.0598 3.56845 13.0549 3.55498C13.0465 3.52998 13.036 3.50568 13.0236 3.48232C13.0151 3.46709 13.0012 3.45478 12.991 3.44013C12.9777 3.4209 12.9632 3.40251 12.9476 3.38505C12.9325 3.37255 12.9168 3.36082 12.9005 3.3499C12.8836 3.33565 12.8659 3.32235 12.8474 3.31006L7.03877 0.0628004C6.96541 0.0216591 6.88219 0 6.79748 0C6.71276 0 6.62954 0.0216591 6.55618 0.0628004L0.748739 3.31006C0.729884 3.32203 0.712124 3.33556 0.695653 3.35048C0.679017 3.36121 0.663099 3.37295 0.647997 3.38564C0.632395 3.40278 0.618081 3.421 0.605167 3.44013C0.594308 3.45478 0.581037 3.46709 0.571988 3.48232C0.559627 3.50565 0.549334 3.52995 0.541223 3.55498C0.534634 3.56773 0.528793 3.58084 0.523729 3.59423C0.512631 3.63436 0.506953 3.67573 0.506838 3.71728V23.0356C0.506606 23.1181 0.528796 23.1992 0.571164 23.2707C0.613532 23.3422 0.674578 23.4016 0.748136 23.4428L12.3606 29.9373C12.3864 29.95 12.4133 29.9605 12.4408 29.969C12.4535 29.9736 12.4656 29.9807 12.4788 29.9842C12.5599 30.0053 12.6452 30.0053 12.7262 29.9842C12.7382 29.9813 12.7485 29.9748 12.7593 29.9713C12.7885 29.9624 12.8167 29.951 12.8438 29.9373L24.4599 23.4428C24.5334 23.4016 24.5945 23.3422 24.6369 23.2707C24.6792 23.1992 24.7014 23.1181 24.7012 23.0356V16.868L30.2655 13.7561C30.3395 13.7146 30.4009 13.6548 30.4433 13.5827C30.4856 13.5107 30.5076 13.429 30.5068 13.346V6.90946C30.5072 6.86822 30.5023 6.82709 30.4923 6.787ZM6.79687 1.0126L11.6343 3.71669L6.79627 6.42254L1.95945 3.71728L6.79687 1.0126ZM12.1205 4.52822V16.3243L9.31361 17.894L7.28128 19.0307V7.23641L10.0882 5.66669L12.1205 4.52822ZM12.1205 28.7145L1.47444 22.7637V4.53056L3.50678 5.6661L6.31307 7.23641V19.8446C6.3143 19.8623 6.31671 19.8799 6.32031 19.8973C6.32175 19.9206 6.32498 19.9437 6.32996 19.9664C6.33609 19.9846 6.34376 20.0022 6.35289 20.0192C6.3596 20.0394 6.36808 20.059 6.37822 20.0778C6.38937 20.0937 6.40146 20.1089 6.41442 20.1235C6.42649 20.1408 6.43979 20.1572 6.45423 20.1727C6.4681 20.1856 6.4856 20.195 6.50068 20.2067C6.51715 20.2206 6.53448 20.2335 6.55256 20.2453L12.1139 23.3028L12.1205 28.7145ZM12.6031 22.4936L7.77353 19.8381L12.8462 17.0016L18.4118 13.8897L23.2456 16.5926L19.6985 18.559L12.6031 22.4936ZM23.7342 22.7614L13.0875 28.7174V23.3086L20.9731 18.9375L23.7342 17.4053V22.7614ZM23.7342 15.7811L21.7019 14.6485L18.895 13.0788V7.72215L20.9273 8.85887L23.7342 10.4298V15.7811ZM24.2168 9.61238L19.3788 6.90711L24.2168 4.20244L29.0536 6.90653L24.2168 9.61238ZM24.6994 15.7811V10.4298L27.5123 8.85887L29.544 7.72215V13.077L24.6994 15.7811Z" fill="#FA6917"/>
</svg>
