<svg width="30" height="30" viewBox="0 0 30 30" fill="none" xmlns="http://www.w3.org/2000/svg">
<path d="M9.375 18.75H10.0781V19.6875C10.0781 20.2055 10.4977 20.625 11.0156 20.625H13.3594C13.8773 20.625 14.2969 20.2055 14.2969 19.6875V18.75H15C16.0354 18.75 16.875 17.9104 16.875 16.875V3.75C16.875 2.71465 16.0354 1.875 15 1.875V0.9375C15 0.419531 14.5805 0 14.0625 0H10.3125C9.79453 0 9.375 0.419531 9.375 0.9375V1.875C8.33965 1.875 7.5 2.71465 7.5 3.75V16.875C7.5 17.9104 8.33965 18.75 9.375 18.75ZM27.1875 26.25H27.1119C28.9008 24.2572 30 21.6328 30 18.75C30 12.5461 24.9539 7.5 18.75 7.5V11.25C22.8855 11.25 26.25 14.6145 26.25 18.75C26.25 22.8855 22.8855 26.25 18.75 26.25H2.8125C1.25918 26.25 0 27.5092 0 29.0625C0 29.5805 0.419531 30 0.9375 30H29.0625C29.5805 30 30 29.5805 30 29.0625C30 27.5092 28.7408 26.25 27.1875 26.25ZM6.09375 24.375H18.2812C18.5402 24.375 18.75 24.1652 18.75 23.9062V22.9688C18.75 22.7098 18.5402 22.5 18.2812 22.5H6.09375C5.83477 22.5 5.625 22.7098 5.625 22.9688V23.9062C5.625 24.1652 5.83477 24.375 6.09375 24.375Z" fill="#000EE6"/>
</svg>
