<svg width="120" height="50" viewBox="0 0 120 50" fill="none" xmlns="http://www.w3.org/2000/svg">
<g clip-path="url(#clip0_57_1002)">
<path d="M37.708 30.0958H36.2932V22.935L32.0156 30.0958H30.5342L26.2588 22.935V30.0958H24.844V20.9554H26.8185L31.2604 28.2533L35.7024 20.9554H37.6902L37.708 30.0958Z" fill="white"/>
<path d="M41.5346 30.0958H40.1199V20.9554H41.5346V30.0958Z" fill="white"/>
<path d="M54.5608 30.0957H46.392C46.0675 30.1074 45.7442 30.0465 45.4423 29.917C45.1405 29.7875 44.8665 29.592 44.6374 29.3428C44.4074 29.0899 44.2274 28.7888 44.1087 28.4579C43.9899 28.127 43.9348 27.7733 43.9467 27.4186V23.6325C43.9343 23.2781 43.9888 22.9247 44.1068 22.5938C44.2248 22.263 44.4038 21.9617 44.6329 21.7083C44.8632 21.4599 45.1382 21.2655 45.4408 21.1372C45.7434 21.0089 46.0672 20.9495 46.392 20.9626H54.5608V22.5044H46.392C45.7049 22.5044 45.3614 22.8805 45.3614 23.6325V27.4234C45.3498 27.5735 45.3684 27.7247 45.4159 27.8663C45.4635 28.008 45.5388 28.1368 45.6368 28.2438C45.7348 28.3508 45.8531 28.4335 45.9834 28.4862C46.1138 28.5389 46.2532 28.5604 46.392 28.5491H54.5608V30.0957Z" fill="white"/>
<path d="M67.598 23.635C67.5983 23.9858 67.5347 24.3332 67.411 24.6575C67.2872 24.9817 67.1057 25.2763 66.8767 25.5245C66.6478 25.7726 66.3759 25.9695 66.0766 26.1038C65.7774 26.2382 65.4566 26.3073 65.1327 26.3073H63.7579L67.2671 30.0957H65.2682L61.7546 26.3073H58.3987V30.0957H56.9839V20.9554H65.1416C65.4671 20.9509 65.7901 21.0193 66.0901 21.1563C66.3901 21.2933 66.6608 21.496 66.885 21.7516C67.1152 21.9971 67.2969 22.2906 67.4195 22.6143C67.542 22.938 67.6027 23.2852 67.598 23.635ZM66.1832 23.635C66.1809 23.3366 66.0704 23.0511 65.8756 22.8401C65.6807 22.629 65.4171 22.5094 65.1416 22.5069H58.3987V24.7631H65.1416C65.4175 24.7618 65.6817 24.6426 65.8768 24.4313C66.0719 24.22 66.182 23.9338 66.1832 23.635Z" fill="white"/>
<path d="M80.7663 27.4282C80.7807 27.7811 80.7292 28.1334 80.6147 28.4641C80.5002 28.7948 80.3251 29.097 80.1 29.3525C79.8662 29.6005 79.5879 29.7939 79.2822 29.9205C78.9765 30.0471 78.6501 30.1043 78.3232 30.0886H72.5975C72.2726 30.1014 71.9487 30.0415 71.6461 29.9128C71.3434 29.7841 71.0685 29.5893 70.8385 29.3405C70.6091 29.0873 70.43 28.786 70.3119 28.4551C70.1939 28.1242 70.1396 27.7707 70.1522 27.4162V23.6326C70.1459 23.2815 70.2059 22.9327 70.3285 22.6076C70.451 22.2825 70.6337 21.9879 70.8651 21.742C71.089 21.4904 71.3584 21.2916 71.6565 21.1579C71.9546 21.0242 72.2749 20.9586 72.5975 20.9651H78.321C78.645 20.9549 78.9676 21.0168 79.2687 21.1472C79.5697 21.2775 79.8428 21.4734 80.0711 21.7228C80.3006 21.9733 80.4806 22.2719 80.6001 22.6002C80.7196 22.9286 80.7762 23.2798 80.7663 23.6326V27.4282ZM79.3537 27.4282V23.635C79.3601 23.4844 79.338 23.3339 79.2887 23.1928C79.2394 23.0518 79.1641 22.9231 79.0672 22.8148C78.9687 22.7113 78.8517 22.6306 78.7234 22.5776C78.5951 22.5247 78.4581 22.5006 78.321 22.5069H72.5975C72.4614 22.5034 72.3262 22.5301 72.2001 22.5856C72.074 22.641 71.9598 22.724 71.8646 22.8292C71.7665 22.9342 71.6895 23.0599 71.6383 23.1986C71.5871 23.3372 71.5628 23.4858 71.5669 23.635V27.4258C71.5669 28.1763 71.9105 28.5515 72.5975 28.5515H78.321C79.0095 28.5515 79.3537 28.1763 79.3537 27.4258V27.4282Z" fill="white"/>
<path d="M93.8034 23.6349C93.8037 23.9857 93.7402 24.3332 93.6164 24.6574C93.4927 24.9816 93.3111 25.2762 93.0822 25.5244C92.8532 25.7726 92.5813 25.9695 92.2821 26.1038C91.9828 26.2381 91.6621 26.3073 91.3381 26.3073H89.9633L93.4725 30.0957H91.4736L87.9645 26.3073H84.6041V30.0957H83.1893V20.9554H91.347C91.673 20.9502 91.9964 21.0183 92.2969 21.1553C92.5974 21.2923 92.8683 21.4954 93.0927 21.7515C93.3227 21.997 93.5043 22.2905 93.6265 22.6142C93.7487 22.938 93.8089 23.2852 93.8034 23.6349ZM92.3909 23.6349C92.3874 23.3365 92.2763 23.0513 92.0812 22.8405C91.8861 22.6297 91.6226 22.5099 91.347 22.5068H84.6041V24.763H91.347C91.623 24.7611 91.8871 24.6418 92.0824 24.4307C92.2778 24.2196 92.3886 23.9337 92.3909 23.6349Z" fill="white"/>
<path d="M106.974 30.0958H96.3597V20.9554H106.974V22.4973H97.7745V24.7535H106.974V26.2977H97.7745V28.5419H106.974V30.0958Z" fill="white"/>
<path d="M120 22.5069H115.394V30.0958H113.97V22.5069H109.386V20.9651H120V22.5069Z" fill="white"/>
<path d="M45.095 20.0198C45.1097 20.0198 45.1217 20.0068 45.1217 19.9909C45.1217 19.975 45.1097 19.962 45.095 19.962C45.0803 19.962 45.0684 19.975 45.0684 19.9909C45.0684 20.0068 45.0803 20.0198 45.095 20.0198Z" fill="white"/>
<path d="M43.1537 15.5096C43.1753 15.5096 43.1963 15.5027 43.2142 15.4898C43.2321 15.4768 43.2461 15.4584 43.2543 15.4369C43.2625 15.4154 43.2647 15.3917 43.2605 15.3688C43.2563 15.3459 43.2459 15.3249 43.2307 15.3085C43.2155 15.292 43.1961 15.2807 43.175 15.2762C43.1539 15.2716 43.132 15.274 43.1121 15.2829C43.0922 15.2918 43.0752 15.3069 43.0633 15.3263C43.0513 15.3457 43.0449 15.3685 43.0449 15.3918C43.0449 15.4073 43.0477 15.4226 43.0532 15.4369C43.0587 15.4512 43.0667 15.4642 43.0768 15.4751C43.0869 15.4861 43.0989 15.4948 43.1121 15.5007C43.1253 15.5066 43.1395 15.5096 43.1537 15.5096Z" fill="white"/>
<path d="M40.0933 11.8151C40.216 11.8151 40.3154 11.7074 40.3154 11.5745C40.3154 11.4417 40.216 11.334 40.0933 11.334C39.9707 11.334 39.8712 11.4417 39.8712 11.5745C39.8712 11.7074 39.9707 11.8151 40.0933 11.8151Z" fill="white"/>
<path d="M36.171 9.26294C36.3869 9.26294 36.5619 9.07341 36.5619 8.8396C36.5619 8.6058 36.3869 8.41626 36.171 8.41626C35.9552 8.41626 35.7802 8.6058 35.7802 8.8396C35.7802 9.07341 35.9552 9.26294 36.171 9.26294Z" fill="white"/>
<path d="M31.1072 7.4181C31.1076 7.54311 31.1423 7.66518 31.2067 7.76889C31.2712 7.87261 31.3625 7.95332 31.4693 8.00083C31.5761 8.04835 31.6935 8.06053 31.8066 8.03585C31.9198 8.01117 32.0236 7.95073 32.1051 7.86216C32.1866 7.7736 32.242 7.66087 32.2644 7.53822C32.2867 7.41558 32.275 7.2885 32.2307 7.17305C32.1865 7.05759 32.1116 6.95894 32.0156 6.88953C31.9196 6.82013 31.8067 6.78308 31.6913 6.78308C31.6144 6.78308 31.5383 6.79953 31.4673 6.83147C31.3962 6.86341 31.3317 6.91022 31.2775 6.96922C31.2232 7.02822 31.1802 7.09824 31.151 7.17527C31.1218 7.2523 31.1069 7.33482 31.1072 7.4181Z" fill="white"/>
<path d="M27.0228 8.28165C27.1789 8.28212 27.3317 8.23239 27.4617 8.13874C27.5917 8.0451 27.6931 7.91176 27.753 7.75563C27.813 7.5995 27.8288 7.42762 27.7984 7.26175C27.7681 7.09589 27.6929 6.94352 27.5825 6.82395C27.4721 6.70439 27.3315 6.62302 27.1783 6.59014C27.0251 6.55727 26.8664 6.57438 26.7223 6.63931C26.5781 6.70424 26.455 6.81406 26.3685 6.95485C26.2821 7.09564 26.2361 7.26106 26.2366 7.43015C26.2366 7.65598 26.3194 7.87257 26.4669 8.03225C26.6143 8.19194 26.8143 8.28165 27.0228 8.28165Z" fill="white"/>
<path d="M21.5636 8.83966C21.5636 9.04993 21.6212 9.25548 21.729 9.43032C21.8369 9.60516 21.9902 9.74142 22.1696 9.82189C22.349 9.90236 22.5464 9.92341 22.7368 9.88239C22.9272 9.84137 23.1021 9.74011 23.2394 9.59142C23.3767 9.44274 23.4702 9.25331 23.5081 9.04707C23.546 8.84084 23.5265 8.62707 23.4522 8.4328C23.3779 8.23853 23.2521 8.07249 23.0907 7.95566C22.9292 7.83884 22.7394 7.77649 22.5453 7.77649C22.2849 7.77649 22.0352 7.8885 21.8511 8.08788C21.667 8.28726 21.5636 8.55769 21.5636 8.83966Z" fill="white"/>
<path d="M18.6208 12.8254C18.8489 12.8258 19.072 12.753 19.2618 12.6161C19.4517 12.4793 19.5998 12.2845 19.6873 12.0564C19.7749 11.8283 19.7981 11.5772 19.7538 11.3349C19.7096 11.0926 19.6 10.8699 19.4389 10.6951C19.2778 10.5203 19.0724 10.4011 18.8487 10.3528C18.6251 10.3044 18.3932 10.329 18.1824 10.4234C17.9717 10.5178 17.7915 10.6778 17.6648 10.8832C17.538 11.0885 17.4703 11.33 17.4703 11.577C17.4703 11.9077 17.5915 12.2248 17.8072 12.4589C18.0229 12.6929 18.3155 12.8247 18.6208 12.8254Z" fill="white"/>
<path d="M15.5647 16.7701C16.2651 16.7701 16.8329 16.1552 16.8329 15.3966C16.8329 14.6381 16.2651 14.0232 15.5647 14.0232C14.8643 14.0232 14.2965 14.6381 14.2965 15.3966C14.2965 16.1552 14.8643 16.7701 15.5647 16.7701Z" fill="white"/>
<path d="M13.6236 21.4533C14.3693 21.4533 14.9739 20.7986 14.9739 19.9909C14.9739 19.1832 14.3693 18.5284 13.6236 18.5284C12.8778 18.5284 12.2732 19.1832 12.2732 19.9909C12.2732 20.7986 12.8778 21.4533 13.6236 21.4533Z" fill="white"/>
<path d="M11.5824 24.9964C11.5824 25.2918 11.6633 25.5806 11.8148 25.8263C11.9664 26.0719 12.1818 26.2634 12.4338 26.3764C12.6858 26.4895 12.9632 26.5191 13.2307 26.4614C13.4983 26.4038 13.744 26.2615 13.9369 26.0526C14.1298 25.8437 14.2611 25.5776 14.3144 25.2878C14.3676 24.9981 14.3403 24.6977 14.2359 24.4248C14.1315 24.1518 13.9547 23.9186 13.7279 23.7544C13.5011 23.5903 13.2344 23.5027 12.9616 23.5027C12.5958 23.5027 12.245 23.6601 11.9864 23.9402C11.7277 24.2203 11.5824 24.6002 11.5824 24.9964Z" fill="white"/>
<path d="M13.6236 31.4692C14.3718 31.4692 14.9784 30.8123 14.9784 30.0019C14.9784 29.1916 14.3718 28.5347 13.6236 28.5347C12.8754 28.5347 12.2688 29.1916 12.2688 30.0019C12.2688 30.8123 12.8754 31.4692 13.6236 31.4692Z" fill="white"/>
<path d="M15.5646 33.2179C15.3125 33.2179 15.066 33.2989 14.8564 33.4506C14.6467 33.6023 14.4833 33.8179 14.3868 34.0702C14.2903 34.3225 14.2651 34.6001 14.3143 34.8679C14.3635 35.1357 14.4849 35.3818 14.6632 35.5748C14.8415 35.7679 15.0686 35.8994 15.3159 35.9527C15.5632 36.006 15.8196 35.9786 16.0525 35.8741C16.2855 35.7696 16.4846 35.5927 16.6246 35.3656C16.7647 35.1386 16.8395 34.8716 16.8395 34.5986C16.8395 34.2324 16.7052 33.8812 16.4661 33.6223C16.227 33.3634 15.9028 33.2179 15.5646 33.2179Z" fill="white"/>
<path d="M18.623 39.6763C19.2645 39.6763 19.7846 39.113 19.7846 38.4183C19.7846 37.7235 19.2645 37.1603 18.623 37.1603C17.9815 37.1603 17.4614 37.7235 17.4614 38.4183C17.4614 39.113 17.9815 39.6763 18.623 39.6763Z" fill="white"/>
<path d="M22.5474 40.0803C22.3515 40.0803 22.16 40.1432 21.9971 40.2611C21.8342 40.379 21.7073 40.5465 21.6323 40.7426C21.5573 40.9386 21.5377 41.1543 21.5759 41.3624C21.6141 41.5705 21.7085 41.7616 21.847 41.9117C21.9855 42.0617 22.162 42.1639 22.3542 42.2053C22.5463 42.2467 22.7455 42.2254 22.9265 42.1442C23.1075 42.063 23.2622 41.9255 23.3711 41.7491C23.4799 41.5727 23.538 41.3653 23.538 41.1531C23.5383 41.0121 23.5129 40.8725 23.4632 40.7422C23.4135 40.6119 23.3406 40.4935 23.2485 40.3938C23.1565 40.2941 23.0472 40.2151 22.9269 40.1613C22.8066 40.1075 22.6776 40.08 22.5474 40.0803Z" fill="white"/>
<path d="M27.0272 43.4359C27.4663 43.4359 27.8223 43.0503 27.8223 42.5747C27.8223 42.0992 27.4663 41.7136 27.0272 41.7136C26.588 41.7136 26.2321 42.0992 26.2321 42.5747C26.2321 43.0503 26.588 43.4359 27.0272 43.4359Z" fill="white"/>
<path d="M31.6958 43.2145C32.022 43.2145 32.2865 42.928 32.2865 42.5746C32.2865 42.2213 32.022 41.9348 31.6958 41.9348C31.3695 41.9348 31.105 42.2213 31.105 42.5746C31.105 42.928 31.3695 43.2145 31.6958 43.2145Z" fill="white"/>
<path d="M36.1733 40.7225C36.0951 40.7225 36.0187 40.7476 35.9537 40.7947C35.8886 40.8417 35.838 40.9086 35.808 40.9868C35.7781 41.0651 35.7703 41.1512 35.7855 41.2342C35.8008 41.3173 35.8385 41.3936 35.8937 41.4534C35.949 41.5133 36.0195 41.5541 36.0962 41.5706C36.1729 41.5871 36.2523 41.5787 36.3246 41.5462C36.3968 41.5138 36.4586 41.459 36.502 41.3886C36.5454 41.3181 36.5686 41.2354 36.5686 41.1507C36.5686 41.0371 36.527 40.9282 36.4528 40.8479C36.3787 40.7676 36.2781 40.7225 36.1733 40.7225Z" fill="white"/>
<path d="M40.0977 38.1705C40.0538 38.1705 40.0108 38.1846 39.9743 38.2111C39.9378 38.2375 39.9093 38.2751 39.8925 38.319C39.8757 38.363 39.8713 38.4113 39.8799 38.458C39.8884 38.5046 39.9096 38.5475 39.9407 38.5811C39.9717 38.6148 40.0113 38.6377 40.0544 38.647C40.0975 38.6563 40.1421 38.6515 40.1827 38.6333C40.2233 38.6151 40.258 38.5843 40.2824 38.5447C40.3068 38.5051 40.3198 38.4586 40.3198 38.4111C40.3198 38.3473 40.2964 38.2861 40.2548 38.241C40.2131 38.1959 40.1566 38.1705 40.0977 38.1705Z" fill="white"/>
<path d="M43.1538 34.4783C43.1243 34.4783 43.0961 34.4909 43.0753 34.5135C43.0544 34.5361 43.0427 34.5666 43.0427 34.5985C43.0427 34.6304 43.0544 34.661 43.0753 34.6836C43.0961 34.7061 43.1243 34.7188 43.1538 34.7188C43.1832 34.7188 43.2115 34.7061 43.2323 34.6836C43.2531 34.661 43.2648 34.6304 43.2648 34.5985C43.2648 34.5666 43.2531 34.5361 43.2323 34.5135C43.2115 34.4909 43.1832 34.4783 43.1538 34.4783Z" fill="white"/>
<path d="M45.095 30.0308C45.1097 30.0308 45.1217 30.0178 45.1217 30.0019C45.1217 29.9859 45.1097 29.973 45.095 29.973C45.0803 29.973 45.0684 29.9859 45.0684 30.0019C45.0684 30.0178 45.0803 30.0308 45.095 30.0308Z" fill="white"/>
<path d="M46.7829 18.959C46.7829 18.949 46.7801 18.9392 46.775 18.9309C46.7699 18.9226 46.7626 18.9161 46.7541 18.9123C46.7455 18.9085 46.7362 18.9075 46.7271 18.9094C46.7181 18.9114 46.7098 18.9162 46.7032 18.9232C46.6967 18.9303 46.6923 18.9393 46.6905 18.9491C46.6887 18.9589 46.6896 18.9691 46.6931 18.9783C46.6967 18.9875 46.7026 18.9954 46.7103 19.001C46.718 19.0065 46.727 19.0095 46.7362 19.0095C46.7486 19.0095 46.7605 19.0042 46.7692 18.9947C46.7779 18.9852 46.7829 18.9724 46.7829 18.959Z" fill="white"/>
<path d="M44.3975 13.2752C44.3715 13.2747 44.346 13.2826 44.3241 13.2979C44.3023 13.3132 44.2852 13.3352 44.2749 13.3611C44.2646 13.387 44.2617 13.4156 44.2665 13.4433C44.2713 13.471 44.2836 13.4965 44.3019 13.5165C44.3201 13.5366 44.3435 13.5504 44.3689 13.5561C44.3944 13.5617 44.4209 13.5591 44.4449 13.5484C44.469 13.5377 44.4896 13.5196 44.5041 13.4962C44.5186 13.4728 44.5264 13.4453 44.5264 13.4171C44.5264 13.3799 44.5129 13.3441 44.4888 13.3176C44.4647 13.291 44.4319 13.2758 44.3975 13.2752Z" fill="white"/>
<path d="M40.7107 8.5221C40.6575 8.52211 40.6055 8.53924 40.5612 8.57133C40.517 8.60342 40.4825 8.64901 40.4623 8.70234C40.442 8.75566 40.4368 8.8143 40.4473 8.87082C40.4579 8.92735 40.4837 8.9792 40.5215 9.01981C40.5593 9.06041 40.6074 9.08794 40.6597 9.0989C40.712 9.10985 40.7661 9.10375 40.8151 9.08135C40.8642 9.05895 40.906 9.02127 40.9353 8.97309C40.9645 8.92492 40.9799 8.86841 40.9795 8.81075C40.9795 8.77264 40.9725 8.73491 40.959 8.69973C40.9455 8.66455 40.9256 8.63263 40.9006 8.60579C40.8757 8.57896 40.846 8.55775 40.8134 8.54338C40.7808 8.52902 40.7459 8.52179 40.7107 8.5221Z" fill="white"/>
<path d="M35.9822 6.02536C36.0753 6.02536 36.1664 5.99545 36.2438 5.93942C36.3212 5.88339 36.3816 5.80374 36.4172 5.71057C36.4528 5.61739 36.4622 5.51486 36.444 5.41594C36.4258 5.31702 36.381 5.22617 36.3151 5.15485C36.2493 5.08353 36.1654 5.03497 36.0741 5.01529C35.9827 4.99562 35.888 5.00571 35.802 5.04431C35.716 5.0829 35.6424 5.14827 35.5907 5.23212C35.539 5.31598 35.5114 5.41457 35.5114 5.51543C35.5114 5.65067 35.561 5.78037 35.6493 5.876C35.7376 5.97163 35.8573 6.02536 35.9822 6.02536Z" fill="white"/>
<path d="M30.583 4.56301C30.7227 4.56301 30.8592 4.51814 30.9754 4.4341C31.0915 4.35005 31.182 4.23059 31.2355 4.09082C31.289 3.95106 31.3029 3.79726 31.2757 3.64889C31.2484 3.50051 31.1812 3.36421 31.0824 3.25724C30.9836 3.15026 30.8578 3.07741 30.7208 3.0479C30.5838 3.01839 30.4418 3.03354 30.3127 3.09143C30.1837 3.14932 30.0733 3.24737 29.9957 3.37315C29.9181 3.49894 29.8767 3.64682 29.8767 3.7981C29.8764 3.89864 29.8945 3.99825 29.9299 4.0912C29.9653 4.18414 30.0173 4.26859 30.0829 4.33968C30.1486 4.41077 30.2265 4.4671 30.3124 4.50543C30.3982 4.54376 30.4902 4.56333 30.583 4.56301Z" fill="white"/>
<path d="M24.9528 2.76855C24.7648 2.76855 24.581 2.82893 24.4247 2.94206C24.2683 3.05518 24.1465 3.21596 24.0746 3.40408C24.0026 3.59219 23.9838 3.79919 24.0205 3.99889C24.0571 4.19859 24.1477 4.38203 24.2806 4.52601C24.4136 4.66998 24.5829 4.76803 24.7673 4.80776C24.9517 4.84748 25.1429 4.82709 25.3166 4.74917C25.4903 4.67125 25.6387 4.5393 25.7432 4.37C25.8476 4.20071 25.9034 4.00166 25.9034 3.79804C25.9034 3.52501 25.8032 3.26316 25.6249 3.07009C25.4467 2.87702 25.2049 2.76855 24.9528 2.76855Z" fill="white"/>
<path d="M19.5536 6.79267C19.7882 6.79267 20.0176 6.71728 20.2127 6.57603C20.4078 6.43479 20.5598 6.23404 20.6495 5.99919C20.7392 5.76435 20.7626 5.50597 20.7166 5.25674C20.6707 5.00752 20.5575 4.77865 20.3914 4.59912C20.2253 4.41958 20.0138 4.29743 19.7836 4.24814C19.5534 4.19885 19.3148 4.22464 19.0982 4.32222C18.8815 4.41981 18.6964 4.58481 18.5664 4.79636C18.4363 5.0079 18.3671 5.25648 18.3676 5.51062C18.3676 5.67918 18.3982 5.84609 18.4579 6.00179C18.5175 6.15749 18.6049 6.29893 18.7151 6.41802C18.8252 6.5371 18.956 6.63149 19.0999 6.69577C19.2437 6.76006 19.3979 6.79299 19.5536 6.79267Z" fill="white"/>
<path d="M14.8206 10.3118C15.0957 10.3123 15.3647 10.2244 15.5936 10.0592C15.8226 9.89403 16.0011 9.65904 16.1067 9.38394C16.2123 9.10884 16.2401 8.80601 16.1867 8.51376C16.1333 8.22152 16.0011 7.95299 15.8067 7.74217C15.6124 7.53134 15.3647 7.3877 15.0949 7.3294C14.8251 7.27111 14.5455 7.30079 14.2913 7.41468C14.0371 7.52858 13.8198 7.72157 13.667 7.96924C13.5141 8.21691 13.4325 8.50813 13.4325 8.80604C13.4325 9.20497 13.5787 9.58761 13.8389 9.86992C14.0992 10.1522 14.4523 10.3112 14.8206 10.3118Z" fill="white"/>
<path d="M9.60583 13.4075C9.60584 13.7346 9.69534 14.0543 9.86305 14.3264C10.0308 14.5984 10.2691 14.8105 10.5481 14.9359C10.8271 15.0613 11.1341 15.0943 11.4304 15.0309C11.7266 14.9674 11.9989 14.8103 12.2128 14.5793C12.4267 14.3484 12.5726 14.0539 12.632 13.7332C12.6915 13.4125 12.6618 13.08 12.5469 12.7775C12.4319 12.475 12.2367 12.2162 11.986 12.0338C11.7353 11.8514 11.4403 11.7535 11.1383 11.7526C10.9373 11.7519 10.7381 11.7943 10.5522 11.8772C10.3663 11.96 10.1973 12.0818 10.055 12.2356C9.91259 12.3893 9.79964 12.572 9.72257 12.773C9.64551 12.9741 9.60583 13.1897 9.60583 13.4075Z" fill="white"/>
<path d="M8.79071 20.698C9.68369 20.698 10.4076 19.914 10.4076 18.9469C10.4076 17.9798 9.68369 17.1958 8.79071 17.1958C7.89773 17.1958 7.17383 17.9798 7.17383 18.9469C7.17383 19.914 7.89773 20.698 8.79071 20.698Z" fill="white"/>
<path d="M6.32983 24.9772C6.32983 25.333 6.42727 25.6809 6.60981 25.9768C6.79236 26.2726 7.05182 26.5032 7.35538 26.6394C7.65894 26.7756 7.99298 26.8112 8.31524 26.7418C8.6375 26.6724 8.93351 26.501 9.16585 26.2494C9.39819 25.9978 9.55641 25.6772 9.62051 25.3282C9.68461 24.9792 9.65171 24.6174 9.52597 24.2887C9.40023 23.9599 9.1873 23.6789 8.9141 23.4812C8.6409 23.2835 8.31971 23.178 7.99113 23.178C7.55053 23.178 7.12797 23.3675 6.81642 23.705C6.50486 24.0424 6.32983 24.5 6.32983 24.9772Z" fill="white"/>
<path d="M8.78182 32.7681C9.67602 32.7681 10.4009 31.983 10.4009 31.0146C10.4009 30.0462 9.67602 29.2611 8.78182 29.2611C7.88762 29.2611 7.16272 30.0462 7.16272 31.0146C7.16272 31.983 7.88762 32.7681 8.78182 32.7681Z" fill="white"/>
<path d="M11.1182 38.2234C11.967 38.2234 12.6551 37.4782 12.6551 36.5589C12.6551 35.6396 11.967 34.8944 11.1182 34.8944C10.2694 34.8944 9.5813 35.6396 9.5813 36.5589C9.5813 37.4782 10.2694 38.2234 11.1182 38.2234Z" fill="white"/>
<path d="M14.7985 39.6498C14.5218 39.6503 14.2515 39.7395 14.0217 39.9063C13.7919 40.0731 13.6129 40.31 13.5074 40.5869C13.4018 40.8639 13.3744 41.1685 13.4286 41.4623C13.4829 41.7561 13.6163 42.0258 13.8121 42.2375C14.0079 42.4492 14.2572 42.5933 14.5286 42.6516C14.7999 42.7099 15.0811 42.6797 15.3367 42.5649C15.5922 42.4502 15.8106 42.2559 15.9643 42.0068C16.1179 41.7576 16.1999 41.4648 16.1999 41.1651C16.1999 40.9659 16.1637 40.7687 16.0932 40.5847C16.0228 40.4007 15.9195 40.2335 15.7893 40.0928C15.6592 39.952 15.5047 39.8405 15.3346 39.7644C15.1646 39.6884 14.9824 39.6495 14.7985 39.6498Z" fill="white"/>
<path d="M20.7196 44.4677C20.7201 44.2117 20.6504 43.9613 20.5193 43.7481C20.3883 43.535 20.2018 43.3688 19.9835 43.2705C19.7652 43.1721 19.5249 43.1462 19.293 43.1958C19.061 43.2455 18.8479 43.3686 18.6806 43.5494C18.5133 43.7303 18.3992 43.9609 18.353 44.212C18.3067 44.4631 18.3302 44.7234 18.4206 44.96C18.511 45.1966 18.6641 45.3989 18.8606 45.5412C19.0572 45.6835 19.2883 45.7594 19.5247 45.7594C19.8412 45.7594 20.1448 45.6234 20.3689 45.3812C20.5929 45.1391 20.719 44.8105 20.7196 44.4677Z" fill="white"/>
<path d="M24.9239 45.1509C24.7342 45.1509 24.5487 45.2118 24.3909 45.326C24.2331 45.4402 24.1101 45.6025 24.0375 45.7923C23.9649 45.9822 23.9459 46.1911 23.9829 46.3927C24.0199 46.5943 24.1113 46.7794 24.2455 46.9248C24.3797 47.0701 24.5506 47.169 24.7368 47.2091C24.9229 47.2492 25.1158 47.2287 25.2911 47.15C25.4664 47.0714 25.6163 46.9382 25.7217 46.7673C25.8271 46.5964 25.8834 46.3955 25.8834 46.19C25.8837 46.0534 25.8591 45.9182 25.811 45.792C25.7629 45.6658 25.6922 45.5511 25.603 45.4545C25.5139 45.358 25.408 45.2814 25.2915 45.2293C25.1749 45.1772 25.05 45.1506 24.9239 45.1509Z" fill="white"/>
<path d="M30.5541 45.425C30.4131 45.425 30.2753 45.4703 30.158 45.5552C30.0408 45.64 29.9494 45.7606 29.8955 45.9017C29.8415 46.0428 29.8274 46.198 29.8549 46.3478C29.8824 46.4976 29.9503 46.6351 30.05 46.7431C30.1497 46.8511 30.2767 46.9247 30.415 46.9544C30.5533 46.9842 30.6967 46.9689 30.827 46.9105C30.9572 46.8521 31.0686 46.7531 31.1469 46.6261C31.2252 46.4992 31.2671 46.3499 31.2671 46.1972C31.2671 45.9924 31.1919 45.796 31.0582 45.6512C30.9245 45.5064 30.7432 45.425 30.5541 45.425Z" fill="white"/>
<path d="M35.9555 45.0065C36.2193 45.0065 36.433 44.7749 36.433 44.4893C36.433 44.2037 36.2193 43.9722 35.9555 43.9722C35.6918 43.9722 35.478 44.2037 35.478 44.4893C35.478 44.7749 35.6918 45.0065 35.9555 45.0065Z" fill="white"/>
<path d="M40.6908 40.903C40.6372 40.903 40.5848 40.9202 40.5402 40.9524C40.4957 40.9847 40.4609 41.0305 40.4404 41.0841C40.4199 41.1377 40.4146 41.1967 40.425 41.2537C40.4355 41.3106 40.4613 41.3629 40.4992 41.4039C40.5371 41.4449 40.5853 41.4729 40.6379 41.4842C40.6905 41.4955 40.7449 41.4897 40.7945 41.4675C40.844 41.4453 40.8863 41.4077 40.9161 41.3594C40.9458 41.3112 40.9617 41.2544 40.9617 41.1964C40.9617 41.1186 40.9332 41.0439 40.8824 40.9889C40.8315 40.9339 40.7626 40.903 40.6908 40.903Z" fill="white"/>
<path d="M44.3798 36.7442C44.4522 36.7442 44.5109 36.6806 44.5109 36.6022C44.5109 36.5239 44.4522 36.4603 44.3798 36.4603C44.3074 36.4603 44.2488 36.5239 44.2488 36.6022C44.2488 36.6806 44.3074 36.7442 44.3798 36.7442Z" fill="white"/>
<path d="M46.6741 31.065C46.6741 31.0716 46.6753 31.078 46.6777 31.084C46.68 31.09 46.6835 31.0954 46.6879 31.0999C46.6922 31.1044 46.6974 31.1079 46.703 31.1102C46.7087 31.1125 46.7147 31.1135 46.7207 31.1131C46.7325 31.1131 46.7438 31.1081 46.7521 31.0991C46.7605 31.09 46.7651 31.0778 46.7651 31.065C46.7654 31.0585 46.7645 31.052 46.7624 31.0459C46.7603 31.0398 46.7571 31.0342 46.7529 31.0295C46.7488 31.0247 46.7438 31.021 46.7382 31.0184C46.7327 31.0158 46.7267 31.0145 46.7207 31.0145C46.7083 31.0145 46.6965 31.0198 46.6877 31.0293C46.679 31.0388 46.6741 31.0516 46.6741 31.065Z" fill="white"/>
<path d="M45.4458 18.247C45.4654 18.247 45.4813 18.2298 45.4813 18.2085C45.4813 18.1873 45.4654 18.17 45.4458 18.17C45.4262 18.17 45.4103 18.1873 45.4103 18.2085C45.4103 18.2298 45.4262 18.247 45.4458 18.247Z" fill="white"/>
<path d="M42.8139 12.135C42.8949 12.135 42.9605 12.0639 42.9605 11.9763C42.9605 11.8886 42.8949 11.8175 42.8139 11.8175C42.733 11.8175 42.6674 11.8886 42.6674 11.9763C42.6674 12.0639 42.733 12.135 42.8139 12.135Z" fill="white"/>
<path d="M38.6696 7.12466C38.8352 7.12466 38.9694 6.97928 38.9694 6.79994C38.9694 6.6206 38.8352 6.47522 38.6696 6.47522C38.504 6.47522 38.3698 6.6206 38.3698 6.79994C38.3698 6.97928 38.504 7.12466 38.6696 7.12466Z" fill="white"/>
<path d="M33.3482 2.50879C33.2432 2.50879 33.1406 2.54251 33.0533 2.60568C32.966 2.66885 32.898 2.75862 32.8578 2.86367C32.8176 2.96871 32.8071 3.0843 32.8276 3.19582C32.8481 3.30734 32.8986 3.40977 32.9729 3.49017C33.0471 3.57057 33.1417 3.62532 33.2446 3.6475C33.3476 3.66968 33.4543 3.6583 33.5513 3.61479C33.6483 3.57128 33.7312 3.49759 33.7896 3.40305C33.8479 3.30851 33.879 3.19737 33.879 3.08367C33.879 2.9312 33.8231 2.78498 33.7235 2.67717C33.624 2.56936 33.489 2.50879 33.3482 2.50879Z" fill="white"/>
<path d="M27.2781 0.298218C27.1213 0.298218 26.968 0.34858 26.8376 0.442937C26.7072 0.537293 26.6056 0.671407 26.5456 0.828315C26.4856 0.985224 26.4699 1.15788 26.5005 1.32446C26.5311 1.49103 26.6066 1.64403 26.7175 1.76412C26.8284 1.88422 26.9696 1.96601 27.1234 1.99914C27.2772 2.03227 27.4367 2.01527 27.5815 1.95027C27.7264 1.88528 27.8503 1.77521 27.9374 1.634C28.0245 1.49278 28.071 1.32677 28.071 1.15693C28.071 0.929185 27.9875 0.710766 27.8388 0.549727C27.6901 0.388688 27.4884 0.298218 27.2781 0.298218Z" fill="white"/>
<path d="M20.9462 2.3115C21.1576 2.31198 21.3643 2.24453 21.5403 2.11769C21.7163 1.99085 21.8536 1.81032 21.9348 1.59895C22.016 1.38759 22.0374 1.15489 21.9965 0.930296C21.9555 0.705707 21.8539 0.499329 21.7046 0.337283C21.5553 0.175237 21.3649 0.0648034 21.1577 0.019966C20.9504 -0.0248714 20.7355 -0.00209782 20.5401 0.0853996C20.3448 0.172897 20.1778 0.321188 20.0603 0.511504C19.9428 0.701819 19.8801 0.925598 19.8801 1.15453C19.8801 1.46096 19.9924 1.75487 20.1922 1.97178C20.3921 2.18869 20.6633 2.31086 20.9462 2.3115Z" fill="white"/>
<path d="M14.874 4.52448C15.1375 4.52448 15.3952 4.43983 15.6143 4.28125C15.8335 4.12267 16.0043 3.89727 16.1051 3.63356C16.206 3.36985 16.2324 3.07967 16.181 2.79972C16.1295 2.51976 16.0026 2.2626 15.8163 2.06077C15.6299 1.85893 15.3924 1.72148 15.134 1.66579C14.8755 1.61011 14.6075 1.63869 14.364 1.74792C14.1205 1.85715 13.9124 2.04213 13.766 2.27946C13.6195 2.5168 13.5414 2.79583 13.5414 3.08127C13.5414 3.46403 13.6818 3.83112 13.9317 4.10177C14.1816 4.37243 14.5205 4.52448 14.874 4.52448Z" fill="white"/>
<path d="M9.55025 8.48129C10.4126 8.48129 11.1116 7.72422 11.1116 6.79033C11.1116 5.85643 10.4126 5.09937 9.55025 5.09937C8.68793 5.09937 7.98889 5.85643 7.98889 6.79033C7.98889 7.72422 8.68793 8.48129 9.55025 8.48129Z" fill="white"/>
<path d="M5.40362 13.8259C6.35302 13.8259 7.12266 12.9924 7.12266 11.9642C7.12266 10.9359 6.35302 10.1024 5.40362 10.1024C4.45421 10.1024 3.68457 10.9359 3.68457 11.9642C3.68457 12.9924 4.45421 13.8259 5.40362 13.8259Z" fill="white"/>
<path d="M2.76955 20.1737C3.13213 20.1741 3.4867 20.0581 3.78836 19.8402C4.09003 19.6224 4.32522 19.3125 4.46418 18.9498C4.60314 18.5871 4.63961 18.1879 4.56898 17.8027C4.49835 17.4175 4.3238 17.0637 4.06741 16.7861C3.81102 16.5084 3.48433 16.3193 3.12869 16.2428C2.77305 16.1664 2.40445 16.2059 2.06955 16.3563C1.73464 16.5068 1.4485 16.7616 1.24733 17.0883C1.04616 17.415 0.939015 17.799 0.939454 18.1917C0.939454 18.7173 1.13227 19.2214 1.47548 19.5931C1.81869 19.9648 2.28418 20.1737 2.76955 20.1737Z" fill="white"/>
<path d="M3.74014 24.9748C3.74014 24.5742 3.63047 24.1826 3.42498 23.8496C3.2195 23.5165 2.92743 23.2569 2.58572 23.1036C2.24401 22.9503 1.868 22.9102 1.50524 22.9884C1.14248 23.0665 0.809267 23.2594 0.547732 23.5427C0.286198 23.8259 0.108091 24.1868 0.0359337 24.5797C-0.0362234 24.9725 0.000810358 25.3797 0.142352 25.7498C0.283893 26.1199 0.523585 26.4362 0.831117 26.6587C1.13865 26.8813 1.50021 27.0001 1.87007 27.0001C2.11565 27.0001 2.35883 26.9477 2.58572 26.8459C2.81261 26.7441 3.01876 26.5949 3.19241 26.4069C3.36607 26.2188 3.50381 25.9955 3.59779 25.7498C3.69177 25.5041 3.74014 25.2407 3.74014 24.9748Z" fill="white"/>
<path d="M4.59747 31.7651C4.59747 31.3717 4.48974 30.9871 4.28792 30.6599C4.08609 30.3328 3.79923 30.0779 3.46361 29.9273C3.12798 29.7767 2.75867 29.7373 2.40237 29.8141C2.04608 29.8909 1.7188 30.0803 1.46192 30.3585C1.20505 30.6367 1.03012 30.9912 0.959244 31.377C0.888372 31.7629 0.924746 32.1629 1.06377 32.5263C1.20279 32.8898 1.43821 33.2005 1.74026 33.4191C2.04231 33.6377 2.39743 33.7543 2.76071 33.7543C3.24785 33.7543 3.71503 33.5448 4.05949 33.1717C4.40395 32.7986 4.59747 32.2927 4.59747 31.7651Z" fill="white"/>
<path d="M5.38811 36.1283C5.04626 36.1278 4.71197 36.2372 4.42752 36.4425C4.14307 36.6478 3.92125 36.94 3.79013 37.2819C3.65901 37.6238 3.62447 38.0001 3.69089 38.3633C3.75731 38.7264 3.92171 39.0601 4.16327 39.3221C4.40484 39.584 4.71272 39.7625 5.04797 39.8349C5.38321 39.9073 5.73076 39.8704 6.04662 39.7288C6.36249 39.5872 6.63249 39.3474 6.82245 39.0396C7.01242 38.7318 7.11382 38.3699 7.11382 37.9997C7.11382 37.5038 6.93207 37.0281 6.6085 36.6773C6.28494 36.3264 5.846 36.1289 5.38811 36.1283Z" fill="white"/>
<path d="M9.52805 41.4755C9.21661 41.4755 8.91216 41.5755 8.6532 41.7629C8.39425 41.9503 8.19242 42.2166 8.07323 42.5282C7.95405 42.8399 7.92287 43.1828 7.98363 43.5136C8.04439 43.8444 8.19436 44.1483 8.41458 44.3868C8.63481 44.6253 8.91539 44.7877 9.22084 44.8535C9.5263 44.9193 9.84292 44.8855 10.1307 44.7564C10.4184 44.6274 10.6643 44.4088 10.8373 44.1283C11.0104 43.8479 11.1027 43.5182 11.1027 43.1809C11.103 42.9568 11.0625 42.7349 10.9835 42.5279C10.9044 42.3208 10.7884 42.1327 10.6422 41.9743C10.4959 41.8158 10.3222 41.6902 10.131 41.6046C9.93982 41.519 9.73492 41.4751 9.52805 41.4755Z" fill="white"/>
<path d="M14.8428 45.4395C14.5793 45.4395 14.3216 45.5241 14.1025 45.6827C13.8834 45.8413 13.7126 46.0667 13.6117 46.3304C13.5108 46.5941 13.4844 46.8843 13.5359 47.1642C13.5873 47.4442 13.7142 47.7013 13.9006 47.9032C14.0869 48.105 14.3244 48.2424 14.5829 48.2981C14.8414 48.3538 15.1093 48.3252 15.3528 48.216C15.5963 48.1068 15.8044 47.9218 15.9509 47.6845C16.0973 47.4471 16.1754 47.1681 16.1754 46.8827C16.1725 46.5009 16.0312 46.1356 15.7819 45.8656C15.5326 45.5957 15.1954 45.4426 14.8428 45.4395Z" fill="white"/>
<path d="M20.9106 47.662C20.697 47.6615 20.4881 47.7297 20.3103 47.8578C20.1325 47.986 19.9938 48.1684 19.9118 48.382C19.8297 48.5955 19.8081 48.8307 19.8495 49.0576C19.8908 49.2845 19.9935 49.493 20.1443 49.6568C20.2952 49.8205 20.4875 49.9321 20.697 49.9774C20.9064 50.0227 21.1236 49.9996 21.3209 49.9112C21.5183 49.8228 21.687 49.673 21.8057 49.4807C21.9244 49.2884 21.9878 49.0623 21.9878 48.831C21.9872 48.5216 21.8736 48.225 21.6718 48.0059C21.4699 47.7869 21.1963 47.6633 20.9106 47.662Z" fill="white"/>
<path d="M27.2449 47.9698C27.0863 47.9698 26.9313 48.0208 26.7994 48.1162C26.6676 48.2116 26.5648 48.3472 26.5041 48.5059C26.4435 48.6646 26.4276 48.8391 26.4585 49.0076C26.4895 49.176 26.5658 49.3307 26.6779 49.4522C26.7901 49.5736 26.9329 49.6563 27.0885 49.6898C27.244 49.7233 27.4052 49.7061 27.5517 49.6404C27.6982 49.5747 27.8234 49.4634 27.9115 49.3206C27.9996 49.1778 28.0467 49.0099 28.0467 48.8382C28.0467 48.6079 27.9622 48.387 27.8118 48.2242C27.6615 48.0613 27.4575 47.9698 27.2449 47.9698Z" fill="white"/>
<path d="M33.3214 46.3367C33.215 46.3362 33.1109 46.3699 33.0222 46.4336C32.9335 46.4973 32.8643 46.588 32.8233 46.6943C32.7823 46.8007 32.7713 46.9178 32.7918 47.0308C32.8123 47.1439 32.8633 47.2479 32.9384 47.3295C33.0135 47.4112 33.1092 47.4668 33.2135 47.4895C33.3179 47.5122 33.426 47.5008 33.5244 47.4568C33.6227 47.4128 33.7068 47.3382 33.766 47.2424C33.8251 47.1466 33.8567 47.034 33.8567 46.9188C33.8567 46.7648 33.8004 46.6171 33.7001 46.508C33.5997 46.3989 33.4636 46.3373 33.3214 46.3367Z" fill="white"/>
<path d="M38.6451 42.885C38.5844 42.8845 38.525 42.9036 38.4743 42.9398C38.4236 42.976 38.3839 43.0276 38.3604 43.0883C38.3369 43.1489 38.3305 43.2157 38.342 43.2802C38.3536 43.3448 38.3826 43.4041 38.4254 43.4508C38.4682 43.4975 38.5228 43.5293 38.5823 43.5423C38.6418 43.5553 38.7036 43.5489 38.7597 43.5239C38.8158 43.4988 38.8638 43.4563 38.8976 43.4016C38.9314 43.347 38.9494 43.2827 38.9494 43.217C38.9497 43.1735 38.9421 43.1304 38.9269 43.0901C38.9117 43.0499 38.8894 43.0132 38.8611 42.9824C38.8328 42.9515 38.7992 42.927 38.7621 42.9103C38.725 42.8936 38.6853 42.885 38.6451 42.885Z" fill="white"/>
<path d="M42.7962 37.8866C42.7667 37.8866 42.7379 37.8961 42.7134 37.9139C42.6888 37.9317 42.6698 37.9571 42.6586 37.9867C42.6474 38.0162 42.6446 38.0488 42.6505 38.0801C42.6564 38.1114 42.6708 38.1401 42.6918 38.1626C42.7129 38.185 42.7396 38.2002 42.7686 38.2061C42.7976 38.2121 42.8276 38.2085 42.8548 38.1959C42.8819 38.1834 42.905 38.1624 42.9211 38.1355C42.9371 38.1087 42.9455 38.0773 42.9451 38.0454C42.9445 38.003 42.9285 37.9627 42.9007 37.933C42.8729 37.9032 42.8353 37.8866 42.7962 37.8866Z" fill="white"/>
<path d="M45.3992 31.8203C45.3992 31.8307 45.4028 31.8408 45.4094 31.8484C45.416 31.856 45.4251 31.8606 45.4347 31.8612C45.4447 31.8612 45.4543 31.8569 45.4614 31.8492C45.4685 31.8416 45.4725 31.8312 45.4725 31.8203C45.4725 31.8095 45.4685 31.7991 45.4614 31.7914C45.4543 31.7837 45.4447 31.7794 45.4347 31.7794C45.4251 31.78 45.416 31.7846 45.4094 31.7922C45.4028 31.7998 45.3992 31.8099 45.3992 31.8203Z" fill="white"/>
</g>
<defs>
<clipPath id="clip0_57_1002">
<rect width="120" height="50" fill="white"/>
</clipPath>
</defs>
</svg>
