<svg width="45" height="40" viewBox="0 0 45 40" fill="none" xmlns="http://www.w3.org/2000/svg">
<path d="M4.6752 36.9754L1.72704 31.8393H27.3242L31.4222 39H7.87267H7.87239C7.21626 39.0002 6.57244 38.8164 6.01281 38.4686C5.45309 38.1206 4.99925 37.6219 4.70299 37.0273L4.68986 37.0009L4.6752 36.9754ZM43.3906 28.8861L43.404 28.9097L43.4186 28.9325C44.648 30.8504 43.591 32.5629 43.2732 33.0777C43.2527 33.1109 43.2352 33.1392 43.2217 33.1622L43.2216 33.1622L43.2156 33.1727L40.481 37.9486L19.4148 1H25.522H25.5222C26.1654 0.999847 26.7971 1.17631 27.3494 1.51116C27.9017 1.84605 28.3543 2.32699 28.6575 2.90317L28.6648 2.91709L28.6725 2.93077L43.3906 28.8861ZM5.44458 23.3304L13.9476 8.48519L22.4507 23.3304H5.44458Z" stroke="#000EE6" stroke-width="2"/>
</svg>
