<svg width="35" height="40" viewBox="0 0 35 40" fill="none" xmlns="http://www.w3.org/2000/svg">
<path d="M5.25 1H29.75C31.0194 1 32.1264 1.36146 32.8891 1.89446C33.6553 2.42984 34 3.07274 34 3.66848V35.462C34 36.0577 33.6553 36.7006 32.8891 37.236C32.1264 37.769 31.0194 38.1304 29.75 38.1304H5.25C3.98057 38.1304 2.87365 37.769 2.11086 37.236C1.34468 36.7006 1 36.0577 1 35.462V3.66848C1 3.07274 1.34468 2.42984 2.11086 1.89446C2.87365 1.36146 3.98057 1 5.25 1ZM13 34.2391C13 35.3312 13.633 36.2172 14.4512 36.789C15.2723 37.3626 16.3531 37.6848 17.5 37.6848C18.6469 37.6848 19.7277 37.3626 20.5488 36.789C21.367 36.2172 22 35.3312 22 34.2391C22 33.147 21.367 32.2611 20.5488 31.6893C19.7277 31.1156 18.6469 30.7935 17.5 30.7935C16.3531 30.7935 15.2723 31.1156 14.4512 31.6893C13.633 32.2611 13 33.147 13 34.2391Z" stroke="#000EE6" stroke-width="2"/>
</svg>
