<svg width="40" height="40" viewBox="0 0 40 40" fill="none" xmlns="http://www.w3.org/2000/svg">
<path d="M39.1405 18.75L35.4882 11.5179C35.5663 11.3394 35.6249 11.1385 35.6249 10.9152C35.6249 10.2455 35.1366 9.68746 34.5507 9.66513L30.5077 1.67408C30.5468 1.54016 30.5858 1.40624 30.5858 1.27233C30.5858 0.558081 30.078 0 29.4725 0C29.121 0 28.828 0.178583 28.6131 0.468748H20.8398C20.6445 0.178666 20.3515 8.33667e-05 20 8.33667e-05C19.6484 8.33667e-05 19.3555 0.178666 19.1601 0.468831H11.4258C11.2109 0.178666 10.918 8.33667e-05 10.5664 8.33667e-05C9.96101 8.33667e-05 9.45315 0.558081 9.45315 1.27241C9.45315 1.40633 9.49223 1.56258 9.53131 1.67416L5.44925 9.77688C5.05871 9.97771 4.7852 10.4019 4.7852 10.9153C4.7852 10.9599 4.80474 11.0045 4.80474 11.0492L0.918015 18.7278C0.390685 18.8393 0 19.3528 0 19.9778C0 20.5804 0.37107 21.0938 0.878932 21.2277L4.90237 29.1742C4.86329 29.3081 4.84375 29.4197 4.84375 29.576C4.84375 30.1786 5.21482 30.692 5.72268 30.8036L9.49223 38.2813C9.45315 38.4152 9.41414 38.5714 9.41414 38.7277C9.41414 39.4419 9.92192 40 10.5274 40C10.8789 40 11.1719 39.8214 11.3673 39.5536H19.1602C19.3555 39.8213 19.668 39.9999 20 39.9999C20.3319 39.9999 20.6445 39.8213 20.8398 39.5535H28.6523C28.8475 39.799 29.1405 39.9552 29.453 39.9552C30.078 39.9552 30.5663 39.3749 30.5663 38.6829C30.5663 38.549 30.5469 38.4374 30.5078 38.3258L34.2773 30.8035C34.7851 30.692 35.1562 30.1785 35.1562 29.5759C35.1562 29.442 35.1367 29.308 35.0976 29.1741L39.1015 21.2277C39.6093 21.1161 40 20.6027 40 19.9777C39.9999 19.375 39.6287 18.8616 39.1405 18.75ZM10.1953 36.2276L7.01177 29.9107H10.1953V36.2276ZM10.1953 29.241H7.01177C6.99222 29.1518 6.95314 29.0625 6.91413 28.9732L10.1953 25.0224V29.241ZM10.1953 24.0401L6.52345 28.4821C6.42581 28.4375 6.3281 28.3705 6.23047 28.3482L2.16809 20.3125C2.2071 20.2009 2.2071 20.0893 2.2071 19.9777C2.2071 19.8661 2.2071 19.7768 2.18756 19.6875L5.97665 12.1875C6.17199 12.1652 6.36726 12.0982 6.54306 11.9643L10.1954 16.2947L10.1953 24.0401ZM10.1953 15.5134L6.85551 11.5625C6.95314 11.384 7.01177 11.1608 7.01177 10.9153C7.01177 10.893 6.99223 10.8483 6.99223 10.826L10.1953 9.50896V15.5134ZM10.1953 8.79463L7.01177 10.1116L10.1953 3.81698V8.79463ZM34.0038 12.0536L34.0624 12.1652L31.4843 26.0937L26.8359 20.4911L33.9843 12.0313L34.0038 12.0536ZM20.2734 28.2589L21.1132 29.241H19.4531L20.2734 28.2589ZM20.2539 27.3214L14.1797 20.2009L19.9804 13.1697L26.0351 20.4687L20.2539 27.3214ZM20.6445 27.8125L26.4257 20.9598L31.3475 26.8973L30.9179 29.241H21.8749L20.6445 27.8125ZM28.9257 2.36616C29.0038 2.41082 29.0819 2.45549 29.1796 2.47782L33.3983 10.8706V10.9153C33.3983 11.1608 33.4569 11.384 33.5546 11.5625L26.4452 20L20.3906 12.7009L28.9257 2.36616ZM28.2617 2.18757L19.9804 12.2099L15.8203 7.18755L27.9491 2.18757H28.2617ZM19.2577 2.18757C19.453 2.41074 19.7069 2.54466 20 2.54466C20.293 2.54466 20.5468 2.41074 20.7422 2.18757H26.2109L15.3906 6.65181L11.6797 2.18757H19.2577ZM10.7813 2.65632L10.8594 2.47782C10.9253 2.45858 10.9905 2.43622 11.0548 2.41082L14.7852 6.89747L10.7813 8.54921V2.65632ZM10.7813 9.26346L15.2148 7.43314L19.5703 12.7009L13.7696 19.7098L10.7813 16.2054V9.26346ZM10.7813 16.9866L13.4375 20.1339L10.7813 23.3259V16.9866ZM10.7813 24.3081L13.8477 20.6027L19.8828 27.7679L18.6328 29.241H10.7813V24.3081ZM11.2891 37.8124C11.1719 37.6785 11.0352 37.5893 10.8594 37.5223L10.7813 37.3883V29.9107H18.0664L11.3867 37.8124H11.2891ZM20.7617 37.8124C20.5664 37.6116 20.293 37.4553 20 37.4553C19.7069 37.4553 19.4336 37.6116 19.2382 37.8124H12.207L18.8866 29.9107H21.6796L28.3592 37.8124H20.7617ZM29.5117 36.8303L29.1991 37.4553C29.1015 37.4776 29.0234 37.5222 28.9452 37.5668L22.4414 29.9106H30.7813L29.5117 36.8303ZM30.4491 34.9776L31.3866 29.9107H32.9882L30.4491 34.9776ZM32.9882 29.241H31.5038L31.8358 27.4777L33.0858 28.9955C33.0468 29.0625 33.0077 29.1517 32.9882 29.241ZM37.8124 20.2902L33.7694 28.3482C33.6717 28.3928 33.574 28.4375 33.4764 28.5044L31.9725 26.6741L34.4921 13.0134L37.8318 19.6206C37.8124 19.7322 37.7733 19.8438 37.7733 19.9777C37.7733 20.0893 37.7928 20.1786 37.8124 20.2902Z" fill="black"/>
</svg>
