<svg width="60" height="40" viewBox="0 0 60 40" fill="none" xmlns="http://www.w3.org/2000/svg">
<path d="M23.9091 20.4414C24.495 20.9297 25.4447 20.9297 26.0306 20.4414L27.0909 19.5578C27.6769 19.0695 27.6769 18.2781 27.0909 17.7898L23.7422 15L27.09 12.2094C27.6759 11.7211 27.6759 10.9297 27.09 10.4414L26.0297 9.55781C25.4437 9.06953 24.4941 9.06953 23.9081 9.55781L18.4387 14.1156C17.8528 14.6039 17.8528 15.3953 18.4387 15.8836L23.9091 20.4414ZM32.91 19.5586L33.9703 20.4422C34.5563 20.9305 35.5059 20.9305 36.0919 20.4422L41.5612 15.8844C42.1472 15.3961 42.1472 14.6047 41.5612 14.1164L36.0919 9.55859C35.5059 9.07031 34.5563 9.07031 33.9703 9.55859L32.91 10.4422C32.3241 10.9305 32.3241 11.7219 32.91 12.2102L36.2578 15L32.91 17.7906C32.3241 18.2789 32.3241 19.0703 32.91 19.5586ZM58.5 32.5H35.7694C35.7 34.0477 34.3903 35 32.7 35H27C25.2478 35 23.9044 33.6352 23.9278 32.5H1.5C0.675 32.5 0 33.0625 0 33.75V35C0 37.75 2.7 40 6 40H54C57.3 40 60 37.75 60 35V33.75C60 33.0625 59.325 32.5 58.5 32.5ZM54 3.75C54 1.6875 51.975 0 49.5 0H10.5C8.025 0 6 1.6875 6 3.75V30H30H54V3.75ZM48 25H12V5H48V25Z" fill="black"/>
</svg>
