<svg width="55" height="45" viewBox="0 0 55 45" fill="none" xmlns="http://www.w3.org/2000/svg">
<path d="M54.6728 37.9278C55.2074 37.042 55.1215 36.5105 54.1574 36.8462C53.871 36.3893 53.4892 35.9604 53.0978 35.5595C53.3746 34.655 53.031 34.2354 52.0669 34.7016C51.6278 34.4033 51.0837 34.0956 50.5492 33.8438C50.5492 32.4359 49.4419 32.7622 48.8691 33.3123C47.8764 33.1725 47.0841 33.2844 46.3109 33.8438C46.3396 33.2377 46.3396 32.6317 46.3396 32.007C47.5423 32.007 50.1769 30.9813 50.721 28.6316C50.8546 27.9976 50.8737 27.3449 50.6923 26.5896C50.406 25.3309 49.3273 24.6036 48.2964 24.1933C48.22 23.6432 47.5709 22.86 46.8741 22.7108C46.1773 22.5616 45.6905 23.1677 45.5282 23.6712C44.7168 23.6712 43.6954 23.9322 43.5141 24.4544C42.9986 24.4078 42.4545 24.3239 41.9104 24.2772C42.1681 24.1001 42.4259 23.9509 42.7122 23.8483C43.2277 22.9905 44.1059 22.7854 45.1655 22.7667V22.5056C47.0268 22.459 49.2701 21.9555 50.301 20.818C51.5133 19.5312 51.6946 17.3401 51.4846 15.6804C51.2555 14.0673 50.5587 12.1745 49.1364 11.1955C48.3346 10.6453 47.0746 11.1209 46.9696 12.0812C46.7596 13.9088 47.0841 14.8785 43.285 14.4216C42.3018 12.2025 40.9368 10.263 39.209 8.82712C32.5653 3.2606 23.2011 3.81072 15.8987 5.32124C17.7792 5.75015 19.822 6.12311 21.5974 6.85972C19.0965 7.0835 16.5669 7.91335 14.3237 9.02293C11.1928 10.608 10.1237 11.8108 8.91137 12.9764C10.3337 12.7712 11.67 12.5008 13.0923 12.622C12.1664 13.1256 11.3359 13.7596 10.5627 14.4869C8.09999 14.5708 8.2909 13.9927 8.06181 12.0719C7.95681 11.0929 6.69679 10.636 5.89496 11.1675C3.21266 13.023 2.6972 18.6175 4.7304 20.818C5.76133 21.9555 8.0809 22.4311 9.97092 22.4777C9.94229 22.5802 9.94229 22.6548 9.94229 22.7294C10.9732 22.776 11.8037 22.9812 12.2905 23.811C12.5769 23.9136 12.8346 24.0628 13.0637 24.2399C12.5482 24.2866 12.0041 24.3705 11.4887 24.4171C11.1737 23.8017 10.1809 23.6618 9.47455 23.6618C9.32183 23.1304 8.85409 22.5243 8.12863 22.7015C7.47953 22.8786 6.7827 23.6339 6.70634 24.184C4.55858 25.0698 3.83312 26.6829 4.3104 28.6223C4.81631 30.9347 7.46044 31.9976 8.69182 31.9976V33.8345C8.06181 33.3683 7.3268 33.1352 6.1336 33.303C5.6086 32.7902 4.48222 32.3613 4.48222 33.8345C3.91903 34.0862 3.39402 34.3846 2.96447 34.6923C2.02901 34.2354 1.66628 34.5338 1.90491 35.5501C1.51355 35.9511 1.16036 36.352 0.845356 36.8369C-0.128293 36.4919 -0.204657 37.042 0.329895 37.9185C0.224894 38.2448 0.177166 38.5712 0.148529 38.9255C0.100801 41.8719 4.40586 44.8929 7.16453 44.9955C8.81591 45.0421 10.4673 44.2123 11.2691 42.8043C22.0747 43.2612 32.9089 43.1866 43.7432 42.8043C44.5164 44.2123 46.1677 45.0701 47.8191 44.9955C50.6064 44.8929 54.9115 41.8719 54.8351 38.9255C54.8542 38.5805 54.7683 38.2541 54.6728 37.9278ZM47.6282 14.2444C47.7332 13.9647 47.8573 13.4612 47.8573 12.8831C47.8573 12.333 48.5064 12.1279 49.2032 12.8085C50.2628 13.8901 50.6255 16.5848 50.5205 17.5732C50.1292 16.3051 49.2796 14.8692 47.6282 14.2444ZM47.1891 14.8692C49.0505 15.4473 49.9192 17.4426 50.0242 19.4287C49.9192 19.6804 49.7378 19.9322 49.5564 20.1373C49.0123 20.6874 48.0864 21.0697 47.0555 21.2749C47.4659 19.2888 47.0841 16.8645 45.8432 15.4006C46.3109 15.3261 46.8837 15.1769 47.1891 14.8692ZM44.8886 15.5032C46.2059 16.6128 46.7977 19.1583 46.2346 21.424C45.8432 21.4707 45.4614 21.4986 45.1273 21.4986C44.9459 19.4566 44.4782 17.396 43.7623 15.4752C44.1154 15.5032 44.5354 15.5032 44.8886 15.5032ZM4.54904 17.5638C4.44404 16.5848 4.77813 13.8808 5.86633 12.7992C6.53452 12.1185 7.21225 12.3237 7.21225 12.8738C7.21225 13.4519 7.34589 13.9554 7.44135 14.2351C5.78996 14.8692 4.94041 16.3051 4.54904 17.5638ZM5.47496 20.1373C5.29359 19.9322 5.14086 19.6804 5.00723 19.4287C5.14086 17.4426 5.99042 15.4473 7.84226 14.8692C8.14772 15.1675 8.72045 15.3261 9.18819 15.4006C7.94726 16.8645 7.56544 19.2795 7.9759 21.2749C6.94498 21.0697 6.01906 20.7154 5.47496 20.1373ZM10.0473 21.4986C9.65592 21.4986 9.2741 21.4707 8.835 21.424C8.3959 19.6898 8.65364 17.7969 9.35046 16.4822V16.5102L10.515 16.0347C10.9828 15.8575 11.4409 15.6804 11.9373 15.5778C10.9159 17.4147 10.2764 19.4287 10.0473 21.4986ZM27.6111 6.32825C31.6107 6.32825 34.8849 9.49846 34.8849 13.4053C34.8849 17.3401 31.6107 20.5103 27.6111 20.5103C23.6115 20.5103 20.3374 17.3401 20.3374 13.4053C20.3374 9.50778 23.6115 6.32825 27.6111 6.32825ZM38.6458 22.5802C38.6172 24.2399 37.9776 27.1397 36.4503 27.895C35.1903 28.5104 35.8299 27.1957 34.8753 22.4777C36.1449 22.5056 37.4145 22.5056 38.6458 22.5802ZM33.4912 22.4311C33.5676 22.8879 33.854 26.1887 33.3385 26.3379C32.2312 26.6642 29.5203 26.7388 28.4607 26.2353C28.0693 25.9556 28.0216 22.8879 28.0502 22.4031V22.4311C29.8544 22.4031 31.6871 22.4031 33.4912 22.4311ZM26.5802 27.4474C25.3393 27.7738 22.6093 27.8297 21.3683 27.2983C20.7479 27.0465 21.0056 23.3448 21.187 22.487C23.0197 22.4404 24.8525 22.4404 26.7043 22.4124V22.4404C26.8093 23.2143 27.0193 27.2143 26.5802 27.4474ZM16.4142 22.6828C17.5787 22.6082 18.7624 22.5523 19.927 22.5336C19.6979 23.9695 19.6406 26.5896 19.4592 27.4008C19.3542 28.0349 19.0488 28.0349 18.5333 27.8018C16.4428 26.888 15.8987 24.5197 16.4142 22.6828ZM13.0351 25.6013C13.7796 25.4987 14.5337 25.4241 15.2783 25.3495C15.431 25.9276 15.641 26.4591 15.9465 26.9906C16.901 28.5757 20.1465 30.3193 20.2515 27.6433C20.8433 29.0326 24.1461 28.7808 25.492 28.6503C26.9907 28.5197 27.7639 28.5197 28.0502 27.3169C29.2339 27.7178 30.9903 27.6992 32.2503 27.5966C33.3289 27.522 34.2358 27.55 34.5985 26.7668C34.7035 27.2423 34.7799 27.8484 35.0376 28.3332C36.0685 30.3193 38.5981 28.4638 39.5049 25.3868C40.3259 25.4614 41.185 25.564 42.0345 25.6386C41.9963 25.7598 41.6718 26.3192 42.7313 26.7202C38.1876 31.1025 33.5962 34.9068 27.153 36.697C21.1202 34.7576 16.4524 31.1491 12.2714 26.7668C13.1878 26.4498 13.2641 25.9463 13.0351 25.6013ZM10.9732 41.6854C10.6105 43.3451 8.88273 44.4547 7.18362 44.3801C5.35087 44.3055 2.74493 42.795 1.53264 40.9768C1.27491 38.077 5.7136 35.2611 7.85181 35.8858C9.2741 36.2867 10.5055 38.7576 11.0496 40.9208C11.0496 41.2006 11.0209 41.4523 10.9732 41.6854ZM10.1427 35.5315C10.095 34.2727 10.095 33.014 10.1141 31.7552H10.1427C10.4005 31.606 10.6868 31.4009 10.8873 31.1491C11.5078 31 12.1282 30.6736 12.3287 30.2913C12.6437 29.6293 11.6605 29.592 11.8132 29.1351C12.071 29.0326 12.3573 28.93 12.5578 28.8088C15.3451 31.5314 18.1515 34.0769 21.8456 35.9884C18.3328 37.042 14.9346 38.5618 11.7369 40.3707C11.6223 38.6364 11.0018 37.0233 10.1427 35.5315ZM42.3686 41.5549C32.5367 41.8812 22.6856 41.9372 12.8346 41.5549C12.8346 41.5829 12.8346 41.5829 12.806 41.5829V41.5549H12.8346C16.1851 39.5409 19.7265 37.8998 23.5638 36.8182C24.6711 37.2938 25.7593 37.704 26.8952 38.049C27.1052 38.1236 27.1052 38.1236 27.3057 38.049C28.6707 37.6667 30.0166 37.1912 31.3339 36.6131C35.2953 37.704 38.8558 39.5688 42.3686 41.5549ZM43.3709 40.3987C39.944 38.5805 36.4026 37.0513 32.6894 35.9604C36.3263 34.0956 39.5527 31.5501 42.5691 28.8088C42.7791 28.9393 43.0082 29.0326 43.2945 29.1071C43.2945 29.1817 43.3232 29.2843 43.3423 29.3309C42.9032 29.5827 42.5977 29.909 42.7791 30.2913C42.9891 30.6456 43.6 30.9999 44.2204 31.1212C44.4495 31.3729 44.7073 31.5967 44.9936 31.7552C44.9936 33.0419 44.965 34.3287 44.9173 35.6061L44.9459 35.5781C44.0582 37.0606 43.4663 39.028 43.3709 40.3987ZM53.4796 40.9768C52.2674 42.795 49.6614 44.3055 47.8287 44.3801C45.9864 44.464 43.9627 43.1493 43.9627 40.9302C44.5068 38.767 45.7668 36.2961 47.1605 35.8951C49.3273 35.2518 53.766 38.077 53.4796 40.9768ZM35.6103 5.64758C35.2476 -1.07513 25.9884 -1.78377 23.5829 3.45641C27.8402 1.19064 32.2026 1.99252 35.6103 5.64758ZM7.15498 36.5944C5.65633 36.7436 2.42992 38.9628 2.42992 40.6225C2.42992 41.7041 3.92858 42.4407 5.5036 42.0118C6.66816 41.7134 8.47227 40.3707 8.93046 39.4663C9.50319 38.3847 8.57727 36.4173 7.15498 36.5944ZM27.7639 20.1653C30.4939 20.1653 32.718 18.1513 32.718 15.6524C32.718 12.2864 28.8521 10.2351 25.8261 11.5218C26.733 11.8015 27.4011 12.6034 27.4011 13.5358C27.4011 15.7083 24.2225 16.5195 22.9625 14.5894C22.2656 17.769 24.8143 20.1653 27.7639 20.1653ZM6.50588 42.8416C6.55361 43.4477 7.67044 44.0258 8.56773 43.7274C9.21682 43.4757 9.96138 42.7484 10.2191 42.2169C10.5055 41.5642 10.1141 40.3521 9.29319 40.5013C8.44363 40.6504 6.45815 42.0584 6.50588 42.8416ZM47.8573 36.5944C46.435 36.4173 45.5091 38.3847 46.0532 39.4663C46.5209 40.3707 48.3537 41.7134 49.5087 42.0118C51.0837 42.4407 52.5824 41.7134 52.5824 40.6225C52.5824 38.9628 49.356 36.7436 47.8573 36.5944ZM45.7191 40.5013C44.9173 40.3521 44.5354 41.5549 44.8123 42.2169C45.0414 42.7484 45.7955 43.4757 46.4637 43.7274C47.3418 44.0258 48.4778 43.4477 48.4969 42.8416C48.5828 42.0584 46.5687 40.6504 45.7191 40.5013Z" fill="#000EE6"/>
</svg>
