<svg width="40" height="31" viewBox="0 0 40 31" fill="none" xmlns="http://www.w3.org/2000/svg">
<path d="M4.44444 3.53623H5.44444V2.53623V1.90217C5.44444 1.27565 5.86298 1 6.11111 1H38.3333C38.5815 1 39 1.27565 39 1.90217V26.6304C39 28.3075 37.8353 29.4348 36.6667 29.4348H3.88889C2.41347 29.4348 1 28.0236 1 25.9964V4.43841C1 3.81188 1.41853 3.53623 1.66667 3.53623H4.44444ZM3.33333 5.34058H2.33333V6.34058V25.9964C2.33333 26.3902 2.46923 26.7902 2.74392 27.1037L3.49605 26.4447L2.74392 27.1037C3.02232 27.4215 3.43046 27.6304 3.88889 27.6304C4.34731 27.6304 4.75546 27.4215 5.03386 27.1037L4.28173 26.4447L5.03386 27.1037C5.30855 26.7902 5.44444 26.3902 5.44444 25.9964V6.34058V5.34058H4.44444H3.33333ZM9.72222 26.3623H20.2778C21.4103 26.3623 22.1111 25.3605 22.1111 24.4112V23.7772C22.1111 22.8279 21.4103 21.8261 20.2778 21.8261H9.72222C8.58966 21.8261 7.88889 22.8279 7.88889 23.7772V24.4112C7.88889 25.3605 8.58966 26.3623 9.72222 26.3623ZM24.1667 26.3623H34.7222C35.8548 26.3623 36.5556 25.3605 36.5556 24.4112V23.7772C36.5556 22.8279 35.8548 21.8261 34.7222 21.8261H24.1667C23.0341 21.8261 22.3333 22.8279 22.3333 23.7772V24.4112C22.3333 25.3605 23.0341 26.3623 24.1667 26.3623ZM9.72222 18.7536H20.2778C21.4103 18.7536 22.1111 17.7518 22.1111 16.8025V16.1685C22.1111 15.2192 21.4103 14.2174 20.2778 14.2174H9.72222C8.58966 14.2174 7.88889 15.2192 7.88889 16.1685V16.8025C7.88889 17.7518 8.58966 18.7536 9.72222 18.7536ZM24.1667 18.7536H34.7222C35.8548 18.7536 36.5556 17.7518 36.5556 16.8025V16.1685C36.5556 15.2192 35.8548 14.2174 34.7222 14.2174H24.1667C23.0341 14.2174 22.3333 15.2192 22.3333 16.1685V16.8025C22.3333 17.7518 23.0341 18.7536 24.1667 18.7536ZM9.72222 11.1449H34.7222C35.8548 11.1449 36.5556 10.1431 36.5556 9.19384V6.02355C36.5556 5.07428 35.8548 4.07246 34.7222 4.07246H9.72222C8.58966 4.07246 7.88889 5.07428 7.88889 6.02355V9.19384C7.88889 10.1431 8.58966 11.1449 9.72222 11.1449Z" stroke="#000EE6" stroke-width="2"/>
</svg>
