<svg width="30" height="30" viewBox="0 0 30 30" fill="none" xmlns="http://www.w3.org/2000/svg">
<path d="M24.5039 9.72186C24.1875 9.60133 23.8711 9.48749 23.5547 9.38036C23.6074 9.1326 23.6543 8.88485 23.7012 8.63709C24.4219 4.64624 23.9473 1.43882 22.3477 0.380839C20.8066 -0.630268 18.293 0.421015 15.75 2.95213C15.498 3.19988 15.252 3.46103 15.0176 3.72218C14.8594 3.54808 14.6953 3.37398 14.5312 3.20658C11.8652 0.501368 9.19336 -0.636964 7.59375 0.427711C6.05859 1.44551 5.60156 4.46544 6.24609 8.24203C6.31055 8.61701 6.38086 8.98529 6.46289 9.36027C6.08789 9.4808 5.71875 9.61472 5.37305 9.75534C2.24414 10.9941 0 12.9494 0 14.9716C0 17.0608 2.39063 19.1566 5.64258 20.4289C5.90625 20.5293 6.16992 20.6298 6.43945 20.7168C6.35156 21.1186 6.27539 21.5136 6.20508 21.9221C5.58984 25.6384 6.07031 28.5847 7.60547 29.5958C9.1875 30.6404 11.8477 29.569 14.4375 26.9776C14.6426 26.7701 14.8477 26.5558 15.0527 26.3281C15.3105 26.616 15.5801 26.8906 15.8496 27.1584C18.3574 29.6226 20.8359 30.6203 22.3652 29.6092C23.9473 28.5646 24.4629 25.3974 23.7949 21.5404C23.7422 21.2458 23.6836 20.9445 23.6191 20.6365C23.8066 20.5762 23.9883 20.5092 24.1699 20.4423C27.5508 19.1633 30 17.0942 30 14.9716C30 12.9427 27.6914 10.974 24.5039 9.72186ZM16.5762 4.03689C18.7559 1.86737 20.7891 1.01697 21.7148 1.62631C22.7051 2.27583 23.0859 4.90069 22.4648 8.34916C22.4238 8.57683 22.3828 8.7978 22.3301 9.01877C21.0293 8.68397 19.7109 8.44291 18.3867 8.30899C17.625 7.06352 16.793 5.87162 15.8906 4.75337C16.1191 4.50562 16.3418 4.27126 16.5762 4.03689ZM9.79688 18.4468C10.0957 19.0294 10.4004 19.612 10.7227 20.1811C9.80859 20.0673 8.90039 19.8999 8.00391 19.6789C8.26172 18.7147 8.58398 17.717 8.95898 16.6992C9.22852 17.2884 9.50391 17.871 9.79688 18.4468ZM8.02148 10.3915C8.86523 10.1772 9.76172 10.0031 10.6934 9.86917C10.3828 10.4249 10.0781 10.9941 9.79102 11.57C9.50391 12.1391 9.22266 12.7217 8.95898 13.311C8.58984 12.3132 8.2793 11.3356 8.02148 10.3915ZM9.62695 15.0051C10.0137 14.081 10.4355 13.177 10.8809 12.2865C11.3262 11.3959 11.8066 10.5321 12.3105 9.68168C13.1895 9.60802 14.0859 9.56785 15 9.56785C15.9141 9.56785 16.8164 9.60802 17.6895 9.68168C18.1875 10.5254 18.6621 11.3892 19.1133 12.2731C19.5645 13.1569 19.9863 14.0609 20.3848 14.9783C19.9922 15.9023 19.5703 16.813 19.1191 17.7103C18.6738 18.6008 18.1992 19.4646 17.7012 20.3217C16.8281 20.3954 15.9199 20.4289 15 20.4289C14.0801 20.4289 13.1895 20.3954 12.3281 20.3351C11.8184 19.4847 11.3379 18.6142 10.8867 17.7237C10.4355 16.8331 10.0195 15.9291 9.62695 15.0051ZM20.209 18.4334C20.5078 17.8442 20.7891 17.2482 21.0645 16.6456C21.4395 17.6165 21.7676 18.6008 22.0547 19.612C21.1465 19.8463 20.2266 20.0271 19.3008 20.1476C19.6172 19.5852 19.916 19.0093 20.209 18.4334ZM21.0527 13.311C20.7773 12.7217 20.4961 12.1324 20.2031 11.5566C19.916 10.9874 19.6172 10.4249 19.3066 9.86917C20.25 10.0031 21.1523 10.1839 21.9961 10.4049C21.7266 11.3959 21.4102 12.3601 21.0527 13.311ZM15.0117 5.77787C15.627 6.54122 16.207 7.34475 16.7461 8.17507C15.5859 8.1148 14.4199 8.1148 13.2598 8.17507C13.834 7.31127 14.4258 6.50774 15.0117 5.77787ZM8.21484 1.67318C9.19922 1.01697 11.3848 1.95442 13.6875 4.28465C13.834 4.43196 13.9805 4.59267 14.1328 4.75337C13.2246 5.87162 12.3867 7.06352 11.6191 8.30899C10.2949 8.44291 8.98242 8.67727 7.68164 9.00538C7.60547 8.66388 7.54102 8.31568 7.47656 7.96749C6.92578 4.72659 7.28906 2.28252 8.21484 1.67318ZM6.7793 19.324C6.5332 19.2437 6.29297 19.1566 6.05273 19.0629C4.80469 18.6142 3.38672 17.9045 2.36133 16.9737C1.76953 16.505 1.37109 15.7818 1.25977 14.9716C1.25977 13.7462 3.11133 12.1793 5.7832 11.1146C6.11719 10.9807 6.45703 10.8602 6.79688 10.7464C7.19531 12.1994 7.67578 13.6257 8.23242 15.0051C7.66992 16.4045 7.18359 17.8509 6.7793 19.324ZM13.6113 25.8862C12.6445 26.8973 11.5254 27.7008 10.3066 28.2499C9.65625 28.6048 8.90625 28.6383 8.23828 28.3369C7.30664 27.7209 6.91992 25.3572 7.44727 22.1765C7.51172 21.8016 7.58203 21.4266 7.66406 21.0583C8.97656 21.3797 10.3008 21.6007 11.6426 21.7145C12.416 22.9667 13.2656 24.1653 14.1738 25.2902C13.9863 25.4978 13.7988 25.6987 13.6113 25.8862ZM15.0469 24.259C14.4492 23.5225 13.8516 22.7055 13.2715 21.8284C13.834 21.8551 14.4141 21.8685 15 21.8685C15.6035 21.8685 16.1953 21.8551 16.7812 21.8217C16.2422 22.6721 15.6621 23.4823 15.0469 24.259ZM22.7051 26.2678C22.6523 27.0848 22.3008 27.8481 21.7383 28.3637C20.8066 28.9798 18.8203 28.1762 16.6758 26.0737C16.4297 25.8326 16.1836 25.5715 15.9316 25.3036C16.8281 24.172 17.6543 22.9734 18.4043 21.7145C19.7461 21.5873 21.082 21.3529 22.4004 21.0114C22.459 21.286 22.5117 21.5605 22.5586 21.8284C22.8457 23.2747 22.8926 24.7813 22.7051 26.2678ZM23.7715 19.0696C23.6074 19.1298 23.4434 19.1901 23.2734 19.2437C22.8633 17.7839 22.3594 16.3577 21.7793 14.9716C22.3418 13.6056 22.8164 12.1994 23.2148 10.7597C23.5195 10.8602 23.8125 10.9673 24.0938 11.0745C26.8242 12.1458 28.7402 13.7395 28.7402 14.9582C28.7402 16.2706 26.6953 17.9647 23.7715 19.0696ZM15 18.0652C16.4824 18.0652 17.6836 16.6925 17.6836 14.9984C17.6836 13.3043 16.4824 11.9316 15 11.9316C13.5176 11.9316 12.3164 13.3043 12.3164 14.9984C12.3164 16.6925 13.5176 18.0652 15 18.0652Z" fill="#00D1FF"/>
</svg>
