<svg width="25" height="25" viewBox="0 0 25 25" fill="none" xmlns="http://www.w3.org/2000/svg">
<path d="M23.4375 7.14286H1.5625C0.699561 7.14286 0 6.34336 0 5.35714V1.78571C0 0.799498 0.699561 0 1.5625 0H23.4375C24.3004 0 25 0.799498 25 1.78571V5.35714C25 6.34336 24.3004 7.14286 23.4375 7.14286ZM21.0938 2.23214C20.4465 2.23214 19.9219 2.83175 19.9219 3.57143C19.9219 4.3111 20.4465 4.91071 21.0938 4.91071C21.741 4.91071 22.2656 4.3111 22.2656 3.57143C22.2656 2.83175 21.741 2.23214 21.0938 2.23214ZM17.9688 2.23214C17.3215 2.23214 16.7969 2.83175 16.7969 3.57143C16.7969 4.3111 17.3215 4.91071 17.9688 4.91071C18.616 4.91071 19.1406 4.3111 19.1406 3.57143C19.1406 2.83175 18.616 2.23214 17.9688 2.23214ZM23.4375 16.0714H1.5625C0.699561 16.0714 0 15.2719 0 14.2857V10.7143C0 9.72807 0.699561 8.92857 1.5625 8.92857H23.4375C24.3004 8.92857 25 9.72807 25 10.7143V14.2857C25 15.2719 24.3004 16.0714 23.4375 16.0714ZM21.0938 11.1607C20.4465 11.1607 19.9219 11.7603 19.9219 12.5C19.9219 13.2397 20.4465 13.8393 21.0938 13.8393C21.741 13.8393 22.2656 13.2397 22.2656 12.5C22.2656 11.7603 21.741 11.1607 21.0938 11.1607ZM17.9688 11.1607C17.3215 11.1607 16.7969 11.7603 16.7969 12.5C16.7969 13.2397 17.3215 13.8393 17.9688 13.8393C18.616 13.8393 19.1406 13.2397 19.1406 12.5C19.1406 11.7603 18.616 11.1607 17.9688 11.1607ZM23.4375 25H1.5625C0.699561 25 0 24.2005 0 23.2143V19.6429C0 18.6566 0.699561 17.8571 1.5625 17.8571H23.4375C24.3004 17.8571 25 18.6566 25 19.6429V23.2143C25 24.2005 24.3004 25 23.4375 25ZM21.0938 20.0893C20.4465 20.0893 19.9219 20.6889 19.9219 21.4286C19.9219 22.1682 20.4465 22.7679 21.0938 22.7679C21.741 22.7679 22.2656 22.1682 22.2656 21.4286C22.2656 20.6889 21.741 20.0893 21.0938 20.0893ZM17.9688 20.0893C17.3215 20.0893 16.7969 20.6889 16.7969 21.4286C16.7969 22.1682 17.3215 22.7679 17.9688 22.7679C18.616 22.7679 19.1406 22.1682 19.1406 21.4286C19.1406 20.6889 18.616 20.0893 17.9688 20.0893Z" fill="#000EE6"/>
</svg>
