<svg width="40" height="40" viewBox="0 0 40 40" fill="none" xmlns="http://www.w3.org/2000/svg">
<path d="M16.0313 16.9385L21.4501 25.4695C21.4501 25.4695 20.4126 33.4694 16.6626 37.1959C12.9188 40.9224 0 39.8599 0 39.8599C0 39.8599 0.237501 38.0552 0.687503 35.5318L6.60002 26.7664C6.85003 26.3992 6.54377 25.8602 6.18752 26.0242L2.41251 27.7507C3.31251 24.493 4.45627 21.5009 5.82502 20.1337C9.56878 16.3994 16.0313 16.9385 16.0313 16.9385ZM30.9064 27.4851C28.1564 27.4851 25.9188 30.2819 25.9188 33.7272C25.9188 37.1724 28.1501 39.9693 30.9064 39.9693C33.6626 39.9693 35.8939 37.1724 35.8939 33.7272C35.8939 30.2741 33.6564 27.4851 30.9064 27.4851ZM39.7814 2.42312L38.5439 0.470034C38.2001 -0.0690183 37.5751 -0.154954 37.1439 0.266913L22.6126 14.1651L20.4813 10.8058C20.1626 10.3058 19.5376 10.3995 19.3188 10.9776L17.7376 15.2432L23.1563 23.7743L26.8313 22.8055C27.3314 22.6727 27.5439 21.9305 27.2251 21.4306L25.0938 18.0791L39.6251 4.1809C40.0564 3.75122 40.1251 2.96217 39.7814 2.42312Z" fill="black"/>
</svg>
