<svg width="31" height="30" viewBox="0 0 31 30" fill="none" xmlns="http://www.w3.org/2000/svg">
<path d="M15.9404 0C7.65414 0 0.94043 6.71371 0.94043 15C0.94043 23.2863 7.65414 30 15.9404 30C24.2267 30 30.9404 23.2863 30.9404 15C30.9404 6.71371 24.2267 0 15.9404 0ZM24.0295 8.68185C23.3358 8.70665 22.8562 8.29173 22.8338 7.66149C22.8174 7.10625 23.2378 6.84859 23.2287 6.52137C23.2148 6.1252 22.6142 6.10887 22.4503 6.11794C20.0443 6.19597 19.5114 9.56552 18.8884 13.004C20.1846 13.1946 21.1051 12.9605 21.6187 12.6278C22.3445 12.1591 21.4166 11.677 21.5328 11.1423C21.7747 10.044 23.5015 9.99314 23.4683 11.4629C23.4465 12.5431 21.9005 13.9917 18.7747 13.6222C18.1239 17.2222 17.6648 20.5778 15.2545 23.4036C13.5005 25.4879 11.7223 25.8121 10.9251 25.8387C9.43418 25.8901 8.44527 25.0942 8.41019 24.0339C8.37632 23.0056 9.28418 22.4456 9.88055 22.4256C11.2045 22.3802 11.7023 23.9782 10.7806 24.4821C10.0493 25.0694 10.7872 25.2448 10.9045 25.2411C11.5348 25.2194 11.9533 24.9079 12.2461 24.6968C13.6977 23.4871 14.2566 21.3786 14.989 17.5385C15.4844 14.5349 16.0172 12.8208 16.0916 12.5788C15.0676 11.8077 14.4537 10.852 13.0765 10.4788C12.1324 10.223 11.5572 10.4407 11.1525 10.9524C10.6735 11.5573 10.8326 12.3435 11.2959 12.8093L12.0598 13.656C12.9979 14.7405 13.5114 15.5837 13.3178 16.7177C13.0118 18.528 10.8549 19.9173 8.30495 19.1335C6.12753 18.4615 5.72228 16.9222 5.98357 16.0718C6.43781 14.6111 8.54567 15.3629 8.07753 16.8944C7.90878 17.4145 7.77995 17.4194 7.69769 17.6849C7.42188 18.5782 10.2289 19.4026 10.7824 17.6008C11.0527 16.7226 10.4618 16.2877 9.4366 15.1905C7.71462 13.2702 8.46886 11.2294 9.61503 10.3718C12.8092 7.99173 15.6949 11.4315 16.3033 11.9329C18.5515 5.34012 22.3838 5.55423 22.4987 5.55C24.0205 5.50101 25.1715 6.19052 25.2102 7.28286C25.2253 7.74798 24.958 8.64919 24.0295 8.68185Z" fill="black"/>
</svg>
