<svg width="41" height="38" viewBox="0 0 41 38" fill="none" xmlns="http://www.w3.org/2000/svg">
<path d="M5.79868 18.4309L5.01981 19.1607L5.79868 19.8904L15.764 29.2272L16.4477 28.4975L17.1324 29.2263L20.4547 26.1052L20.8219 26.4492L23.6125 29.0638L24.296 29.7041L24.9797 29.0641L34.9449 19.7347L35.7244 19.005L34.9452 18.2749L24.9799 8.93813L24.2962 8.29753L23.6125 8.93813L20.2798 12.0607L19.9241 11.7255L17.1335 9.09605L16.4496 8.45169L15.764 9.09411L5.79868 18.4309ZM13.6565 19.7208L17.0845 22.9205L16.4397 23.5246L11.7821 19.1607L16.4397 14.7967L16.636 14.9806L16.8997 15.2276L16.8878 15.2388L17.6666 15.9685L23.7869 21.7028L24.4706 22.3434L25.1544 21.7028L27.0888 19.8904L27.8691 19.1593L27.0874 18.4296L23.6594 15.2299L24.2962 14.6333L28.9539 18.9972L24.2962 23.3612L24.1 23.1773L23.8353 22.9293L23.8551 22.9107L23.0773 22.182L16.957 16.4477L16.2733 15.8071L15.5895 16.4477L13.6552 18.2601L12.8748 18.9912L13.6565 19.7208ZM1.71094 19.079C1.71094 9.51545 10.0007 1.6579 20.372 1.6579C30.7432 1.6579 39.033 9.51545 39.033 19.079C39.033 28.6424 30.7432 36.5 20.372 36.5C10.0007 36.5 1.71094 28.6424 1.71094 19.079Z" stroke="#000EE6" stroke-width="2"/>
</svg>
