<svg width="40" height="37" viewBox="0 0 40 37" fill="none" xmlns="http://www.w3.org/2000/svg">
<path d="M12.505 30.0791C11.9128 29.8899 11.387 29.7217 10.9498 29.5815C11.1494 29.4786 11.3785 29.3605 11.6303 29.2308C11.9422 29.0701 12.2891 28.8915 12.658 28.7015C13.2926 28.3746 13.9925 28.0141 14.6922 27.6535C16.8678 26.5322 19.138 25.3605 19.3276 25.245L19.3277 25.245L19.3355 25.2402C19.3558 25.2275 19.4139 25.201 19.5166 25.1765C19.5843 25.1604 19.6515 25.1498 19.7096 25.1428C19.7274 25.1451 19.7503 25.1483 19.7788 25.1526C19.882 25.1682 20.025 25.1932 20.201 25.2264C20.551 25.2924 20.9994 25.3847 21.4551 25.4815C22.0354 25.6049 22.6158 25.7332 23.0009 25.8196L26.2642 31.8272L26.2753 31.8477L26.2874 31.8676C26.5746 32.3423 26.9796 32.9844 27.5198 33.389C27.8121 33.608 28.1898 33.7941 28.6461 33.8199C29.1084 33.8459 29.5397 33.7011 29.9229 33.4527L29.9328 33.4464L29.9424 33.4398C29.9419 33.4401 29.9475 33.4366 29.9593 33.4291C29.9961 33.4059 30.0939 33.3442 30.2615 33.2392C30.4669 33.1104 30.7526 32.9318 31.0916 32.7201C31.7696 32.2968 32.6594 31.7419 33.5447 31.1902C34.43 30.6385 35.3106 30.09 35.9698 29.6794L36.6985 29.2256C36.9506 29.2938 37.2224 29.3682 37.481 29.4389C37.4849 29.44 37.4888 29.441 37.4927 29.4421C37.3624 29.5569 37.2193 29.683 37.0655 29.8184C36.3516 30.4469 35.4096 31.2748 34.4672 32.1024C33.5249 32.9299 32.5824 33.7568 31.8677 34.3833C31.5102 34.6965 31.21 34.9594 30.9952 35.1472C30.8373 35.2852 30.7375 35.3721 30.6916 35.412C30.6709 35.4301 30.6612 35.4385 30.662 35.4379L30.662 35.4378L30.6546 35.444C30.5217 35.5539 30.2988 35.6237 29.8338 35.5468C29.4883 35.4897 29.172 35.3859 28.8169 35.2694C28.659 35.2176 28.4934 35.1633 28.3142 35.1094L28.3138 35.1093L28.3134 35.1092L28.3119 35.1087L28.3068 35.1072L28.2898 35.1019L28.234 35.0845L28.047 35.0256C27.8908 34.9763 27.6738 34.9077 27.4046 34.8224C26.8665 34.6519 26.1209 34.4152 25.2376 34.1345C23.471 33.5732 21.1544 32.8362 18.846 32.1011C16.5376 31.3659 14.2379 30.6328 12.505 30.0791ZM15.9782 14.3249L15.9795 14.323C16.0997 14.1457 16.2145 14.0027 16.3196 13.8876L18.6329 18.1109L18.1028 18.805L17.9797 18.966C17.4802 19.6199 16.8526 20.4413 16.2268 21.2609C15.5485 22.1492 14.872 23.0358 14.3627 23.7048C14.1081 24.0391 13.8948 24.3198 13.7438 24.5193C13.7025 24.5739 13.6655 24.6229 13.6335 24.6654L8.19628 27.4846L8.17137 27.4975L8.14723 27.5118C7.9952 27.6018 7.69464 27.7812 7.48182 28.1082C7.24631 28.4701 7.20421 28.8647 7.23336 29.2237L7.23328 29.2237L7.23445 29.2362C7.23385 29.2297 7.23426 29.2448 7.23539 29.2858C7.23668 29.3324 7.23889 29.4125 7.24156 29.5323C7.24486 29.6803 7.24848 29.8612 7.25238 30.0557C7.25362 30.1176 7.25488 30.1808 7.25618 30.2448C7.26083 30.475 7.26588 30.7198 7.27125 30.9421L6.75576 31.1776C6.10567 31.4745 5.23846 31.8704 4.36981 32.2662C3.77443 32.5375 3.1787 32.8086 2.65188 33.0478C2.88388 32.7214 3.13765 32.3645 3.40968 31.9822C4.76065 30.0834 6.56034 27.5576 8.37498 25.0112L9.04331 24.0734C12.4388 19.3087 15.7135 14.7136 15.9782 14.3249ZM30.9561 28.5544L30.946 28.5598L30.936 28.5655C30.8667 28.6044 30.8148 28.633 30.7746 28.6543C30.6911 28.5612 30.5713 28.3997 30.4141 28.1293C30.2288 27.8108 26.584 21.1848 22.9795 14.6321C19.5696 8.4333 16.1958 2.29999 15.8208 1.63373C15.8821 1.63302 15.9458 1.63261 16.0139 1.63217C16.0449 1.63196 16.0767 1.63176 16.1097 1.63151V1.63154L16.1169 1.63143C16.7031 1.62285 22.5841 1.57961 23.2007 1.57962L23.2066 1.57959C23.5771 1.57741 23.8265 1.58039 24.0164 1.59684C24.2016 1.61288 24.2701 1.63772 24.2923 1.64761C24.2924 1.64767 24.2926 1.64774 24.293 1.64785C24.3022 1.65077 24.3894 1.6784 24.6678 2.17591L24.6679 2.17588C24.9694 2.70577 37.0569 23.2682 37.3016 23.6832C37.4671 23.9698 37.6425 24.2906 37.7366 24.5631C37.5384 24.682 37.2643 24.8452 36.9382 25.0385C36.275 25.4317 35.4016 25.9469 34.5261 26.4622C33.6508 26.9774 32.774 27.4924 32.104 27.8848C31.769 28.0811 31.4861 28.2465 31.2812 28.3659C31.1787 28.4257 31.0963 28.4735 31.0371 28.5078C30.9993 28.5296 30.9765 28.5426 30.9648 28.5494C30.955 28.5549 30.9529 28.5561 30.9561 28.5544ZM15.2531 1.67266C15.2531 1.67265 15.2538 1.67239 15.2555 1.67193C15.2539 1.67245 15.2531 1.67268 15.2531 1.67266Z" stroke="#000EE6" stroke-width="2"/>
</svg>
