<svg width="30" height="30" viewBox="0 0 30 30" fill="none" xmlns="http://www.w3.org/2000/svg">
<path d="M23.368 23.5243C24.4658 23.0045 25.5049 22.3782 26.4827 21.6683L28.9673 25.9717L28.6058 28.971L25.8277 27.7847L23.368 23.5243ZM10.0672 17.5742L9.45164 18.6403L10.6214 19.0243C12.0084 19.4795 13.4791 19.7497 15.0003 19.7497C19.7974 19.7497 24.2488 17.3119 26.8437 13.3235L28.3788 14.175C25.4707 18.7165 20.4317 21.4996 15.0003 21.4996C13.0543 21.4996 11.1535 21.1301 9.3755 20.454L8.57975 20.1515L8.15408 20.8887L4.17225 27.7852L1.39419 28.9716L1.0327 25.9722L5.04266 19.0271L5.46288 18.2993L4.81827 17.76C3.65659 16.7883 2.6215 15.6773 1.778 14.413L3.29552 13.5343C3.90813 14.4374 4.62194 15.2466 5.40015 15.9665L6.31926 16.8167L6.94526 15.7324L10.9473 8.80024L11.228 8.31397L10.959 7.82113C10.592 7.14884 10.3752 6.40987 10.3752 5.62491C10.3752 3.07064 12.4458 1 15.0003 1C17.5547 1 19.6254 3.07064 19.6254 5.62491C19.6254 6.40984 19.4086 7.14864 19.0413 7.82063L18.7718 8.31365L19.0527 8.80025L21.6903 13.369C20.7665 14.1705 19.7126 14.7962 18.5729 15.2198L15.9853 10.7375L15.6869 10.2206L15.0903 10.2379C15.0558 10.2389 15.025 10.2413 14.9998 10.2438C14.9743 10.2413 14.9434 10.2389 14.9087 10.2379L14.3124 10.2209L14.0141 10.7375L10.0672 17.5742ZM1.31761 29.0043C1.31765 29.0043 1.3177 29.0043 1.31774 29.0043L1.31765 29.0043L1.31761 29.0043ZM17.8753 5.62491C17.8753 4.03726 16.5879 2.74994 15.0003 2.74994C13.4127 2.74994 12.1253 4.03726 12.1253 5.62491C12.1253 7.21257 13.4127 8.49988 15.0003 8.49988C16.5879 8.49988 17.8753 7.21256 17.8753 5.62491Z" stroke="#000EE6" stroke-width="2"/>
</svg>
