<svg width="50" height="47" viewBox="0 0 50 47" fill="none" xmlns="http://www.w3.org/2000/svg">
<path d="M41.3821 24.7318C41.3821 32.473 34.047 38.9919 24.6754 38.9919C15.3039 38.9919 7.96875 32.473 7.96875 24.7318C7.96875 16.9906 15.3039 10.4718 24.6754 10.4718C34.047 10.4718 41.3821 16.9906 41.3821 24.7318Z" fill="white" stroke="#000EE6" stroke-width="2"/>
<path d="M30.4451 24.4178C30.4451 26.8916 28.0647 29.1403 24.805 29.1403C21.5454 29.1403 19.165 26.8916 19.165 24.4178C19.165 21.944 21.5454 19.6953 24.805 19.6953C28.0647 19.6953 30.4451 21.944 30.4451 24.4178Z" fill="white" stroke="#000EE6" stroke-width="2"/>
<path d="M25.2463 12.2097V6.86873V0.78949M25.6889 35.4813V42.3483V46.8421M12.3332 23.6548H0.44043M36.3129 22.7232H49.593" stroke="#000EE6" stroke-width="2"/>
</svg>
