<svg width="45" height="45" viewBox="0 0 45 45" fill="none" xmlns="http://www.w3.org/2000/svg">
<path d="M42.8272 43.9654L42.8272 43.9654C43.0759 44.0716 43.3574 43.9098 43.3902 43.6404L42.8272 43.9654ZM42.8272 43.9654L38.392 42.0714L34.345 35.0619C36.3136 34.1784 38.1599 33.061 39.8771 31.7675L43.9673 38.8518L43.3902 43.6401L42.8272 43.9654ZM43.0575 21.4248L43.0573 21.4252C38.6147 28.4434 30.8615 32.7495 22.5004 32.7495C19.5179 32.7495 16.6067 32.183 13.8856 31.1484L13.0898 30.8458L12.6641 31.5831L6.60804 42.0722L2.17284 43.9663L2.1728 43.9663C1.92396 44.0726 1.64236 43.9105 1.60978 43.6409L1.0327 38.8527L7.13098 28.2906L7.5512 27.5628L6.90659 27.0236C5.09979 25.5122 3.48786 23.7755 2.17988 21.7896L2.17967 21.7893C2.0781 21.6352 2.11646 21.3604 2.3411 21.2305L2.34159 21.2302L4.7805 19.8179C4.78053 19.8179 4.78057 19.8178 4.7806 19.8178C4.93778 19.7269 5.17661 19.7534 5.32964 19.9802C6.23119 21.3167 7.28592 22.5153 8.43976 23.5826L9.35887 24.4329L9.98487 23.3485L15.9879 12.9504L16.2687 12.4641L15.9996 11.9713C15.4147 10.8997 15.0628 9.70952 15.0628 8.43737C15.0628 4.3298 18.3926 1 22.5004 1C26.6082 1 29.9381 4.3298 29.9381 8.43737C29.9381 9.70949 29.5862 10.8995 29.0007 11.9708L28.7312 12.4638L29.0121 12.9504L33.1721 20.156C31.5642 21.6257 29.6838 22.7413 27.6347 23.4406L23.5449 16.3563L23.2465 15.8394L22.6499 15.8567C22.5941 15.8583 22.5466 15.8631 22.5127 15.8673C22.5084 15.8678 22.504 15.8684 22.4998 15.8689C22.4954 15.8683 22.4909 15.8678 22.4865 15.8672C22.452 15.863 22.4045 15.8583 22.3488 15.8567L21.7525 15.8396L21.4542 16.3563L15.5338 26.6112L14.9183 27.6774L16.088 28.0613C18.1248 28.7298 20.2781 29.1246 22.5004 29.1246C29.5432 29.1246 36.0777 25.5366 39.8743 19.6697C40.0225 19.4412 40.2603 19.4106 40.4182 19.4982L40.4183 19.4982L42.8854 20.8667L42.8858 20.8669C43.1131 20.9928 43.157 21.2677 43.0575 21.4248ZM26.313 8.43737C26.313 6.33205 24.6058 4.62491 22.5004 4.62491C20.3951 4.62491 18.6879 6.33205 18.6879 8.43737C18.6879 10.5427 20.3951 12.2498 22.5004 12.2498C24.6058 12.2498 26.313 10.5427 26.313 8.43737Z" stroke="#000EE6" stroke-width="2"/>
</svg>
