<svg width="25" height="38" viewBox="0 0 25 38" fill="none" xmlns="http://www.w3.org/2000/svg">
<path d="M8.20753 31.2494H17.113L17.1113 33.0079C17.1113 33.0079 17.1113 33.0079 17.1113 33.0079C17.111 33.2757 17.0356 33.5334 16.9 33.7484L16.8999 33.7486L15.7347 35.5971L15.7345 35.5974C15.6213 35.7771 15.4714 35.9188 15.3023 36.0144C15.1336 36.1099 14.949 36.1579 14.7642 36.1579H10.5568C10.372 36.1579 10.1874 36.1099 10.0187 36.0144C9.84963 35.9188 9.69974 35.7771 9.58651 35.5974L9.58634 35.5971L8.42111 33.7486L8.42083 33.7481C8.2856 33.5339 8.21016 33.2758 8.2097 33.0077C8.2097 33.0076 8.2097 33.0075 8.2097 33.0074L8.20753 31.2494ZM4.39948 20.6722L4.39944 20.6722C2.69789 18.6234 1.66016 15.9359 1.66016 12.9801C1.66016 6.7514 6.30358 1.33613 12.6259 1.31585L12.6259 1.31585C18.6668 1.29623 23.6602 6.47394 23.6602 12.9801C23.6602 15.9359 22.6224 18.6234 20.9209 20.6722L20.9208 20.6722C19.8367 21.9778 18.2025 24.5573 17.3789 26.9476H7.94143C7.11777 24.5573 5.48364 21.9778 4.39948 20.6722ZM12.6227 0.32735V0.327351V0.32735ZM8.20561 12.9801C8.20561 10.3069 10.255 8.22361 12.6602 8.22361C13.8652 8.22361 14.7511 7.20924 14.7511 6.07231C14.7511 4.93538 13.8652 3.92102 12.6602 3.92102C7.84688 3.92102 4.02379 8.03524 4.02379 12.9801C4.02379 14.117 4.90961 15.1314 6.1147 15.1314C7.31979 15.1314 8.20561 14.117 8.20561 12.9801Z" stroke="#000EE6" stroke-width="2"/>
</svg>
